<svg width="40" height="40" viewBox="0 0 40 40" fill="none" xmlns="http://www.w3.org/2000/svg">
<rect width="40" height="40" rx="9" fill="#CA573E"/>
<path d="M15 12C15 11.4696 15.2107 10.9609 15.5858 10.5858C15.9609 10.2107 16.4696 10 17 10H23C23.5304 10 24.0391 10.2107 24.4142 10.5858C24.7893 10.9609 25 11.4696 25 12V14H29C29.2652 14 29.5196 14.1054 29.7071 14.2929C29.8946 14.4804 30 14.7348 30 15C30 15.2652 29.8946 15.5196 29.7071 15.7071C29.5196 15.8946 29.2652 16 29 16H27.931L27.064 28.142C27.0281 28.6466 26.8023 29.1188 26.4321 29.4636C26.0619 29.8083 25.5749 30 25.069 30H14.93C14.4241 30 13.9371 29.8083 13.5669 29.4636C13.1967 29.1188 12.9709 28.6466 12.935 28.142L12.07 16H11C10.7348 16 10.4804 15.8946 10.2929 15.7071C10.1054 15.5196 10 15.2652 10 15C10 14.7348 10.1054 14.4804 10.2929 14.2929C10.4804 14.1054 10.7348 14 11 14H15V12ZM17 14H23V12H17V14ZM14.074 16L14.931 28H25.07L25.927 16H14.074ZM18 18C18.2652 18 18.5196 18.1054 18.7071 18.2929C18.8946 18.4804 19 18.7348 19 19V25C19 25.2652 18.8946 25.5196 18.7071 25.7071C18.5196 25.8946 18.2652 26 18 26C17.7348 26 17.4804 25.8946 17.2929 25.7071C17.1054 25.5196 17 25.2652 17 25V19C17 18.7348 17.1054 18.4804 17.2929 18.2929C17.4804 18.1054 17.7348 18 18 18ZM22 18C22.2652 18 22.5196 18.1054 22.7071 18.2929C22.8946 18.4804 23 18.7348 23 19V25C23 25.2652 22.8946 25.5196 22.7071 25.7071C22.5196 25.8946 22.2652 26 22 26C21.7348 26 21.4804 25.8946 21.2929 25.7071C21.1054 25.5196 21 25.2652 21 25V19C21 18.7348 21.1054 18.4804 21.2929 18.2929C21.4804 18.1054 21.7348 18 22 18Z" fill="white"/>
</svg>
