<svg width="18" height="19" viewBox="0 0 18 19" fill="none" xmlns="http://www.w3.org/2000/svg">
<path d="M10.5 8.75H7.5C7.10218 8.75 6.72064 8.59196 6.43934 8.31066C6.15804 8.02936 6 7.64782 6 7.25C6 6.85218 6.15804 6.47064 6.43934 6.18934C6.72064 5.90804 7.10218 5.75 7.5 5.75H11.25C11.4489 5.75 11.6397 5.82902 11.7803 5.96967C11.921 6.11032 12 6.30109 12 6.5C12 6.69891 12.079 6.88968 12.2197 7.03033C12.3603 7.17098 12.5511 7.25 12.75 7.25C12.9489 7.25 13.1397 7.17098 13.2803 7.03033C13.421 6.88968 13.5 6.69891 13.5 6.5C13.5 5.90326 13.2629 5.33097 12.841 4.90901C12.419 4.48705 11.8467 4.25 11.25 4.25H9.75V2.75C9.75 2.55109 9.67098 2.36032 9.53033 2.21967C9.38968 2.07902 9.19891 2 9 2C8.80109 2 8.61032 2.07902 8.46967 2.21967C8.32902 2.36032 8.25 2.55109 8.25 2.75V4.25H7.5C6.70435 4.25 5.94129 4.56607 5.37868 5.12868C4.81607 5.69129 4.5 6.45435 4.5 7.25C4.5 8.04565 4.81607 8.80871 5.37868 9.37132C5.94129 9.93393 6.70435 10.25 7.5 10.25H10.5C10.8978 10.25 11.2794 10.408 11.5607 10.6893C11.842 10.9706 12 11.3522 12 11.75C12 12.1478 11.842 12.5294 11.5607 12.8107C11.2794 13.092 10.8978 13.25 10.5 13.25H6.75C6.55109 13.25 6.36032 13.171 6.21967 13.0303C6.07902 12.8897 6 12.6989 6 12.5C6 12.3011 5.92098 12.1103 5.78033 11.9697C5.63968 11.829 5.44891 11.75 5.25 11.75C5.05109 11.75 4.86032 11.829 4.71967 11.9697C4.57902 12.1103 4.5 12.3011 4.5 12.5C4.5 13.0967 4.73705 13.669 5.15901 14.091C5.58097 14.5129 6.15326 14.75 6.75 14.75H8.25V16.25C8.25 16.4489 8.32902 16.6397 8.46967 16.7803C8.61032 16.921 8.80109 17 9 17C9.19891 17 9.38968 16.921 9.53033 16.7803C9.67098 16.6397 9.75 16.4489 9.75 16.25V14.75H10.5C11.2956 14.75 12.0587 14.4339 12.6213 13.8713C13.1839 13.3087 13.5 12.5456 13.5 11.75C13.5 10.9544 13.1839 10.1913 12.6213 9.62868C12.0587 9.06607 11.2956 8.75 10.5 8.75Z" fill="#3B86C6"/>
</svg>
