<svg width="40" height="40" viewBox="0 0 40 40" fill="none" xmlns="http://www.w3.org/2000/svg">
<rect width="40" height="40" rx="9" fill="#3B86C6"/>
<path d="M25.8331 26.6667H14.1664C13.9454 26.6667 13.7335 26.7545 13.5772 26.9108C13.4209 27.0671 13.3331 27.279 13.3331 27.5C13.3331 27.7211 13.4209 27.933 13.5772 28.0893C13.7335 28.2456 13.9454 28.3334 14.1664 28.3334H25.8331C26.0541 28.3334 26.2661 28.2456 26.4223 28.0893C26.5786 27.933 26.6664 27.7211 26.6664 27.5C26.6664 27.279 26.5786 27.0671 26.4223 26.9108C26.2661 26.7545 26.0541 26.6667 25.8331 26.6667ZM14.1664 25H14.2414L17.7164 24.6834C18.0971 24.6455 18.4531 24.4777 18.7248 24.2084L26.2248 16.7084C26.5159 16.4009 26.6732 15.9905 26.6622 15.5672C26.6513 15.1438 26.473 14.7421 26.1664 14.45L23.8831 12.1667C23.5851 11.8868 23.1946 11.7262 22.7859 11.7154C22.3772 11.7047 21.9787 11.8445 21.6664 12.1084L14.1664 19.6084C13.8971 19.88 13.7293 20.236 13.6914 20.6167L13.3331 24.0917C13.3219 24.2138 13.3377 24.3368 13.3795 24.452C13.4212 24.5673 13.4879 24.6719 13.5748 24.7584C13.6526 24.8356 13.745 24.8967 13.8465 24.9382C13.948 24.9797 14.0568 25.0007 14.1664 25ZM22.7248 13.3334L24.9998 15.6084L23.3331 17.2334L21.0998 15L22.7248 13.3334ZM15.3081 20.7584L19.9998 16.1L22.2498 18.35L17.5831 23.0167L15.0831 23.25L15.3081 20.7584Z" fill="white"/>
</svg>
