<svg width="25" height="26" viewBox="0 0 25 26" fill="none" xmlns="http://www.w3.org/2000/svg">
<path d="M23.2737 12.5234C23.0705 12.2578 18.1721 5.96874 12.5002 5.96874C12.1867 5.97063 11.8737 5.99151 11.5627 6.03124C11.3555 6.05818 11.1675 6.16632 11.04 6.33188C10.9126 6.49744 10.8561 6.70685 10.883 6.91405C10.91 7.12126 11.0181 7.30927 11.1837 7.43673C11.3492 7.5642 11.5586 7.62068 11.7658 7.59374C12.0091 7.5576 12.2544 7.53673 12.5002 7.53124C16.5627 7.53124 20.4065 11.5703 21.633 13C21.0538 13.6539 20.4382 14.2746 19.7893 14.8594C19.7118 14.9278 19.6487 15.0109 19.6036 15.1038C19.5585 15.1968 19.5322 15.2978 19.5264 15.401C19.5206 15.5042 19.5353 15.6075 19.5697 15.7049C19.6041 15.8024 19.6575 15.8921 19.7268 15.9687C19.8014 16.0492 19.8922 16.1131 19.9931 16.1562C20.0941 16.1993 20.203 16.2206 20.3127 16.2187C20.5053 16.2204 20.6917 16.1508 20.8362 16.0234C21.7061 15.2423 22.5181 14.3989 23.2658 13.5C23.3779 13.3623 23.4397 13.1906 23.4411 13.0131C23.4426 12.8356 23.3835 12.6629 23.2737 12.5234ZM10.844 10.2422L6.80491 6.1953C6.73206 6.12246 6.64559 6.06468 6.55041 6.02526C6.45524 5.98584 6.35323 5.96555 6.25022 5.96555C6.1472 5.96555 6.0452 5.98584 5.95002 6.02526C5.85485 6.06468 5.76837 6.12246 5.69553 6.1953C5.62269 6.26815 5.56491 6.35462 5.52548 6.4498C5.48606 6.54497 5.46577 6.64698 5.46577 6.74999C5.46577 6.85301 5.48606 6.95501 5.52548 7.05019C5.56491 7.14536 5.62269 7.23184 5.69553 7.30468L6.53147 8.14062C4.75187 9.38465 3.13969 10.8524 1.73459 12.5078C1.62168 12.647 1.56006 12.8208 1.56006 13C1.56006 13.1792 1.62168 13.353 1.73459 13.4922C1.95334 13.7812 7.10959 20.0312 12.5002 20.0312C14.1202 19.982 15.7021 19.5281 17.1018 18.7109L18.1955 19.8047C18.2682 19.8779 18.3546 19.936 18.4498 19.9757C18.545 20.0154 18.6471 20.0358 18.7502 20.0358C18.8534 20.0358 18.9555 20.0154 19.0507 19.9757C19.1459 19.936 19.2323 19.8779 19.3049 19.8047C19.3781 19.7321 19.4363 19.6456 19.4759 19.5504C19.5156 19.4552 19.536 19.3531 19.536 19.25C19.536 19.1469 19.5156 19.0447 19.4759 18.9495C19.4363 18.8543 19.3781 18.7679 19.3049 18.6953L10.844 10.2422ZM10.3908 11.9922L13.5158 15.1172C13.0785 15.3261 12.5871 15.3942 12.1094 15.3122C11.6317 15.2303 11.1912 15.0023 10.8485 14.6595C10.5058 14.3168 10.2777 13.8763 10.1958 13.3986C10.1138 12.9209 10.182 12.4295 10.3908 11.9922ZM12.5002 18.4687C8.65647 18.4687 4.68772 14.4297 3.38303 13C4.59594 11.6461 5.96185 10.4375 7.45334 9.39843C7.51816 9.34919 7.57598 9.29137 7.62522 9.22655L9.24241 10.8437C8.8193 11.4833 8.59379 12.2332 8.59397 13C8.59397 14.036 9.00552 15.0296 9.73808 15.7621C10.4706 16.4947 11.4642 16.9062 12.5002 16.9062C13.267 16.9064 14.0169 16.6809 14.6565 16.2578L15.9377 17.5469C14.8771 18.1122 13.7013 18.4275 12.5002 18.4687Z" fill="#3B86C6"/>
</svg>
