<svg width="18" height="19" viewBox="0 0 18 19" fill="none" xmlns="http://www.w3.org/2000/svg">
<path d="M14.4 5.74997H14.1075C14.1974 5.50991 14.2456 5.25626 14.25 4.99997C14.2343 4.38991 13.9778 3.81086 13.5366 3.38929C13.0953 2.96771 12.5052 2.73787 11.895 2.74997C11.2954 2.76291 10.7103 2.93683 10.201 3.2535C9.69171 3.57018 9.2769 4.01796 9.00003 4.54997C8.72316 4.01796 8.30835 3.57018 7.79903 3.2535C7.28972 2.93683 6.70463 2.76291 6.10503 2.74997C5.49489 2.73787 4.90475 2.96771 4.46351 3.38929C4.02226 3.81086 3.76576 4.38991 3.75003 4.99997C3.75446 5.25626 3.80266 5.50991 3.89253 5.74997H3.60003C3.40267 5.76871 3.21099 5.82638 3.03606 5.91966C2.86113 6.01293 2.70642 6.13996 2.58089 6.29339C2.45535 6.44683 2.36147 6.62362 2.30468 6.81356C2.24789 7.00349 2.22932 7.20281 2.25003 7.39997V10.1C2.21499 10.4631 2.30837 10.8271 2.51391 11.1286C2.71945 11.43 3.02415 11.6499 3.37503 11.75V15.0275C3.39818 15.3677 3.55281 15.6855 3.80619 15.9137C4.05956 16.1418 4.39179 16.2624 4.73253 16.25H13.2675C13.6132 16.2622 13.9497 16.1375 14.2039 15.9029C14.4581 15.6684 14.6094 15.343 14.625 14.9975V11.75C14.9759 11.6499 15.2806 11.43 15.4862 11.1286C15.6917 10.8271 15.7851 10.4631 15.75 10.1V7.39997C15.7707 7.20281 15.7522 7.00349 15.6954 6.81356C15.6386 6.62362 15.5447 6.44683 15.4192 6.29339C15.2936 6.13996 15.1389 6.01293 14.964 5.91966C14.7891 5.82638 14.5974 5.76871 14.4 5.74997ZM14.25 7.39997V10.1C14.259 10.1496 14.259 10.2004 14.25 10.25H9.75003V7.24997H14.25C14.259 7.29956 14.259 7.35037 14.25 7.39997ZM11.895 4.24997C12.1075 4.23758 12.3163 4.30932 12.4763 4.44967C12.6363 4.59002 12.7346 4.7877 12.75 4.99997C12.7346 5.21224 12.6363 5.40992 12.4763 5.55026C12.3163 5.69061 12.1075 5.76235 11.895 5.74997H10.05C10.1813 5.34929 10.425 4.99483 10.7521 4.72886C11.0793 4.4629 11.476 4.29665 11.895 4.24997ZM5.25003 4.99997C5.26544 4.7877 5.36377 4.59002 5.52376 4.44967C5.68376 4.30932 5.89256 4.23758 6.10503 4.24997C6.52272 4.29801 6.91785 4.46487 7.24355 4.73075C7.56925 4.99663 7.81184 5.35036 7.94253 5.74997H6.10503C5.89256 5.76235 5.68376 5.69061 5.52376 5.55026C5.36377 5.40992 5.26544 5.21224 5.25003 4.99997ZM3.75003 7.39997C3.74103 7.35037 3.74103 7.29956 3.75003 7.24997H8.25003V10.25H3.75003C3.74103 10.2004 3.74103 10.1496 3.75003 10.1V7.39997ZM4.87503 11.75H8.25003V14.75H4.87503V11.75ZM9.75003 14.75V11.75H13.125V14.75H9.75003Z" fill="#3B86C6"/>
</svg>
