<svg width="540" height="543" viewBox="0 0 540 543" fill="none" xmlns="http://www.w3.org/2000/svg">
<path d="M235.812 107.126C220.115 114.655 198.706 111.377 178.7 110.49C130.141 108.336 83.233 102.113 91.5515 148.339C103.297 213.611 50.2882 198.494 23.7055 222.737C-2.8771 246.98 -11.5319 324.685 90.4712 322.821C192.474 320.956 91.7075 401.768 148.582 392.444C205.457 383.119 220.293 375.66 253.676 399.903C287.059 424.147 296.95 338.983 335.897 359.497C374.843 380.011 388.332 405.479 430.989 360.101C452.167 337.569 439.924 339.344 488.204 322.516C514.485 313.356 530.409 297.763 533.341 269.47C536.274 241.177 522.846 226.75 507.562 225.101C476.748 221.776 472.076 188.079 455.485 178.232C442.491 170.519 430.658 169.02 412.303 173.517C396.754 177.326 369.904 172.39 366.189 161.195C356.649 132.451 326.497 92.5032 281.629 91.3752C255.149 90.7096 248.529 101.028 235.812 107.126Z" fill="#D1D9EA"/>
<path d="M227.859 262.09C227.509 262.09 227.225 262.375 227.225 262.726C227.225 262.916 227.225 268.584 227.225 268.772C227.225 269.124 227.509 269.409 227.859 269.409H304.452C304.802 269.409 305.086 269.124 305.086 268.772V262.726C305.086 262.375 304.802 262.09 304.452 262.09H227.859Z" fill="#F8F9FB"/>
<path d="M306.689 248.49L302.544 269.779C302.544 269.779 358.842 273.067 361.55 269.149C364.258 265.233 370.434 253.767 370.434 253.767C370.434 253.767 373.202 265.537 373.949 269.703C374.696 273.871 376.636 288.412 376.395 293.102C376.155 297.791 374.664 302.239 374.664 302.239C374.664 302.239 385.677 311.69 390.75 313.958C395.824 316.225 412.123 322.885 412.123 322.885L446.736 247.161L443.966 243.013C443.966 243.013 443.023 228.503 440.929 222.185C438.834 215.866 436.199 205.957 433.19 202.344C430.181 198.731 425.075 193.069 421.541 190.683C418.007 188.296 412.952 185.806 412.952 185.806L411.78 180.687L406.74 181.356C406.74 181.356 390.813 185.599 389.03 186.456C387.245 187.313 383.97 187.875 381.839 189.214C379.709 190.553 372.094 194.546 370.641 195.747C369.189 196.948 362.99 202.434 362.377 203.278C361.763 204.123 354.928 213.537 352.512 219.22C350.095 224.902 347.67 229.098 346.058 233.241C344.447 237.383 341.581 248.188 341.581 248.188L306.689 248.49Z" fill="#F8F9FB"/>
<path d="M321.549 425.351L345.171 424.913L343.868 400.453L351.316 421.307L375.184 421.882L373.236 381.132L371.275 361.558L406.454 335.268L411.301 323.089C411.301 323.089 395.673 316.796 392.692 315.032C389.713 313.267 375.341 303.344 375.341 303.344C375.341 303.344 343.48 300.972 332.151 301.482C320.82 301.993 309.434 301.879 304.024 303.919C298.612 305.96 296.301 308.794 296.301 308.794C296.301 308.794 293.855 315.858 296.136 328.869C298.416 341.879 307.587 380.638 312.553 395.685C317.52 410.732 321.549 425.351 321.549 425.351Z" fill="#3B86C6"/>
<path d="M306.308 250.227C306.308 250.227 294.336 248.587 290.727 249.499C287.119 250.41 287.413 249.634 284.405 251.514C281.398 253.393 280.159 255.005 277.831 256.943C275.502 258.881 274.712 259.691 274.178 261.058C273.644 262.425 271.943 263.232 274.666 263.81C277.388 264.387 280.306 264.448 283.713 263.672C287.121 262.895 289.708 262.392 291.925 263.117C294.14 263.842 298.104 264.564 300.086 264.467C302.068 264.371 302.921 264.177 302.921 264.177L306.308 250.227Z" fill="white"/>
<path d="M366.326 144.904L361.624 158.326L359.568 164.195L362.839 165.651C362.839 165.651 362.053 172.55 363.917 175.98C365.781 179.41 366.813 181.763 370.976 181.524C375.141 181.285 378.989 180.208 378.989 180.208C378.989 180.208 381.091 183.638 381.447 185.432C381.805 187.227 382.281 189.7 382.281 189.7C382.281 189.7 387.224 187.033 393.475 185.368C399.727 183.702 407.477 181.691 407.477 181.691C407.477 181.691 404.726 179.962 403.352 177.636C401.977 175.311 400.726 171.476 400.695 170.911C400.663 170.345 379.985 139.181 379.985 139.181L366.326 144.904Z" fill="white"/>
<path d="M365.046 154.152L362.001 163.491C362.001 163.491 366.114 164.581 366.943 161.841C367.542 159.856 366.238 159.633 365.47 157.533C364.853 155.847 365.046 154.152 365.046 154.152Z" fill="#D1D9EA"/>
<path d="M375.326 155.4C375.326 155.4 372.624 159.075 373.043 163.745C373.461 168.416 376.697 178.254 371.101 181.661C371.101 181.661 376.677 181.551 379.206 179.627C380.381 178.733 381.047 177.354 382.555 177.004C384.288 176.601 387.3 176.746 388.184 181.504C389.104 186.451 381.285 189.375 381.285 189.375C381.285 189.375 386.415 186.396 391.899 185.195C397.383 183.995 407.024 181.371 407.024 181.371C407.024 181.371 402.248 179.414 401.186 174.656C400.125 169.898 397.516 161.804 397.516 161.804L388.857 153.66L375.326 155.4Z" fill="#D1D9EA"/>
<path d="M298.035 249.632C294.699 250.15 293.796 258.015 288.257 259.006C282.718 259.996 269.969 262.825 273.85 264.199C277.729 265.572 282.155 263.305 287.384 263.187C292.614 263.068 292.866 263.422 295.873 264.01C298.879 264.599 303.817 264.499 303.817 264.499L306.565 250.508C306.565 250.508 301.37 249.116 298.035 249.632Z" fill="#D1D9EA"/>
<path d="M144.556 212.449H275.226C283.533 212.449 290.268 220.121 290.268 229.584C290.268 239.047 283.533 246.72 275.226 246.72H144.556C136.249 246.72 129.515 239.047 129.515 229.584C129.515 220.121 136.249 212.449 144.556 212.449Z" fill="#F8F9FB"/>
<path d="M144.562 211.357C135.624 211.357 128.435 219.548 128.435 229.587C128.435 239.625 135.624 247.815 144.562 247.815H275.225C284.164 247.815 291.354 239.625 291.354 229.587C291.354 219.548 284.164 211.357 275.225 211.357H144.562ZM144.562 213.539H275.225C282.902 213.539 289.183 220.697 289.183 229.587C289.183 238.476 282.902 245.634 275.225 245.634H144.562C136.886 245.634 130.604 238.476 130.604 229.587C130.604 220.697 136.886 213.539 144.562 213.539Z" fill="#303757"/>
<path d="M131.134 130.79H288.648V226.501H131.134V130.79Z" fill="white"/>
<path d="M144.756 141.856C143.258 141.856 142.044 143.078 142.044 144.584C142.044 145.116 142.044 212.172 142.044 212.705C142.044 214.211 143.258 215.433 144.756 215.433H273.689C275.187 215.433 276.402 214.211 276.402 212.705V144.584C276.402 143.078 275.187 141.856 273.689 141.856H144.756Z" fill="#D1D9EA"/>
<path d="M131.136 128.065C129.638 128.065 128.423 129.286 128.423 130.792C128.423 130.979 128.423 226.319 128.423 226.506C128.423 228.014 129.638 229.234 131.136 229.234H288.652C290.151 229.234 291.364 228.014 291.364 226.506V130.792C291.364 129.286 290.151 128.065 288.652 128.065H131.136ZM133.848 133.52H285.939V223.779H133.848C133.848 218.635 133.848 138.664 133.848 133.52Z" fill="#303757"/>
<path d="M205.02 236.935C205.02 234.229 207.201 232.037 209.891 232.037C212.581 232.037 214.763 234.229 214.763 236.935C214.763 239.64 212.581 241.834 209.891 241.834C207.201 241.834 205.02 239.64 205.02 236.935Z" fill="#303757"/>
<path d="M208.08 246.724V269.374H211.697V246.724H208.08Z" fill="#303757"/>
<path d="M226.028 177.558C225.429 177.558 224.943 178.047 224.943 178.649C224.943 179.252 225.429 179.74 226.028 179.74H262.77C263.37 179.74 263.855 179.252 263.855 178.649C263.855 178.047 263.37 177.558 262.77 177.558H226.028Z" fill="#F8F9FB"/>
<path d="M226.028 187.093C225.429 187.093 224.943 187.582 224.943 188.184C224.943 188.787 225.429 189.275 226.028 189.275H262.77C263.37 189.275 263.855 188.787 263.855 188.184C263.855 187.582 263.37 187.093 262.77 187.093H226.028Z" fill="#F8F9FB"/>
<path d="M176.265 157.102C175.265 157.102 174.457 157.916 174.457 158.92C174.457 159.924 175.265 160.738 176.265 160.738H258.363C259.361 160.738 260.171 159.924 260.171 158.92C260.171 157.916 259.361 157.102 258.363 157.102H176.265Z" fill="#F8F9FB"/>
<path d="M159.673 168.285C158.675 168.285 157.865 169.099 157.865 170.103C157.865 171.107 158.675 171.921 159.673 171.921H204.225C205.225 171.921 206.035 171.107 206.035 170.103C206.035 169.099 205.225 168.285 204.225 168.285H159.673Z" fill="#F8F9FB"/>
<path d="M176.272 180.486C175.274 180.486 174.464 181.3 174.464 182.304C174.464 182.478 174.464 204.36 174.464 204.534C174.464 205.537 175.274 206.352 176.272 206.352H209.895C210.895 206.352 211.704 205.537 211.704 204.534V182.304C211.704 181.3 210.895 180.486 209.895 180.486H176.272Z" fill="#F8F9FB"/>
<path d="M81.403 268.359C78.4068 268.359 75.978 270.801 75.978 273.814C75.978 276.826 78.4068 279.269 81.403 279.269H380.025C383.021 279.269 385.45 276.826 385.45 273.814C385.45 270.801 383.021 268.359 380.025 268.359H81.403Z" fill="#303757"/>
<path d="M158.252 273.83C158.02 273.792 157.771 273.804 157.528 273.864C156.559 274.105 155.977 275.083 156.218 276.057C156.218 276.057 200.332 451.896 201.302 451.656C202.27 451.414 159.722 275.182 159.722 275.182C159.542 274.451 158.948 273.941 158.252 273.83Z" fill="#303757"/>
<path d="M367.883 273.83C367.651 273.792 367.403 273.804 367.16 273.864C366.19 274.105 365.608 275.083 365.849 276.057C365.849 276.057 409.963 451.896 410.933 451.656C411.902 451.414 369.353 275.182 369.353 275.182C369.173 274.451 368.58 273.941 367.883 273.83Z" fill="#303757"/>
<path d="M93.5445 273.83C93.7764 273.792 94.0255 273.804 94.2678 273.864C95.2373 274.105 95.8188 275.083 95.5788 276.057C95.5788 276.057 51.4645 451.896 50.4951 451.656C49.5256 451.414 92.0752 275.182 92.0752 275.182C92.2552 274.451 92.8485 273.941 93.5445 273.83Z" fill="#303757"/>
<path d="M303.176 273.83C303.408 273.792 303.656 273.804 303.899 273.864C304.869 274.105 305.451 275.083 305.21 276.057C305.21 276.057 261.096 451.896 260.126 451.656C259.157 451.414 301.706 275.182 301.706 275.182C301.886 274.451 302.479 273.941 303.176 273.83Z" fill="#303757"/>
<path d="M367.566 145.537C363.775 144.594 359.32 142.04 361.157 134.142C363.151 125.568 380.223 122.102 389.885 127.251C395.467 130.225 395.883 128.782 400.056 129.093C403.953 129.384 406.548 131.798 408.403 135.279C410.195 138.643 411.054 143.315 410.734 146.957C410.233 152.638 406.852 155.946 406.763 159.232C406.541 167.469 404.063 171.962 398.287 173.015C391.881 174.182 386.513 172.426 384.404 169.936C382.294 167.447 381.304 163.657 381.304 163.657C381.304 163.657 384.447 162.051 383.865 159.229C383.406 157.007 381.63 156.436 380.22 156.747C378.363 157.157 378.295 158.288 376.665 158.842C374.092 159.717 373.152 155.422 372.992 152.497C372.695 147.031 371.412 146.494 367.566 145.537Z" fill="#303757"/>
<path d="M367.83 139.356C367.498 139.247 367.136 139.431 367.028 139.765L359.117 164.188C359.011 164.513 359.183 164.865 359.5 164.984L362.281 166.03C362.268 166.17 362.249 166.299 362.236 166.461C362.057 168.761 362.119 171.279 362.575 173.655C363.35 177.694 365.158 180.553 368.294 181.633C371.829 182.852 375.167 182.44 378.188 180.906C378.806 180.592 379.414 180.233 380.003 179.826C381.489 178.8 382.806 176.417 382.806 176.417C382.806 176.417 380.784 177.98 379.493 178.763C378.535 179.345 377.407 179.929 376.417 180.31C374.009 181.237 371.421 181.366 368.7 180.429C366.077 179.525 364.517 177.043 363.818 173.405C363.387 171.159 363.33 168.759 363.502 166.564C363.521 166.32 363.538 166.104 363.559 165.916C363.57 165.805 363.587 165.725 363.592 165.689C363.631 165.394 363.461 165.122 363.186 165.018L360.518 164.007L368.237 140.163C368.345 139.829 368.163 139.465 367.83 139.356Z" fill="#303757"/>
<path d="M379.279 179.247C379.127 179.192 378.951 179.195 378.793 179.27C378.477 179.419 378.34 179.804 378.488 180.122C378.514 180.178 378.574 180.287 378.647 180.452C378.767 180.728 378.895 181.048 379.042 181.406C379.461 182.431 379.882 183.562 380.274 184.759C380.775 186.289 381.188 187.822 381.495 189.316C381.564 189.66 381.909 189.876 382.251 189.805C382.594 189.734 382.808 189.399 382.738 189.055C382.421 187.509 381.998 185.935 381.483 184.361C381.081 183.133 380.648 181.97 380.217 180.917C380.066 180.549 379.926 180.226 379.799 179.94C379.755 179.839 379.648 179.594 379.641 179.576C379.567 179.417 379.432 179.302 379.279 179.247Z" fill="#303757"/>
<path d="M400.674 168.973C400.325 168.97 400.032 169.258 400.03 169.609C400.03 169.611 400.032 169.989 400.052 170.291C400.084 170.771 400.142 171.294 400.234 171.86C400.489 173.458 400.963 175.057 401.691 176.553C402.775 178.782 404.35 180.594 406.494 181.827C406.798 182.001 407.18 181.893 407.353 181.588C407.527 181.283 407.419 180.899 407.116 180.724C405.206 179.627 403.8 178.008 402.821 175.996C402.153 174.623 401.726 173.138 401.488 171.655C401.404 171.13 401.348 170.642 401.318 170.2C401.301 169.93 401.295 169.734 401.296 169.621C401.298 169.269 401.023 168.976 400.674 168.973Z" fill="#303757"/>
<path d="M411.546 180.201C411.518 180.205 411.103 180.266 410.925 180.292C410.417 180.366 409.824 180.453 409.161 180.565C407.271 180.884 405.168 181.301 402.9 181.815C396.42 183.284 389.933 185.271 383.88 187.873C378.863 190.028 374.363 192.521 370.498 195.362C363.37 200.6 357.301 208.392 352.2 218.057C348.765 224.564 345.973 231.526 343.768 238.491C342.997 240.929 342.356 243.198 341.835 245.231C341.653 245.943 341.499 246.571 341.372 247.117C341.36 247.166 341.343 247.217 341.327 247.288L306.901 247.64C306.597 247.644 306.345 247.863 306.29 248.163L302.504 269.257C302.443 269.602 302.669 269.933 303.013 269.995C303.357 270.058 303.686 269.829 303.748 269.484L307.443 248.913L341.835 248.561C342.133 248.558 342.395 248.352 342.457 248.06C342.463 248.034 342.56 247.601 342.604 247.413C342.728 246.876 342.876 246.252 343.056 245.549C343.571 243.539 344.203 241.292 344.966 238.878C347.149 231.98 349.923 225.081 353.319 218.649C358.337 209.14 364.29 201.495 371.243 196.385C375.025 193.605 379.443 191.163 384.377 189.043C390.352 186.475 396.763 184.507 403.172 183.054C405.416 182.545 407.496 182.142 409.365 181.827C410.019 181.716 410.607 181.626 411.106 181.554C411.126 181.551 411.148 181.546 411.173 181.542L412.484 186.088C412.537 186.271 412.661 186.422 412.835 186.497C412.88 186.517 412.972 186.561 413.106 186.623C413.332 186.727 413.601 186.851 413.897 186.998C414.748 187.419 415.699 187.917 416.722 188.509C419.65 190.201 422.571 192.239 425.301 194.612C429.717 198.45 433.183 202.803 435.326 207.659C438.872 215.691 441.07 223.87 442.187 231.878C442.939 237.27 443.118 241.851 442.966 245.299C442.956 245.524 442.923 246.041 442.921 246.072C442.891 246.422 443.149 246.735 443.497 246.765C443.846 246.795 444.146 246.536 444.175 246.185C444.178 246.147 444.221 245.59 444.232 245.356C444.388 241.833 444.204 237.17 443.441 231.695C442.308 223.575 440.075 215.283 436.479 207.137C434.252 202.092 430.684 197.598 426.137 193.646C423.342 191.216 420.348 189.137 417.356 187.407C416.308 186.801 415.326 186.283 414.451 185.85C414.143 185.698 413.873 185.572 413.638 185.463C413.626 185.458 413.626 185.457 413.615 185.452L412.235 180.656C412.149 180.355 411.855 180.163 411.546 180.201Z" fill="#303757"/>
<path d="M380.811 230.084C380.811 230.084 379.204 233.771 376.87 239.063C374.917 243.489 372.816 247.815 370.814 251.959C369.687 254.292 368.599 256.475 367.548 258.46C364.46 264.291 361.853 268.266 359.953 269.87C359.685 270.096 359.65 270.499 359.873 270.768C360.098 271.037 360.499 271.074 360.766 270.847C362.835 269.102 365.502 265.028 368.666 259.05C369.726 257.051 370.823 254.862 371.956 252.515C373.965 248.353 375.472 244.186 377.422 239.739C379.175 235.745 380.811 230.084 380.811 230.084Z" fill="#303757"/>
<path d="M370.498 253.05C370.355 253.087 370.41 253.66 370.325 253.77C370.209 253.923 369.984 253.637 370.034 253.835C370.044 253.876 370.215 254.531 370.283 254.811C370.477 255.612 370.683 256.538 370.916 257.562C371.58 260.489 372.251 263.659 372.871 266.971C373.768 271.76 374.499 276.43 374.996 280.814C376.161 291.117 375.954 298.992 374.035 303.396C373.894 303.718 374.032 304.095 374.351 304.237C374.671 304.378 375.048 304.229 375.188 303.907C377.224 299.232 377.439 291.185 376.25 280.667C375.751 276.248 375.017 271.561 374.115 266.744C373.491 263.415 372.827 260.22 372.159 257.277C371.925 256.247 371.376 253.988 371.322 253.777C371.291 253.65 371.277 253.561 371.267 253.516C371.179 253.175 370.837 252.963 370.498 253.05Z" fill="#303757"/>
<path d="M374.916 301.316C374.755 301.302 374.587 301.34 374.453 301.453C374.186 301.679 374.149 302.082 374.374 302.351C374.424 302.409 374.517 302.526 374.657 302.68C374.887 302.933 375.169 303.227 375.493 303.555C376.416 304.488 377.542 305.52 378.873 306.635C382.665 309.815 387.356 312.992 393 315.955C398.699 318.946 405.059 321.556 412.123 323.671C412.458 323.771 412.815 323.576 412.914 323.239C413.014 322.902 412.819 322.544 412.484 322.443C405.499 320.352 399.204 317.784 393.576 314.829C388.015 311.909 383.399 308.78 379.674 305.658C378.374 304.568 377.281 303.563 376.386 302.657C376.074 302.343 375.812 302.056 375.595 301.816C375.467 301.675 375.384 301.578 375.346 301.532C375.234 301.398 375.079 301.33 374.916 301.316Z" fill="#303757"/>
<path d="M335.088 300.611C312.986 300.611 298.845 302.933 295.938 308.601C292.274 314.51 295.477 335.179 303.589 366.425C304.856 371.305 306.224 376.368 307.68 381.574C310.575 391.911 313.678 402.332 316.779 412.317C317.865 415.811 318.87 419.007 319.774 421.829C320.091 422.816 320.891 425.301 320.904 425.34C320.99 425.599 321.232 425.781 321.504 425.783L345.113 425.988C345.467 425.992 345.761 425.696 345.757 425.34C345.756 425.296 345.714 422.56 345.69 421.488C345.621 418.427 345.518 415.023 345.384 411.351C345.001 400.855 344.404 390.35 343.554 380.551C341.992 362.562 339.745 349.107 336.694 341.718C337.043 341.786 337.269 341.826 337.485 341.866C338.999 342.149 340.643 342.432 342.345 342.696C344.598 343.046 346.785 343.339 348.854 343.547C352.298 343.896 355.228 344.006 357.489 343.82C357.838 343.792 358.105 343.477 358.077 343.127C358.048 342.777 357.736 342.52 357.388 342.548C355.217 342.726 352.364 342.616 348.989 342.275C346.945 342.069 344.77 341.782 342.536 341.434C340.849 341.172 339.224 340.897 337.721 340.616C337.196 340.518 335.822 340.245 335.801 340.241C335.29 340.135 334.88 340.653 335.1 341.128C338.303 348.058 340.674 361.939 342.298 380.666C343.147 390.44 343.736 400.92 344.119 411.396C344.252 415.063 344.357 418.467 344.424 421.522C344.443 422.411 344.469 424.031 344.48 424.715L321.977 424.51C321.813 424.003 321.249 422.297 320.972 421.431C320.068 418.612 319.072 415.432 317.988 411.942C314.891 401.968 311.792 391.558 308.901 381.234C307.446 376.035 306.075 370.979 304.81 366.107C296.845 335.429 293.639 314.711 297.012 309.272L297.034 309.215C299.545 304.191 313.581 301.884 335.088 301.884C343.62 301.885 352.763 302.251 361.908 302.851C365.11 303.061 368.089 303.285 370.757 303.51C371.691 303.588 374.065 303.801 374.103 303.805C374.451 303.839 374.759 303.587 374.792 303.237C374.826 302.887 374.575 302.578 374.227 302.544C374.188 302.54 371.796 302.316 370.859 302.237C368.184 302.012 365.208 301.789 361.999 301.578C352.828 300.976 343.651 300.612 335.088 300.611Z" fill="#303757"/>
<path d="M370.837 360.197C370.49 360.246 370.246 360.565 370.294 360.914C370.978 365.892 371.574 371.401 372.091 377.347C372.94 387.122 373.528 397.602 373.911 408.078C374.045 411.744 374.148 415.149 374.216 418.203C374.235 419.095 374.261 420.718 374.272 421.397L351.77 421.193C351.589 420.631 350.381 416.892 349.86 415.249C348.263 410.213 346.55 404.672 344.775 398.781C344.673 398.444 344.317 398.258 343.984 398.361C343.648 398.462 343.452 398.808 343.554 399.144C345.331 405.042 347.052 410.594 348.65 415.636C349.211 417.399 350.702 422.004 350.707 422.022C350.793 422.281 351.036 422.464 351.307 422.465L374.916 422.67C375.272 422.673 375.553 422.379 375.55 422.022C375.549 421.978 375.505 419.241 375.481 418.17C375.414 415.108 375.311 411.705 375.177 408.032C374.793 397.537 374.207 387.032 373.357 377.234C372.839 371.268 372.235 365.744 371.548 360.743C371.501 360.395 371.183 360.15 370.837 360.197Z" fill="#303757"/>
<path d="M319.39 325.077C319.39 325.077 321.551 329.794 323.673 332.433C326.129 335.487 328.99 337.736 331.742 339.536C332.709 340.168 333.602 340.692 334.41 341.104C334.695 341.25 334.959 341.368 335.179 341.468C335.314 341.529 335.408 341.572 335.461 341.593C335.785 341.724 336.156 341.567 336.286 341.241C336.417 340.915 336.25 340.542 335.925 340.411C335.887 340.397 335.817 340.363 335.699 340.309C335.496 340.217 335.254 340.105 334.987 339.968C334.217 339.575 333.36 339.075 332.433 338.468C329.774 336.73 327.06 334.69 324.574 331.823C323.395 330.461 319.39 325.077 319.39 325.077Z" fill="#303757"/>
<path d="M342.073 247.277C341.913 247.246 341.743 247.281 341.598 247.379C341.308 247.576 341.233 247.974 341.429 248.265C341.439 248.281 347.149 255.99 347.149 255.99C347.149 255.99 345.85 253.218 345.088 251.923C344.345 250.658 342.49 247.565 342.48 247.55C342.382 247.403 342.232 247.308 342.073 247.277Z" fill="#303757"/>
<path d="M413.027 185.316C413.005 185.316 411.736 185.372 411.241 185.395C409.829 185.462 408.257 185.556 406.562 185.679C401.721 186.031 396.879 186.552 392.356 187.282C385.012 188.467 379.243 190.077 375.595 192.203C375.293 192.379 375.182 192.762 375.357 193.066C375.532 193.37 375.925 193.481 376.227 193.305C379.709 191.277 385.135 189.302 392.337 188.14C396.819 187.417 401.717 186.934 406.524 186.585C408.208 186.463 410.456 186.391 411.858 186.325C412.348 186.301 414.14 186.638 414.159 186.638C414.508 186.628 413.692 186.292 413.683 185.941C413.673 185.589 413.377 185.306 413.027 185.316Z" fill="#303757"/>
<path d="M366.645 156.912C366.645 156.404 367.054 155.992 367.559 155.992C368.064 155.992 368.474 156.404 368.474 156.912C368.474 157.42 368.064 157.832 367.559 157.832C367.054 157.832 366.645 157.42 366.645 156.912Z" fill="#303757"/>
<path d="M380.539 156.001C380.539 156.001 376.712 158.045 376.089 162.321C376.089 162.321 374.99 156.209 380.539 156.001Z" fill="#303757"/>
<path d="M365.719 170.835C365.719 170.835 368.246 170.438 369.798 168.919C369.798 168.919 368.539 172.15 365.719 170.835Z" fill="#303757"/>
<path d="M365.604 152.472L370.934 153.658C370.934 153.658 370.102 151.523 368.216 151.354C367.084 151.253 366.439 151.611 365.604 152.472Z" fill="#303757"/>
<path d="M380.923 158.655C380.923 158.655 378.182 159.953 379.388 162.17C379.388 162.17 379.497 160.263 380.923 158.655Z" fill="#303757"/>
<path d="M414.25 299.133C414.653 262.636 434.492 239.452 459.062 239.452C483.633 239.452 500.977 269.145 500.772 300.061C500.677 314.266 499.405 336.981 475.431 351.546C448.782 367.736 407.193 364.604 392.771 364.604C381.049 364.604 339.17 360.278 348.318 345.771C353.518 337.525 379.796 347.151 401.2 334.215C411.588 327.937 414.11 311.833 414.25 299.133Z" fill="#303757"/>
<path d="M433.857 349.855C432.859 349.855 432.049 350.67 432.049 351.674V447.32C432.049 448.324 432.859 449.138 433.857 449.138C434.855 449.138 435.665 448.324 435.665 447.32V351.674C435.665 350.67 434.855 349.855 433.857 349.855Z" fill="#303757"/>
<path d="M433.853 433.538L462.369 451.656H405.336L433.853 433.538Z" fill="#303757"/>
<path d="M459.532 252.57C459.532 252.57 447.263 252.614 450.152 261.965C453.04 271.317 440.39 265.334 440.679 271.549C440.679 271.549 440.43 268.775 444.504 269.341C448.577 269.908 451.391 267.676 451.226 264.714C451.06 261.75 449.524 257.559 453.246 255.091C456.458 252.959 459.532 252.57 459.532 252.57Z" fill="#D1D9EA"/>
<path d="M482.432 294.666C482.432 294.666 476.753 299.998 478.749 311.381C479.917 318.031 474.469 322.591 467.203 318.987C459.937 315.384 456.312 320.458 451.733 321.258C447.154 322.058 436.646 319.789 436.346 307.177C436.346 307.177 436.883 312.109 439.707 315.963C442.12 319.255 446.378 321.71 451.487 320.172C459.192 317.855 460.64 315.846 468.166 317.857C474.77 319.623 478.627 318.756 477.168 310.434C475.379 300.234 482.432 294.666 482.432 294.666Z" fill="#D1D9EA"/>
<path d="M472.119 334.093C472.119 334.093 463.864 330.654 460.679 335.397C457.495 340.141 455.844 344.766 450.419 342.75C444.994 340.734 439.623 347.014 441.339 353.541C441.339 353.541 439.809 342.135 450.291 343.905C458.231 345.246 458.655 339.15 462.111 335.676C465.566 332.202 472.119 334.093 472.119 334.093Z" fill="#D1D9EA"/>
<path d="M450.23 299.464C450.23 299.464 453.836 297.665 452.837 292.071C451.839 286.478 458.899 291.57 461.11 288.127C463.321 284.684 468.101 286.334 469.955 291.928C472.402 299.31 467.004 308.087 461.895 302.614C458.614 299.1 459.399 307.634 455.69 305.267C455.69 305.267 457.755 306.363 458.325 303.312C458.893 300.26 461.802 300.928 463.54 302.899C465.279 304.869 470.273 300.768 469.831 295.747C469.341 290.183 466.669 286.656 463.951 287.197C461.232 287.738 461.916 289.538 459.999 290.025C457.503 290.661 453.583 289.04 453.678 291.074C453.773 293.108 453.484 298.383 450.23 299.464Z" fill="#D1D9EA"/>
<path d="M475.709 266.187C475.709 266.187 470.978 270.194 475.959 273.698C480.939 277.204 473.883 281.794 479.361 283.714C484.839 285.633 487.26 285.524 485.853 290.74C485.853 290.74 488.381 287.697 485.616 285.314C482.852 282.932 476.204 284.156 477.949 280.152C479.693 276.148 478.179 274.195 476.106 272.606C474.032 271.018 473.931 268.571 475.709 266.187Z" fill="#D1D9EA"/>
<path d="M423.33 288.801C423.33 288.801 425.411 296.841 429.762 292.673C433.333 289.252 432.377 288.294 437.348 287.496C444.695 286.318 441.098 281.501 435.737 279.776C435.737 279.776 444.623 284.339 439.159 286.522C436.186 287.71 434.815 286.675 432.375 288.783C429.937 290.891 426.415 297.718 423.33 288.801Z" fill="#D1D9EA"/>
<path d="M421.965 310.858C421.965 310.858 418.184 321.598 427.205 324.466C436.228 327.335 434.502 331.07 439.876 333.671C445.249 336.273 452.811 327.935 452.811 327.935C452.811 327.935 446.057 335.198 440.706 332.919C435.356 330.638 435.175 326.262 430.369 324.939C425.563 323.617 419.592 320.759 421.965 310.858Z" fill="#D1D9EA"/>
<path d="M494.95 314C494.95 314 485.695 312.231 486.476 319.441C487.259 326.651 487.324 330.19 481.457 332.616C481.457 332.616 487.852 331.671 487.401 324.481C486.949 317.289 486.994 313.702 494.95 314Z" fill="#D1D9EA"/>
<path d="M395.762 340.654C395.762 340.654 395.079 349.365 403.209 348.677C411.34 347.989 408.908 355.707 415.139 356.777C421.37 357.847 422.207 353.72 427.829 356.395C427.829 356.395 425.077 353.707 420.501 355.616C415.925 357.525 413.198 355.861 410.813 351.896C408.428 347.931 406.14 346.903 402.343 347.588C398.546 348.274 396.501 346.511 395.762 340.654Z" fill="#D1D9EA"/>
<path d="M375.401 345.382C375.401 345.382 373.769 352.471 379.119 354.346C383.857 356.007 386.626 357.22 387.652 361.901C387.652 361.901 386.495 356.708 380.005 355.597C373.513 354.487 374.72 347.058 375.401 345.382Z" fill="#D1D9EA"/>
<path d="M323.585 425.08C323.585 425.08 309.285 432.644 295.894 439.033C287.17 443.195 291.042 445.995 291.042 445.995H346.383C346.383 445.995 347.296 443.523 346.491 435.272C345.984 430.082 344.47 425.224 344.47 425.224L323.585 425.08Z" fill="#303757"/>
<path d="M353.797 421.852C353.797 421.852 339.496 429.415 326.105 435.804C317.383 439.967 321.255 442.766 321.255 442.766H376.595C376.595 442.766 377.508 440.293 376.702 432.042C376.196 426.853 374.682 421.996 374.682 421.996L353.797 421.852Z" fill="#303757"/>
<path d="M300.801 249.113C299.309 248.995 297.806 248.91 296.353 248.868C292.597 248.761 289.628 248.965 287.705 249.585C284.171 250.724 279.208 254.155 275.942 257.598C274.262 259.368 273.194 260.979 272.95 262.244C272.628 263.91 273.689 264.923 275.812 264.999C278.314 265.091 280.382 264.909 283.483 264.427C287.051 263.873 287.036 263.878 288.245 263.798C290.055 263.679 291.618 263.813 293.206 264.281C296.39 265.219 299.224 265.452 301.565 265.227C302.182 265.169 303.047 265.027 303.594 264.814C303.921 264.687 304.462 264.004 304.379 263.662C304.295 263.32 302.888 263.711 302.549 263.794C302.51 263.805 302.422 263.817 302.284 263.841C302.045 263.883 301.771 263.921 301.447 263.952C299.259 264.16 296.583 263.947 293.56 263.057C291.818 262.544 290.11 262.396 288.16 262.525C286.895 262.608 286.92 262.605 283.296 263.168C280.267 263.638 278.269 263.813 275.864 263.727C274.447 263.675 274.044 263.295 274.199 262.489C274.386 261.525 275.328 260.093 276.854 258.485C279.984 255.186 284.777 251.872 288.09 250.804C289.838 250.241 292.692 250.038 296.313 250.142C299.177 250.224 302.221 250.477 305.059 250.814C305.458 250.861 306.451 250.986 306.517 250.996C306.863 251.045 307.183 250.812 307.232 250.465C307.28 250.116 307.037 249.793 306.692 249.744C306.673 249.742 305.615 249.598 305.211 249.549C303.776 249.379 302.293 249.232 300.801 249.113Z" fill="#303757"/>
<path d="M379.751 160.548C379.751 160.548 380.185 159.739 381.89 160.297C381.89 160.297 381.712 159.982 381.265 159.801C380.783 159.605 380.018 159.531 379.653 159.948C378.709 161.028 379.751 160.548 379.751 160.548Z" fill="#303757"/>
<path d="M368.923 142.507C368.923 142.507 363.209 138.708 366.551 132.281C366.551 132.281 364.371 138.27 368.923 142.507Z" fill="#D1D9EA"/>
<path d="M369.327 138.95C369.327 138.95 367.919 129.144 378.597 128.488C378.597 128.488 368.64 130.56 369.327 138.95Z" fill="#D1D9EA"/>
<path d="M373.749 138.982C373.749 138.982 378.779 133.408 386.231 139.684C386.231 139.684 379.478 134.954 373.749 138.982Z" fill="#D1D9EA"/>
<path d="M396.97 169.297C396.97 169.297 401.788 169.384 402.742 164.19C402.742 164.19 401.443 168.224 396.97 169.297Z" fill="#D1D9EA"/>
<path d="M401.163 158.93C401.163 158.93 401.488 164.289 399.003 165.918C399.003 165.918 402.243 164.976 401.163 158.93Z" fill="#D1D9EA"/>
<path d="M411.029 340.01C411.029 340.01 416.736 344.055 420.565 340.409C423.952 337.185 426.876 337.728 426.876 337.728C426.876 337.728 424.104 336.604 420.543 339.393C415.672 343.208 411.029 340.01 411.029 340.01Z" fill="#D1D9EA"/>
</svg>
