<svg width="512" height="435" viewBox="0 0 512 435" fill="none" xmlns="http://www.w3.org/2000/svg">
<g clip-path="url(#clip0_7_1032)">
<path d="M512 382.278H-72V382.571H512V382.278Z" fill="#EBEBEB"/>
<path d="M453.483 401.062H414.799V401.355H453.483V401.062Z" fill="#EBEBEB"/>
<path d="M400.094 401.062H317.388V401.355H400.094V401.062Z" fill="#EBEBEB"/>
<path d="M271.777 390.229H249.364V390.521H271.777V390.229Z" fill="#EBEBEB"/>
<path d="M29.3239 392.19H-10.7268V392.482H29.3239V392.19Z" fill="#EBEBEB"/>
<path d="M112.544 392.19H39.7192V392.482H112.544V392.19Z" fill="#EBEBEB"/>
<path d="M190.964 397.117H147.969V397.409H190.964V397.117Z" fill="#EBEBEB"/>
<path d="M204.828 330.211H-20.7013C-24.3805 330.211 -27.3706 327.222 -27.3706 323.544V6.66609C-27.3706 2.98865 -24.3805 0 -20.7013 0H204.839C208.519 0 211.509 2.98865 211.509 6.66609V323.544C211.497 327.222 208.507 330.211 204.828 330.211ZM-20.7013 0.29186C-24.217 0.29186 -27.0786 3.15209 -27.0786 6.66609V323.544C-27.0786 327.058 -24.217 329.919 -20.7013 329.919H204.839C208.355 329.919 211.217 327.058 211.217 323.544V6.66609C211.217 3.15209 208.355 0.29186 204.839 0.29186H-20.7013Z" fill="#EBEBEB"/>
<path d="M457.466 330.211H231.925C228.246 330.211 225.256 327.222 225.256 323.544V6.66609C225.256 2.98865 228.246 0 231.925 0H457.466C461.145 0 464.135 2.98865 464.135 6.66609V323.544C464.135 327.222 461.145 330.211 457.466 330.211ZM231.925 0.29186C228.41 0.29186 225.548 3.15209 225.548 6.66609V323.544C225.548 327.058 228.41 329.919 231.925 329.919H457.466C460.982 329.919 463.843 327.058 463.843 323.544V6.66609C463.843 3.15209 460.982 0.29186 457.466 0.29186H231.925Z" fill="#EBEBEB"/>
<path d="M113.408 40.767H0.474365V352.123H113.408V40.767Z" fill="#F8F9FB"/>
<path d="M113.409 352.125H114.553L114.553 40.7686H113.409L113.409 352.125Z" fill="#EBEBEB"/>
<path d="M102.511 52.6516H11.3718V340.251H102.511V52.6516Z" fill="white"/>
<path d="M161.816 225.072L428.226 225.072V27.2254L161.816 27.2254V225.072Z" fill="#E6E6E6"/>
<path d="M157.693 225.072L424.102 225.072V27.2254L157.693 27.2254V225.072Z" fill="#F8F9FB"/>
<path d="M416.7 216.762L416.7 35.5284L165.09 35.5284L165.09 216.762L416.7 216.762Z" fill="white"/>
<path d="M168.202 216.757L168.202 35.5231H165.083L165.083 216.757H168.202Z" fill="#E6E6E6"/>
<path d="M160.753 178.042L421.042 178.042V166.882L160.753 166.882V178.042Z" fill="#F8F9FB"/>
<g opacity="0.4">
<path opacity="0.4" d="M174.576 18.4806H149.429V82.0711H174.576V18.4806Z" fill="#E6E6E6"/>
<path opacity="0.4" d="M174.577 76.9467H187.052V18.4696H174.577V76.9467Z" fill="#F8F9FB"/>
<path opacity="0.4" d="M212.198 18.4806H187.051V82.0711H212.198V18.4806Z" fill="#E6E6E6"/>
<path opacity="0.4" d="M212.198 76.9467H224.673V18.4696H212.198V76.9467Z" fill="#F8F9FB"/>
<path opacity="0.4" d="M249.819 18.4806H224.672V82.0711H249.819V18.4806Z" fill="#E6E6E6"/>
<path opacity="0.4" d="M249.819 76.9467H262.294V18.4696H249.819V76.9467Z" fill="#F8F9FB"/>
<path opacity="0.4" d="M287.44 18.4806H262.293V82.0711H287.44V18.4806Z" fill="#E6E6E6"/>
<path opacity="0.4" d="M287.441 76.9467H299.915V18.4696H287.441V76.9467Z" fill="#F8F9FB"/>
<path opacity="0.4" d="M325.062 18.4806H299.915V82.0711H325.062V18.4806Z" fill="#E6E6E6"/>
<path opacity="0.4" d="M325.062 76.9467H337.536V18.4696H325.062V76.9467Z" fill="#F8F9FB"/>
<path opacity="0.4" d="M362.683 18.4806H337.536V82.0711H362.683V18.4806Z" fill="#E6E6E6"/>
<path opacity="0.4" d="M362.683 76.9467H375.157V18.4696H362.683V76.9467Z" fill="#F8F9FB"/>
<path opacity="0.4" d="M400.304 18.4806H375.157V82.0711H400.304V18.4806Z" fill="#E6E6E6"/>
<path opacity="0.4" d="M400.304 76.9467H412.778V18.4696H400.304V76.9467Z" fill="#F8F9FB"/>
<path opacity="0.4" d="M437.925 18.4806H412.778V82.0711H437.925V18.4806Z" fill="#E6E6E6"/>
</g>
<path d="M165.938 382.27H197.112L197.112 266.227H165.938V382.27Z" fill="#E6E6E6"/>
<path d="M171.131 382.278H165.945V371.83H176.574L171.131 382.278Z" fill="#F0F0F0"/>
<path d="M390.242 382.27H421.416V266.227H390.242V382.27Z" fill="#E6E6E6"/>
<path d="M165.943 378.261H394.766V266.233H165.943V378.261Z" fill="#F0F0F0"/>
<path d="M169.972 301.921H390.748V271.194H169.972V301.921Z" fill="#E6E6E6"/>
<path d="M225.816 280.746H334.896C339.953 280.746 344.801 276.952 348.281 270.262H212.431C215.912 276.952 220.747 280.746 225.816 280.746Z" fill="#F0F0F0"/>
<path d="M389.582 382.278H394.768V371.83H384.139L389.582 382.278Z" fill="#F0F0F0"/>
<path d="M169.972 337.61H390.748V306.883H169.972V337.61Z" fill="#E6E6E6"/>
<path d="M225.816 316.435H334.896C339.953 316.435 344.801 312.64 348.281 305.951H212.431C215.912 312.64 220.747 316.435 225.816 316.435Z" fill="#F0F0F0"/>
<path d="M169.972 373.299H390.748V342.572H169.972V373.299Z" fill="#E6E6E6"/>
<path d="M225.816 352.123H334.896C339.953 352.123 344.801 348.329 348.281 341.64H212.431C215.912 348.329 220.747 352.123 225.816 352.123Z" fill="#F0F0F0"/>
<path d="M220 435C345.072 435 446.464 429.083 446.464 421.785C446.464 414.486 345.072 408.569 220 408.569C94.9278 408.569 -6.46338 414.486 -6.46338 421.785C-6.46338 429.083 94.9278 435 220 435Z" fill="#F8F9FB"/>
<path d="M360.02 415.118H358.77C358.28 415.118 357.859 414.687 357.777 414.103L350.092 360.599H355.932L361.024 413.741C361.095 414.476 360.627 415.118 360.02 415.118Z" fill="#3B86C6"/>
<path opacity="0.3" d="M360.02 415.118H358.77C358.28 415.118 357.859 414.687 357.777 414.103L350.092 360.599H355.932L361.024 413.741C361.095 414.476 360.627 415.118 360.02 415.118Z" fill="black"/>
<path d="M376.045 415.118H374.795C374.305 415.118 373.884 414.687 373.802 414.103L366.117 360.599H371.957L377.049 413.741C377.119 414.476 376.652 415.118 376.045 415.118Z" fill="#3B86C6"/>
<path opacity="0.3" d="M376.045 415.118H374.795C374.305 415.118 373.884 414.687 373.802 414.103L366.117 360.599H371.957L377.049 413.741C377.119 414.476 376.652 415.118 376.045 415.118Z" fill="black"/>
<path d="M286.763 415.118H288.013C288.503 415.118 288.924 414.687 289.005 414.103L296.691 360.599H290.851L285.758 413.741C285.688 414.476 286.156 415.118 286.763 415.118Z" fill="#3B86C6"/>
<path opacity="0.3" d="M286.763 415.118H288.013C288.503 415.118 288.924 414.687 289.005 414.103L296.691 360.599H290.851L285.758 413.741C285.688 414.476 286.156 415.118 286.763 415.118Z" fill="black"/>
<path d="M270.738 415.118H271.988C272.478 415.118 272.899 414.687 272.981 414.103L280.666 360.599H274.826L269.734 413.741C269.663 414.476 270.131 415.118 270.738 415.118Z" fill="#3B86C6"/>
<path opacity="0.3" d="M270.738 415.118H271.988C272.478 415.118 272.899 414.687 272.981 414.103L280.666 360.599H274.826L269.734 413.741C269.663 414.476 270.131 415.118 270.738 415.118Z" fill="black"/>
<path d="M249.971 297.184H289.309C296.294 272.959 321.406 253.848 347.125 253.848H359.903C386.826 253.848 404.194 274.78 398.704 300.616C397.7 305.356 395.983 309.932 393.693 314.24L387.491 351.82C386.685 356.665 382.819 360.599 378.848 360.599H260.448C256.477 360.599 252.599 356.665 251.805 351.82L244.236 305.963C243.419 301.118 246 297.184 249.971 297.184Z" fill="#3B86C6"/>
<path opacity="0.5" d="M249.971 297.184H289.309C296.294 272.959 321.406 253.848 347.125 253.848H359.903C386.826 253.848 404.194 274.78 398.704 300.616C397.7 305.356 395.983 309.932 393.693 314.24L387.491 351.82C386.685 356.665 382.819 360.599 378.848 360.599H260.448C256.477 360.599 252.599 356.665 251.805 351.82L244.236 305.963C243.419 301.118 246 297.184 249.971 297.184Z" fill="white"/>
<path d="M240.125 401.273L249.866 405.744C250.216 405.907 250.38 406.281 250.24 406.631L247.179 414.558C246.864 415.375 245.766 415.796 244.949 415.399C241.585 413.788 240.055 412.842 235.768 410.881C233.128 409.667 225.91 405.627 222.663 403.292C219.486 401.004 221.822 397.805 223.411 398.506C230.524 401.646 235.056 401.926 238.396 401.121C238.98 400.981 239.599 401.039 240.125 401.273Z" fill="#303757"/>
<path d="M309.212 281.914C309.212 281.914 246.922 282.684 245.965 307.224C244.586 342.504 239.365 401.063 239.365 401.063L249.866 405.744C249.866 405.744 268.274 346.975 268.928 319.423C286.401 315.069 331.497 319.458 336.788 305.099C341.122 293.354 338.774 281.902 338.774 281.902H309.212V281.914Z" fill="#3B86C6"/>
<path opacity="0.2" d="M309.212 281.914C309.212 281.914 246.922 282.684 245.965 307.224C244.586 342.504 239.365 401.063 239.365 401.063L249.866 405.744C249.866 405.744 268.274 346.975 268.928 319.423C286.401 315.069 331.497 319.458 336.788 305.099C341.122 293.354 338.774 281.902 338.774 281.902H309.212V281.914Z" fill="black"/>
<path d="M322.469 217.342C321.932 219.607 321.383 221.65 320.752 223.775C320.133 225.876 319.49 227.966 318.825 230.044C317.458 234.2 315.951 238.333 314.211 242.419C312.482 246.517 310.555 250.568 308.208 254.572C307.016 256.568 305.755 258.576 304.248 260.526C302.741 262.476 301.048 264.425 298.817 266.258L298.642 266.398C298.525 266.503 298.385 266.597 298.256 266.678C296.773 267.659 295.383 267.951 294.332 268.079C293.257 268.196 292.393 268.149 291.669 268.056C290.197 267.881 289.111 267.542 288.095 267.192C286.097 266.48 284.45 265.663 282.862 264.811C279.72 263.118 276.928 261.226 274.184 259.3C271.474 257.351 268.858 255.331 266.311 253.229C263.788 251.093 261.312 248.992 258.906 246.668C257.493 245.303 257.446 243.049 258.813 241.625C259.957 240.434 261.733 240.213 263.111 240.983L263.169 241.018C265.926 242.547 268.706 244.17 271.497 245.664C274.277 247.205 277.045 248.723 279.813 250.136C282.57 251.572 285.361 252.914 288.024 254.012C289.344 254.549 290.664 255.016 291.75 255.261C292.276 255.378 292.755 255.436 292.883 255.413C292.965 255.413 292.907 255.366 292.638 255.389C292.381 255.413 291.797 255.494 290.98 256.008L290.431 256.428C291.423 255.494 292.475 254.175 293.456 252.704C294.425 251.222 295.383 249.61 296.271 247.918C298.034 244.509 299.611 240.843 301.059 237.095C302.496 233.336 303.839 229.484 305.089 225.584C306.362 221.72 307.507 217.681 308.57 213.898L308.605 213.758C309.668 209.952 313.604 207.734 317.411 208.797C321.137 209.836 323.345 213.63 322.469 217.342Z" fill="#303757"/>
<path d="M297.216 406.339H308.908C309.329 406.339 309.656 406.631 309.679 407.052L310.24 416.298C310.298 417.255 309.399 418.166 308.418 418.142C304.353 418.072 302.402 417.839 297.263 417.839C294.098 417.839 287.721 418.166 283.364 418.166C279.089 418.166 279.124 413.846 280.97 413.461C289.262 411.71 292.486 409.293 295.418 406.981C295.955 406.573 296.597 406.339 297.216 406.339Z" fill="#303757"/>
<path d="M325.996 281.913C325.996 281.913 269.5 286.688 270.89 311.205C272.408 338.056 297.216 406.351 297.216 406.351H308.64C308.64 406.351 298.863 343.811 295.418 316.47C311.338 316.47 348.27 319.47 353.572 305.111C357.906 293.366 355.558 281.913 355.558 281.913H325.996Z" fill="#3B86C6"/>
<path d="M264.01 242.186C264.01 242.186 262.387 239.547 260.833 238.286C258.521 240.446 257.224 246.762 257.224 246.762L260.424 247.054C260.413 247.054 264.08 245.863 264.01 242.186Z" fill="#3B86C6"/>
<path d="M252.284 236.512L248.651 234.936C247.67 234.515 246.537 234.877 245.988 235.788L244.271 238.637C243.781 239.454 243.897 240.504 244.552 241.205L249.539 246.412L257.855 246.073C258.813 246.038 259.677 245.489 260.109 244.637L261.067 242.758C261.674 241.578 261.336 240.107 260.238 239.384C257.54 237.586 252.284 236.512 252.284 236.512Z" fill="#FFC3BD"/>
<path d="M308.675 214.937C307.004 225.409 304.855 248.128 309.259 282.345L355.57 281.914C355.289 258.214 359.015 235.951 362.636 214.202C363.243 210.595 360.756 207.244 357.135 206.719C346.015 205.119 328.052 205.178 317.154 206.684C312.821 207.279 309.364 210.618 308.675 214.937Z" fill="#303757"/>
<path d="M363.057 211.248C364.412 214.622 365.51 217.856 366.631 221.195C367.74 224.51 368.71 227.884 369.633 231.282C370.52 234.691 371.361 238.134 372.004 241.672C372.658 245.209 373.23 248.805 373.429 252.622C373.487 253.568 373.51 254.549 373.522 255.529L373.499 257.024C373.475 258.074 373.312 259.685 372.342 261.39C371.875 262.219 371.151 263.071 370.403 263.655C370.006 263.982 369.633 264.227 369.247 264.425C368.838 264.659 368.488 264.811 368.126 264.939C366.701 265.464 365.591 265.534 364.692 265.534C362.928 265.499 361.725 265.196 360.604 264.892C358.408 264.262 356.656 263.48 354.939 262.662C353.246 261.834 351.657 260.946 350.104 260.047C343.925 256.382 338.365 252.307 332.981 247.789C331.474 246.528 331.275 244.275 332.537 242.769C333.6 241.497 335.363 241.158 336.8 241.835L336.882 241.87C342.92 244.742 349.064 247.696 355.044 250.171C356.539 250.79 358.023 251.362 359.471 251.84C360.896 252.331 362.344 252.763 363.466 252.926C363.991 253.008 364.482 252.996 364.423 252.949C364.377 252.938 364.131 252.891 363.489 253.101C363.337 253.159 363.174 253.23 362.952 253.346C362.753 253.451 362.554 253.591 362.321 253.767C361.9 254.093 361.457 254.607 361.188 255.062C360.627 256.031 360.604 256.767 360.581 256.977L360.51 255.926C360.44 255.202 360.382 254.49 360.277 253.732C359.483 247.743 357.789 241.368 355.92 235.099C354.04 228.842 351.902 222.432 349.706 216.35L349.683 216.292C348.352 212.579 350.279 208.482 353.993 207.151C357.637 205.89 361.632 207.711 363.057 211.248Z" fill="#303757"/>
<path d="M344.544 183.241L338.938 187.888L331.311 194.215C331.532 195.243 331.708 196.293 331.789 197.297C332.151 200.975 331.346 204.36 326.872 206.077C325.179 206.719 323.707 207.956 323.181 209.684C322.574 211.645 323.286 213.817 329.442 213.817C338.47 213.817 343.177 209.801 344.953 207.828C345.455 207.267 345.455 206.45 345.023 205.843C341.46 200.776 343.084 189.569 344.544 183.241Z" fill="#FFC3BD"/>
<path d="M329.22 211.832C329.22 211.832 329.815 212.486 330.002 213.42C330.469 212.626 331.696 211.832 331.696 211.832C331.696 211.832 334.37 213.023 334.931 215.626C333.214 215.521 330.072 213.817 330.072 213.817C330.072 213.817 328.449 214.751 326.825 214.832C326.895 212.813 329.22 211.832 329.22 211.832Z" fill="#3B86C6"/>
<path d="M331.696 211.832C334.289 214.751 334.791 218.638 334.791 218.638C334.791 218.638 349.741 214.902 349.041 205.166C347.779 204.372 344.894 203.893 344.894 203.893C344.894 203.893 341.682 209.731 331.696 211.832Z" fill="#3B86C6"/>
<path d="M329.22 211.832C326.627 214.751 325.926 218.638 325.926 218.638C325.926 218.638 318.252 211.657 325.727 205.248C327.047 204.711 329.675 204.419 329.675 204.419C329.675 204.419 324.723 208.446 329.22 211.832Z" fill="#3B86C6"/>
<path opacity="0.2" d="M331.311 194.215C331.532 195.243 331.708 196.293 331.789 197.297C334.639 196.725 338.435 193.702 338.832 190.795C338.984 189.697 339.008 188.647 338.938 187.888L331.311 194.215Z" fill="black"/>
<path d="M323.135 163.126C316.103 168.111 320.039 179.809 326.031 175.326C332.035 170.867 328.858 159.064 323.135 163.126Z" fill="#303757"/>
<path d="M346.857 173.54C344.906 182.494 344.229 187.818 338.938 191.904C330.983 198.045 320.436 192.593 319.666 183.335C318.965 174.999 322.27 161.761 331.696 159.227C340.97 156.729 348.807 164.597 346.857 173.54Z" fill="#FFC3BD"/>
<path d="M342.71 166.909C337.746 165.543 324.945 168.8 320.401 163.955C315.531 158.76 322.644 156.239 324.735 158.036C322.083 155.001 323.076 151.756 326.825 152.047C329.57 152.258 330.434 155.293 330.434 155.293C330.434 155.293 329.979 149.981 334.686 150.355C338.961 150.682 338.972 156.449 338.972 156.449C338.972 156.449 349.181 153.565 352.591 163.302C359.015 163.161 358.875 176.68 345.945 181.49C340.713 178.887 340.468 169.664 342.71 166.909Z" fill="#303757"/>
<path d="M351.225 165.251C350.606 165.251 350.057 164.808 349.952 164.177C349.823 163.477 350.29 162.8 350.991 162.671C351.108 162.636 351.458 162.356 351.739 161.726C352.042 161.06 352.241 160.079 351.879 159.297C351.587 158.643 351.867 157.873 352.521 157.581C353.175 157.278 353.946 157.569 354.238 158.223C355.021 159.928 354.6 161.866 353.958 163.091C353.339 164.271 352.416 165.053 351.447 165.228C351.388 165.24 351.307 165.251 351.225 165.251Z" fill="#303757"/>
<path d="M348.317 181.841C346.997 183.568 345.081 184.584 343.399 184.888C340.865 185.331 340.094 183.008 341.215 180.743C342.22 178.712 344.754 176.027 347.09 176.61C349.403 177.182 349.812 179.868 348.317 181.841Z" fill="#FFC3BD"/>
<path d="M331.521 174.369C331.404 175.104 330.925 175.653 330.446 175.595C329.967 175.536 329.664 174.894 329.78 174.159C329.897 173.423 330.376 172.875 330.855 172.933C331.334 172.991 331.638 173.633 331.521 174.369Z" fill="#303757"/>
<path d="M323.181 173.377C323.064 174.112 322.585 174.661 322.107 174.602C321.628 174.544 321.324 173.902 321.441 173.166C321.558 172.431 322.036 171.882 322.515 171.941C322.994 171.999 323.298 172.641 323.181 173.377Z" fill="#303757"/>
<path d="M325.727 173.668C325.727 173.668 323.975 177.229 322.247 178.899C323.275 179.996 325.214 179.622 325.214 179.622L325.727 173.668Z" fill="#ED847E"/>
<path d="M328.624 183.393C331.556 183.393 333.191 181.572 333.261 181.49C333.343 181.397 333.331 181.257 333.238 181.187C333.144 181.105 333.004 181.117 332.934 181.21C332.911 181.233 331.053 183.311 327.806 182.926C327.69 182.915 327.573 182.996 327.561 183.113C327.549 183.23 327.631 183.347 327.748 183.358C328.052 183.382 328.344 183.393 328.624 183.393Z" fill="#303757"/>
<path d="M334.873 170.131C334.943 170.119 335.013 170.084 335.071 170.026C335.246 169.863 335.27 169.594 335.106 169.407C333.518 167.621 331.521 167.948 331.439 167.96C331.217 167.971 331.042 168.228 331.088 168.462C331.135 168.695 331.357 168.859 331.591 168.812C331.672 168.8 333.214 168.578 334.452 169.979C334.557 170.119 334.721 170.166 334.873 170.131Z" fill="#303757"/>
<path d="M320.203 169.652C320.331 169.688 320.483 169.664 320.6 169.571C322.13 168.298 323.695 168.719 323.707 168.73C323.94 168.8 324.174 168.66 324.244 168.427C324.314 168.193 324.174 167.96 323.94 167.89C323.859 167.866 321.908 167.341 320.039 168.905C319.852 169.057 319.829 169.337 319.981 169.524C320.051 169.582 320.121 169.629 320.203 169.652Z" fill="#303757"/>
<path d="M335.41 235.811L330.294 232.636C328.764 231.679 326.744 232.169 325.809 233.71L325.202 234.702C324.478 235.905 324.606 237.446 325.529 238.508L329.056 242.559C329.056 242.559 332.128 249.716 335.691 247.824L338.4 243.119L335.41 235.811Z" fill="#FFC3BD"/>
<path d="M340.678 244.952C340.678 244.952 339.393 241.789 338.003 240.189C335.434 242.384 333.354 249.4 333.354 249.4L336.496 250.077C336.496 250.077 340.281 249.132 340.678 244.952Z" fill="#3B86C6"/>
<path d="M379.817 297.184H319.175C315.204 297.184 312.622 301.118 313.428 305.963L320.997 351.82C321.803 356.676 325.669 360.599 329.64 360.599H372.307L379.817 297.184Z" fill="#3B86C6"/>
<path opacity="0.5" d="M379.817 297.184H319.175C315.204 297.184 312.622 301.118 313.428 305.963L320.997 351.82C321.803 356.676 325.669 360.599 329.64 360.599H372.307L379.817 297.184Z" fill="white"/>
<path d="M100.023 419.053H101.775C102.37 419.053 102.861 418.551 102.908 417.897L112.544 273.275H105.302L98.8898 417.757C98.8548 418.457 99.3804 419.053 100.023 419.053Z" fill="#3B86C6"/>
<path opacity="0.3" d="M100.023 419.053H101.775C102.37 419.053 102.861 418.551 102.908 417.897L112.544 273.275H105.302L98.8898 417.757C98.8548 418.457 99.3804 419.053 100.023 419.053Z" fill="white"/>
<path d="M80.1669 419.053H81.9189C82.5146 419.053 83.0051 418.551 83.0518 417.897L92.6878 273.275H85.4462L79.0339 417.757C78.9989 418.458 79.5128 419.053 80.1669 419.053Z" fill="#3B86C6"/>
<path opacity="0.3" d="M80.1669 419.053H81.9189C82.5146 419.053 83.0051 418.551 83.0518 417.897L92.6878 273.275H85.4462L79.0339 417.757C78.9989 418.458 79.5128 419.053 80.1669 419.053Z" fill="white"/>
<path d="M325.038 419.053H323.286C322.69 419.053 322.2 418.551 322.153 417.897L312.517 273.263H319.759L326.171 417.745C326.206 418.457 325.68 419.053 325.038 419.053Z" fill="#3B86C6"/>
<path opacity="0.3" d="M325.038 419.053H323.286C322.69 419.053 322.2 418.551 322.153 417.897L312.517 273.263H319.759L326.171 417.745C326.206 418.457 325.68 419.053 325.038 419.053Z" fill="white"/>
<path d="M344.894 419.053H343.142C342.546 419.053 342.056 418.551 342.009 417.897L332.373 273.263H339.615L346.027 417.745C346.062 418.457 345.548 419.053 344.894 419.053Z" fill="#3B86C6"/>
<path opacity="0.3" d="M344.894 419.053H343.142C342.546 419.053 342.056 418.551 342.009 417.897L332.373 273.263H339.615L346.027 417.745C346.062 418.457 345.548 419.053 344.894 419.053Z" fill="white"/>
<path d="M353.245 270.297H71.407V273.274H353.245V270.297Z" fill="#3B86C6"/>
<path d="M66.7117 224.23L64.0487 243.808C63.2077 250.323 62.3317 256.86 61.701 263.281C61.6075 264.087 61.5491 264.881 61.4907 265.674L61.3973 266.865C61.409 266.783 61.3973 266.468 61.3506 266.281C61.3272 266.095 61.2688 265.885 61.2104 265.721C61.1754 265.581 61.0936 265.418 61.0352 265.313C60.9885 265.219 60.9184 265.114 60.8717 265.044C60.6615 264.775 60.6381 264.811 60.6965 264.869C60.7432 264.939 60.9067 265.067 61.0936 265.196C61.4907 265.476 62.0397 265.803 62.6354 266.095C65.1115 267.309 68.1834 268.336 71.2085 269.282C77.3405 271.138 83.7645 272.749 90.1184 274.313L89.4059 279.894C82.6082 279.649 75.9389 279.018 69.1528 277.792C65.7539 277.15 62.3784 276.438 58.7459 275.049C57.8232 274.687 56.8888 274.278 55.861 273.695C55.3471 273.391 54.8215 273.064 54.2258 272.586C53.6535 272.107 53.0227 271.558 52.357 270.601C52.0299 270.111 51.7146 269.527 51.4693 268.815C51.3525 268.453 51.2591 268.044 51.189 267.659C51.1306 267.274 51.1189 266.748 51.1189 266.457L51.1423 265.161C51.1656 264.297 51.1773 263.433 51.224 262.581C51.5043 255.763 52.1117 249.108 52.8475 242.454C53.56 235.8 54.4127 229.204 55.4522 222.573L66.7117 224.23Z" fill="#7F3E3B"/>
<path d="M104.847 280.209L100.56 284.12C99.5558 285.031 98.1074 285.252 96.881 284.657L92.1506 282.381C92.1506 282.381 85.1309 282.089 84.1265 277.804L85.9369 274.477L96.8109 273.274C97.9322 273.146 99.0535 273.403 100.011 273.987L104.496 276.718C105.758 277.477 105.921 279.217 104.847 280.209Z" fill="#7F3E3B"/>
<path d="M79.1976 184C80.3072 190.713 81.2533 202.983 76.4412 207.302C76.4412 207.302 88.1679 213.443 95.865 224.16C104.088 217.646 97.2082 207.921 97.2082 207.921C89.8147 205.925 90.1651 200.403 91.6251 195.254L79.1976 184Z" fill="#7F3E3B"/>
<path d="M101.144 212.054C101.144 212.054 100.525 206.357 97.4184 203.543C94.802 201.173 81.1014 202.493 76.7798 202.971C75.9622 203.065 75.2614 203.567 74.911 204.302L71.7808 210.84L101.144 212.054Z" fill="#3B86C6"/>
<path opacity="0.8" d="M101.144 212.054C101.144 212.054 100.525 206.357 97.4184 203.543C94.802 201.173 81.1014 202.493 76.7798 202.971C75.9622 203.065 75.2614 203.567 74.911 204.302L71.7808 210.84L101.144 212.054Z" fill="white"/>
<path d="M63.1727 209.054C54.7164 211.809 52.8943 223.133 53.6535 231.959L70.718 242.454C70.718 242.454 74.8644 229.577 74.8293 222.689C74.806 215.369 68.9192 207.186 63.1727 209.054Z" fill="#3B86C6"/>
<path d="M66.4781 239.886C66.0693 239.886 65.6605 239.722 65.3569 239.43C65.2868 239.349 65.2167 239.267 65.17 239.185C65.1116 239.104 65.0532 239.01 65.0181 238.905C64.9831 238.812 64.9481 238.718 64.9247 238.613C64.9013 238.508 64.8896 238.415 64.8896 238.31C64.8896 237.889 65.0649 237.481 65.3569 237.189C65.9525 236.594 67.0154 236.594 67.5994 237.189C67.8914 237.481 68.0666 237.889 68.0666 238.31C68.0666 238.415 68.0549 238.508 68.0316 238.613C68.0082 238.718 67.9849 238.812 67.9381 238.905C67.9031 239.01 67.8564 239.104 67.798 239.185C67.7396 239.267 67.6695 239.349 67.5994 239.43C67.3074 239.722 66.8986 239.886 66.4781 239.886Z" fill="white"/>
<path d="M63.1961 238.812C62.6004 238.578 62.215 238.006 62.1916 237.387C61.7361 237.796 61.0703 237.924 60.4746 237.644C59.8906 237.376 59.5402 236.78 59.5519 236.173C59.073 236.559 58.3956 236.64 57.8233 236.325C57.251 236.021 56.9473 235.414 56.994 234.807C56.4918 235.158 55.8143 235.204 55.2537 234.866C54.5062 234.422 54.2726 233.441 54.7164 232.694C55.1719 231.947 56.153 231.702 56.9006 232.157C57.4262 232.484 57.6948 233.068 57.6598 233.64C58.127 233.301 58.7694 233.243 59.3183 233.535C59.8556 233.827 60.171 234.387 60.1593 234.971C60.6031 234.609 61.2455 234.516 61.8062 234.772C62.3668 235.029 62.7055 235.578 62.7289 236.15C63.161 235.776 63.7801 235.636 64.3641 235.858C65.17 236.185 65.5788 237.107 65.2518 237.913C65.0065 238.543 64.4108 238.917 63.7801 238.917C63.5815 238.917 63.3946 238.882 63.1961 238.812Z" fill="white"/>
<path d="M53.6651 233.547C53.56 233.547 53.4549 233.535 53.3498 233.511C53.2447 233.488 53.1512 233.465 53.0578 233.418C52.9527 233.383 52.8592 233.336 52.7775 233.278C52.6957 233.22 52.6139 233.15 52.5439 233.08C52.4621 233.009 52.4037 232.928 52.3453 232.846C52.2869 232.753 52.2402 232.659 52.1935 232.566C52.1584 232.472 52.1234 232.367 52.1 232.274C52.0883 232.169 52.0767 232.064 52.0767 231.959C52.0767 231.854 52.0883 231.749 52.1 231.655C52.1234 231.55 52.1584 231.457 52.1935 231.352C52.2285 231.258 52.2869 231.165 52.3453 231.083C52.4037 231.001 52.4621 230.92 52.5439 230.838C52.6139 230.768 52.6957 230.698 52.7775 230.64C52.8592 230.593 52.9527 230.535 53.0578 230.499C53.1512 230.464 53.2447 230.429 53.3498 230.406C53.8637 230.313 54.4127 230.476 54.7747 230.838C54.8565 230.92 54.9149 231.001 54.9733 231.083C55.0317 231.165 55.0784 231.258 55.1251 231.352C55.1602 231.457 55.1952 231.55 55.2069 231.655C55.2303 231.749 55.2419 231.854 55.2419 231.959C55.2419 232.064 55.2303 232.169 55.2069 232.274C55.1952 232.367 55.1602 232.472 55.1251 232.566C55.0784 232.659 55.0317 232.753 54.9733 232.846C54.9149 232.928 54.8565 233.009 54.7747 233.08C54.4827 233.371 54.0739 233.547 53.6651 233.547Z" fill="white"/>
<path d="M116.947 225.526C116.235 235.239 114.074 251.583 108.748 279.112L63.0324 277.757C64.2354 260.888 62.425 248.315 58.2903 218.79C57.5311 213.396 61.4089 208.47 66.8284 207.921C69.7601 207.618 73.1005 207.373 76.4527 207.302C84.1615 207.162 90.4687 207.104 97.2081 207.921C99.4389 208.19 101.74 208.54 103.936 208.914C111.902 210.279 117.543 217.459 116.947 225.526Z" fill="#3B86C6"/>
<path d="M102.85 171.637C102.955 172.536 103.527 173.213 104.111 173.143C104.695 173.073 105.092 172.279 104.987 171.38C104.882 170.481 104.31 169.804 103.726 169.874C103.13 169.956 102.744 170.738 102.85 171.637Z" fill="#303757"/>
<path d="M103.469 169.968L105.559 169.08C105.559 169.08 104.648 170.902 103.469 169.968Z" fill="#303757"/>
<path d="M103.165 173.038C103.165 173.038 105.162 176.739 107.066 178.408C106.003 179.657 103.924 179.401 103.924 179.401L103.165 173.038Z" fill="#630F0F"/>
<path d="M102.955 163.734C103.06 163.582 103.083 163.383 102.99 163.208C102.861 162.94 102.546 162.835 102.277 162.951C99.6143 164.212 99.2523 166.652 99.2406 166.757C99.2055 167.049 99.4041 167.318 99.6961 167.353C99.9881 167.388 100.257 167.189 100.292 166.897C100.303 166.816 100.607 164.924 102.733 163.909C102.838 163.874 102.908 163.815 102.955 163.734Z" fill="#303757"/>
<path d="M71.7341 171.439C73.7431 182.424 74.3621 187.117 80.6343 192.137C90.0717 199.679 103.142 194.811 104.461 183.44C105.653 173.213 102.161 156.951 90.7959 153.845C79.5948 150.787 69.7368 160.441 71.7341 171.439Z" fill="#7F3E3B"/>
<path d="M95.9585 174.509C97.8156 180.545 102.231 195.149 92.4778 198.395C84.8508 200.94 60.9535 202.971 58.197 188.974C55.3471 174.509 68.2652 164.201 68.2652 164.201C68.2652 164.201 58.0335 155.818 64.586 146.689C73.0306 134.921 93.2487 141.576 99.2522 149.888C105.081 157.99 95.9585 174.509 95.9585 174.509Z" fill="#303757"/>
<path d="M77.4572 200.403C73.5444 200.403 68.6972 199.609 64.691 197.881C59.2598 195.546 56.0945 191.939 55.5339 187.444C53.6183 172.186 67.8212 163.804 67.9614 163.722L68.522 164.703C68.3819 164.784 54.8214 172.805 56.6435 187.316C57.2859 192.464 61.6191 195.348 65.1231 196.854C72.0611 199.842 81.0196 199.819 83.1921 198.231L83.8579 199.142C82.7483 199.971 80.3655 200.403 77.4572 200.403Z" fill="#303757"/>
<path d="M63.8501 162.029C63.7216 163.979 62.0981 166.664 68.8725 167.668C75.6469 168.672 85.0493 168.578 86.9765 166.956C88.9037 165.333 90.8075 161.434 86.7662 161.784C82.7483 162.123 64.072 158.69 63.8501 162.029Z" fill="#3B86C6"/>
<path d="M92.2558 176.237C93.4122 178.432 95.4795 179.891 97.4418 180.475C100.385 181.339 101.904 178.712 101.121 175.91C100.408 173.388 98.0258 169.898 95.0474 170.271C92.1157 170.621 90.936 173.727 92.2558 176.237Z" fill="#7F3E3B"/>
<path d="M163.516 406.981L174.355 406.771L169.11 379.733L158.271 379.932L163.516 406.981Z" fill="#7F3E3B"/>
<path d="M171.645 395.202C174.518 405.989 185.054 417.418 185.054 417.418L170.01 413.601L163.434 404.261L164.59 401.786L171.645 395.202Z" fill="#7F3E3B"/>
<path d="M160.958 400.222C160.911 401.424 161.004 402.79 161.179 404.004C161.81 408.464 163.784 420.302 163.784 420.302L164.8 420.314C164.8 420.314 163.831 412.352 163.971 409.41C164.111 406.468 166.003 411.663 168.293 414.605C170.582 417.547 174.705 420.22 181.374 420.419C189.176 420.664 192.295 420.337 189.795 418.387C187.296 416.438 181.97 415.165 181.97 415.165C181.97 415.165 175.826 412.959 171.434 406.363C168.585 402.09 163.819 398.984 161.74 397.98C161.133 398.086 161.004 399.265 160.958 400.222Z" fill="#303757"/>
<path d="M201.908 370.242L215.737 370.662L200.261 347.676L190.683 355.859L201.908 370.242Z" fill="#7F3E3B"/>
<path d="M205.19 360.471C215.246 365.152 231.341 364.23 231.341 364.23L218.26 374.725L207.035 373.896L205.855 371.41L205.19 360.471Z" fill="#7F3E3B"/>
<path d="M203.064 372.402C203.917 373.254 204.98 374.118 205.972 374.818C209.64 377.375 219.556 383.924 219.556 383.924L220.187 383.131C220.187 383.131 213.74 378.437 211.672 376.324C209.605 374.2 214.581 376.266 218.155 376.476C221.729 376.686 226.237 375.274 230.5 370.172C235.499 364.206 237.181 361.533 234.203 362.163C231.225 362.794 227.008 366.109 227.008 366.109C227.008 366.109 221.6 369.425 214.032 368.362C209.126 367.674 203.905 369.308 201.896 370.242C201.604 370.814 202.387 371.725 203.064 372.402Z" fill="#303757"/>
<path d="M92.8048 278.318C92.8048 278.318 166.809 267.379 174.471 286.338C187.798 319.33 206.626 357.132 206.626 357.132L197.539 364.65C197.539 364.65 165.268 334.799 153.786 301.643C140.074 306.08 96.449 320.346 80.4707 320.346C63.4062 320.346 56.4333 305.799 62.6003 281.657C63.1493 279.509 65.1115 278.014 67.3307 278.026C78.088 278.073 92.8048 278.318 92.8048 278.318Z" fill="#303757"/>
<path d="M99.8947 287.949C99.8947 287.949 160.642 286.116 161.145 307.632C161.997 343.204 172.019 394.175 172.019 394.175L160.934 395.202C160.934 395.202 142.819 354.657 138.03 319.914C116.387 321.315 96.4491 320.346 80.4708 320.346C62.5654 320.346 61.082 300.686 78.5086 277.757C89.1724 277.757 99.8947 287.949 99.8947 287.949Z" fill="#303757"/>
<path d="M62.4251 275.049L61.1287 279.1C60.9535 279.415 61.3272 279.742 61.8528 279.765L108.9 281.166C109.309 281.178 109.659 280.991 109.694 280.734L110.231 276.66C110.266 276.38 109.916 276.123 109.472 276.111L63.1843 274.734C62.8339 274.722 62.5303 274.851 62.4251 275.049Z" fill="white"/>
<path d="M68.487 280.408L67.2489 280.373C67.0036 280.361 66.8167 280.232 66.8401 280.081L67.5759 274.78C67.5993 274.629 67.8212 274.5 68.0665 274.512L69.3046 274.547C69.5499 274.559 69.7367 274.687 69.7134 274.839L68.9775 280.139C68.9542 280.302 68.7323 280.419 68.487 280.408Z" fill="#303757"/>
<path d="M105.407 281.505L104.169 281.47C103.924 281.458 103.737 281.33 103.761 281.178L104.496 275.878C104.52 275.726 104.742 275.598 104.987 275.609L106.225 275.644C106.47 275.656 106.657 275.784 106.634 275.936L105.898 281.236C105.875 281.4 105.664 281.517 105.407 281.505Z" fill="#303757"/>
<path d="M86.953 280.956L85.715 280.921C85.4697 280.91 85.2828 280.781 85.3062 280.629L86.042 275.329C86.0654 275.177 86.2873 275.049 86.5326 275.061L87.7706 275.096C88.0159 275.107 88.2028 275.236 88.1794 275.388L87.4436 280.688C87.4202 280.851 87.1983 280.968 86.953 280.956Z" fill="#303757"/>
<path d="M143.297 229.589H172.848C173.794 229.589 174.471 230.499 174.203 231.398L163.165 269.282C162.99 269.889 162.441 270.298 161.81 270.298H132.26C131.314 270.298 130.636 269.387 130.905 268.488L141.943 230.605C142.106 229.997 142.667 229.589 143.297 229.589Z" fill="#3B86C6"/>
<path d="M143.835 230.978L172.556 231.655L161.215 267.391L132.493 266.702L143.835 230.978Z" fill="#E0E0E0"/>
<path d="M142.935 230.628L171.657 230.745L161.016 266.69L132.295 266.562L142.935 230.628Z" fill="white"/>
<path d="M117.029 231.363C117.088 232.507 117.193 233.92 117.298 235.216C117.415 236.535 117.555 237.866 117.73 239.185C118.057 241.824 118.501 244.427 119.038 246.984C119.599 249.529 120.265 252.015 121.129 254.35C121.561 255.518 122.028 256.638 122.554 257.712C122.811 258.261 123.091 258.763 123.371 259.265L123.804 259.977C123.769 259.931 123.722 259.931 123.757 259.966C123.839 260.152 124.668 260.678 125.614 261.051C126.595 261.448 127.763 261.775 128.978 262.055C131.431 262.616 134.094 262.989 136.792 263.258C142.188 263.783 147.818 264.04 153.342 264.157L153.903 269.749C148.133 270.858 142.422 271.558 136.488 271.71C133.521 271.78 130.52 271.722 127.378 271.337C125.801 271.126 124.201 270.846 122.484 270.344C120.778 269.807 118.933 269.188 116.901 267.461C116.398 267.04 115.896 266.492 115.429 265.873L114.682 264.822C114.214 264.133 113.747 263.433 113.338 262.721C112.486 261.308 111.773 259.861 111.131 258.401C109.846 255.483 108.877 252.529 108.117 249.575C107.346 246.61 106.786 243.645 106.377 240.656C106.178 239.162 106.027 237.668 105.898 236.173C105.77 234.644 105.688 233.231 105.665 231.538L117.029 231.363Z" fill="#7F3E3B"/>
<path d="M113.186 214.155C120.545 221.078 118.769 239.115 118.769 239.115L104.672 241.578C104.672 241.578 95.97 228.643 99.0302 223.226C102.219 217.576 109.215 210.408 113.186 214.155Z" fill="#3B86C6"/>
<path d="M118.769 240.703C118.361 240.703 117.94 240.528 117.648 240.236C117.578 240.166 117.508 240.084 117.45 239.991C117.403 239.909 117.344 239.816 117.309 239.722C117.274 239.629 117.239 239.524 117.216 239.419C117.204 239.325 117.193 239.22 117.193 239.115C117.193 238.695 117.356 238.286 117.648 237.994C117.73 237.924 117.8 237.854 117.893 237.796C117.975 237.738 118.069 237.691 118.162 237.656C118.267 237.609 118.361 237.586 118.466 237.562C118.968 237.457 119.517 237.633 119.891 237.994C120.183 238.286 120.358 238.695 120.358 239.115C120.358 239.22 120.346 239.325 120.323 239.419C120.3 239.524 120.276 239.629 120.229 239.722C120.194 239.816 120.148 239.909 120.089 239.991C120.031 240.084 119.961 240.166 119.891 240.236C119.599 240.528 119.19 240.703 118.769 240.703Z" fill="white"/>
<path d="M105.968 241.543C105.898 240.668 106.54 239.897 107.416 239.827C108.024 239.769 108.596 240.072 108.9 240.574C109.087 240.026 109.566 239.594 110.173 239.5C110.78 239.419 111.364 239.687 111.703 240.166C111.855 239.605 112.31 239.15 112.906 239.033C113.513 238.905 114.109 239.15 114.471 239.605C114.588 239.033 115.02 238.555 115.616 238.391V238.403C116.468 238.17 117.333 238.683 117.555 239.524C117.777 240.364 117.274 241.24 116.422 241.462C115.803 241.625 115.16 241.392 114.775 240.913C114.646 241.508 114.179 241.999 113.537 242.139C112.906 242.256 112.275 241.987 111.925 241.485C111.761 242.08 111.271 242.547 110.628 242.641C109.986 242.734 109.367 242.419 109.052 241.905C108.853 242.477 108.339 242.921 107.685 242.979C107.638 242.979 107.603 242.979 107.557 242.979C106.739 242.979 106.05 242.361 105.968 241.543Z" fill="white"/>
<path d="M104.683 243.166C104.578 243.166 104.473 243.155 104.368 243.131C104.263 243.108 104.17 243.073 104.076 243.038C103.971 243.003 103.889 242.944 103.796 242.898C103.714 242.839 103.632 242.769 103.562 242.699C103.48 242.629 103.422 242.547 103.364 242.454C103.305 242.372 103.258 242.279 103.212 242.186C103.177 242.08 103.142 241.987 103.13 241.882C103.107 241.789 103.095 241.684 103.095 241.578C103.095 241.473 103.107 241.368 103.13 241.263C103.142 241.17 103.177 241.065 103.212 240.971C103.258 240.878 103.305 240.785 103.364 240.691C103.422 240.61 103.48 240.528 103.562 240.458C103.632 240.388 103.714 240.318 103.796 240.259C103.889 240.201 103.971 240.154 104.076 240.119C104.17 240.072 104.263 240.049 104.368 240.026C104.882 239.921 105.431 240.084 105.793 240.458C105.875 240.528 105.933 240.61 105.992 240.691C106.05 240.785 106.097 240.878 106.143 240.971C106.178 241.065 106.214 241.17 106.237 241.263C106.249 241.368 106.26 241.473 106.26 241.578C106.26 241.684 106.249 241.789 106.237 241.882C106.214 241.987 106.178 242.08 106.143 242.186C106.097 242.279 106.05 242.372 105.992 242.454C105.933 242.536 105.875 242.629 105.793 242.699C105.501 242.991 105.092 243.166 104.683 243.166Z" fill="white"/>
<path d="M166.506 258.32L161.623 257.993C160.409 257.911 159.194 258.238 158.19 258.915L149.231 264.927L149.161 268.721C152.034 272.06 158.388 269.072 158.388 269.072L164.286 268.885C165.244 268.85 166.097 268.243 166.424 267.332L168.561 261.483C169.099 260.001 168.071 258.425 166.506 258.32Z" fill="#7F3E3B"/>
<path d="M65.3453 424.306H66.6651C67.179 424.306 67.6229 423.851 67.7163 423.232L75.8456 366.681H69.6786L64.2941 422.859C64.2123 423.629 64.7029 424.306 65.3453 424.306Z" fill="#3B86C6"/>
<path opacity="0.3" d="M65.3453 424.306H66.6651C67.179 424.306 67.6229 423.851 67.7163 423.232L75.8456 366.681H69.6786L64.2941 422.859C64.2123 423.629 64.7029 424.306 65.3453 424.306Z" fill="black"/>
<path d="M48.4092 424.306H49.7291C50.243 424.306 50.6868 423.851 50.7803 423.232L58.9096 366.681H52.7425L47.358 422.859C47.2763 423.629 47.7668 424.306 48.4092 424.306Z" fill="#3B86C6"/>
<path opacity="0.3" d="M48.4092 424.306H49.7291C50.243 424.306 50.6868 423.851 50.7803 423.232L58.9096 366.681H52.7425L47.358 422.859C47.2763 423.629 47.7668 424.306 48.4092 424.306Z" fill="black"/>
<path d="M142.784 424.306H141.464C140.95 424.306 140.506 423.851 140.413 423.232L132.283 366.681H138.45L143.835 422.859C143.905 423.629 143.414 424.306 142.784 424.306Z" fill="#3B86C6"/>
<path opacity="0.3" d="M142.784 424.306H141.464C140.95 424.306 140.506 423.851 140.413 423.232L132.283 366.681H138.45L143.835 422.859C143.905 423.629 143.414 424.306 142.784 424.306Z" fill="black"/>
<path d="M159.72 424.306H158.4C157.886 424.306 157.442 423.851 157.349 423.232L149.219 366.681H155.386L160.771 422.859C160.841 423.629 160.35 424.306 159.72 424.306Z" fill="#3B86C6"/>
<path opacity="0.3" d="M159.72 424.306H158.4C157.886 424.306 157.442 423.851 157.349 423.232L149.219 366.681H155.386L160.771 422.859C160.841 423.629 160.35 424.306 159.72 424.306Z" fill="black"/>
<path d="M181.666 299.659H140.085C132.704 274.057 106.167 253.848 78.9757 253.848H65.4736C37.0211 253.848 18.6602 275.983 24.4535 303.278C25.5164 308.286 27.3268 313.119 29.7445 317.684L36.297 357.412C37.138 362.537 41.2376 366.693 45.4424 366.693H170.594C174.798 366.693 178.886 362.537 179.739 357.412L187.74 308.94C188.592 303.815 185.871 299.659 181.666 299.659Z" fill="#3B86C6"/>
<path opacity="0.5" d="M181.666 299.659H140.085C132.704 274.057 106.167 253.848 78.9757 253.848H65.4736C37.0211 253.848 18.6602 275.983 24.4535 303.278C25.5164 308.286 27.3268 313.119 29.7445 317.684L36.297 357.412C37.138 362.537 41.2376 366.693 45.4424 366.693H170.594C174.798 366.693 178.886 362.537 179.739 357.412L187.74 308.94C188.592 303.815 185.871 299.659 181.666 299.659Z" fill="white"/>
<path d="M176.247 113.464H166.704V114.631H176.247V113.464Z" fill="#3B86C6"/>
<path d="M131.606 127.228H130.438V121.484C130.438 117.059 134.035 113.475 138.462 113.475H159.755V114.643H138.462C134.689 114.643 131.606 117.713 131.606 121.484V127.228Z" fill="#3B86C6"/>
<path d="M244.948 167.154H138.462C136.289 167.154 134.526 165.391 134.526 163.232V121.496C134.526 119.324 136.289 117.561 138.462 117.561H244.948C247.121 117.561 248.885 119.324 248.885 121.496V163.232C248.885 165.391 247.121 167.154 244.948 167.154Z" fill="#3B86C6"/>
<path d="M239.914 144.996H143.496C142.036 144.996 140.856 143.817 140.856 142.358C140.856 140.898 142.036 139.719 143.496 139.719H239.914C241.374 139.719 242.554 140.898 242.554 142.358C242.554 143.805 241.374 144.996 239.914 144.996Z" fill="white"/>
<path d="M219.276 155.958H143.496C142.036 155.958 140.856 154.779 140.856 153.32C140.856 151.861 142.036 150.682 143.496 150.682H219.276C220.736 150.682 221.915 151.861 221.915 153.32C221.915 154.768 220.736 155.958 219.276 155.958Z" fill="white"/>
<path d="M176.013 134.034H143.496C142.036 134.034 140.856 132.855 140.856 131.395C140.856 129.936 142.036 128.757 143.496 128.757H176.013C177.473 128.757 178.653 129.936 178.653 131.395C178.653 132.843 177.473 134.034 176.013 134.034Z" fill="white"/>
<path d="M219.112 134.034H186.595C185.135 134.034 183.956 132.855 183.956 131.395C183.956 129.936 185.135 128.757 186.595 128.757H219.112C220.572 128.757 221.752 129.936 221.752 131.395C221.752 132.843 220.572 134.034 219.112 134.034Z" fill="white"/>
<path d="M140.856 163.979V176.622C140.856 179.05 143.659 180.428 145.575 178.934L164.964 163.932L140.856 163.979Z" fill="#3B86C6"/>
<path d="M305.042 54.9281H198.556C196.383 54.9281 194.619 56.6909 194.619 58.8624V100.598C194.619 102.77 196.383 104.533 198.544 104.533H282.663L297.906 116.324C299.833 117.818 302.624 116.441 302.624 114.012V104.533H305.019C307.191 104.533 308.955 102.77 308.955 100.598V58.8624C308.978 56.6909 307.215 54.9281 305.042 54.9281Z" fill="white"/>
<path d="M299.716 117.526C298.957 117.526 298.198 117.281 297.567 116.791L282.476 105.116H198.556C196.068 105.116 194.035 103.097 194.035 100.598V58.8624C194.035 56.3757 196.056 54.3444 198.556 54.3444H305.042C307.53 54.3444 309.562 56.364 309.562 58.8624V100.598C309.562 103.085 307.542 105.116 305.042 105.116H303.232V114.012C303.232 115.366 302.473 116.569 301.269 117.164C300.767 117.398 300.242 117.526 299.716 117.526ZM198.556 55.5118C196.71 55.5118 195.203 57.0178 195.203 58.8624V100.598C195.203 102.443 196.71 103.949 198.556 103.949H282.885L298.291 115.868C299.015 116.429 299.938 116.522 300.756 116.125C301.573 115.717 302.064 114.935 302.064 114.024V103.961H305.042C306.888 103.961 308.394 102.455 308.394 100.61V58.8624C308.394 57.0178 306.888 55.5118 305.042 55.5118H198.556Z" fill="#3B86C6"/>
<path d="M249.527 82.363H300.008C301.468 82.363 302.648 81.1838 302.648 79.7245C302.648 78.2652 301.468 77.0861 300.008 77.0861H249.527C248.067 77.0861 246.887 78.2652 246.887 79.7245C246.887 81.1838 248.067 82.363 249.527 82.363Z" fill="#3B86C6"/>
<path d="M214.277 82.363H239.272C240.732 82.363 241.912 81.1838 241.912 79.7245C241.912 78.2652 240.732 77.0861 239.272 77.0861H214.277C212.817 77.0861 211.637 78.2652 211.637 79.7245C211.637 81.1838 212.817 82.363 214.277 82.363Z" fill="#3B86C6"/>
<path d="M224.228 93.3252H300.008C301.468 93.3252 302.648 92.1461 302.648 90.6868C302.648 89.2275 301.468 88.0483 300.008 88.0483H224.228C222.768 88.0483 221.588 89.2275 221.588 90.6868C221.588 92.1461 222.768 93.3252 224.228 93.3252Z" fill="#3B86C6"/>
<path d="M203.59 71.4007H300.008C301.468 71.4007 302.648 70.2216 302.648 68.7623C302.648 67.303 301.468 66.1238 300.008 66.1238H203.59C202.13 66.1238 200.95 67.303 200.95 68.7623C200.95 70.2216 202.13 71.4007 203.59 71.4007Z" fill="#3B86C6"/>
</g>
<defs>
<clipPath id="clip0_7_1032">
<rect width="512" height="435" fill="white"/>
</clipPath>
</defs>
</svg>
