<svg width="40" height="40" viewBox="0 0 40 40" fill="none" xmlns="http://www.w3.org/2000/svg">
<path d="M31.25 11.8189V6.25C31.2492 5.58719 30.9856 4.95175 30.5169 4.48307C30.0483 4.01439 29.4128 3.75076 28.75 3.75H11.25C10.5872 3.75076 9.95175 4.01439 9.48307 4.48307C9.01439 4.95175 8.75076 5.58719 8.75 6.25V11.875C8.75091 12.2629 8.84168 12.6454 9.01517 12.9924C9.18867 13.3394 9.44018 13.6415 9.74998 13.875L17.9167 20L9.75006 26.125C9.44023 26.3585 9.1887 26.6606 9.01519 27.0076C8.84168 27.3546 8.75091 27.737 8.75 28.125V33.75C8.75076 34.4128 9.01439 35.0483 9.48307 35.5169C9.95175 35.9856 10.5872 36.2492 11.25 36.25H28.75C29.4128 36.2492 30.0483 35.9856 30.5169 35.5169C30.9856 35.0483 31.2492 34.4128 31.25 33.75V28.1811C31.249 27.7947 31.1589 27.4138 30.9868 27.0679C30.8147 26.722 30.5651 26.4205 30.2575 26.1867L22.0729 20L30.2576 13.8133C30.5652 13.5795 30.8147 13.278 30.9868 12.9321C31.1589 12.5862 31.249 12.2053 31.25 11.8189ZM28.75 6.25V9.99931H11.25V6.25H28.75ZM28.75 33.75H11.25V28.125L19.9971 21.5647L28.75 28.1811V33.75Z" fill="#3B86C6"/>
</svg>
