<svg width="40" height="40" viewBox="0 0 40 40" fill="none" xmlns="http://www.w3.org/2000/svg">
<path d="M25.2525 11.9195C24.4715 12.7006 24.4715 13.9669 25.2525 14.7479C26.0336 15.529 27.2999 15.529 28.0809 14.7479L25.2525 11.9195ZM32.0212 10.8077C32.8022 10.0266 32.8022 8.76032 32.0212 7.97927C31.2401 7.19822 29.9738 7.19822 29.1928 7.97927L32.0212 10.8077ZM7.97963 29.1924C7.19858 29.9734 7.19858 31.2398 7.97963 32.0208C8.76068 32.8019 10.027 32.8019 10.8081 32.0208L7.97963 29.1924ZM14.748 28.0809C15.529 27.2999 15.529 26.0335 14.748 25.2525C13.9669 24.4714 12.7006 24.4714 11.9196 25.2525L14.748 28.0809ZM29.4276 18C28.3231 18 27.4276 18.8954 27.4276 20C27.4276 21.1046 28.3231 22 29.4276 22V18ZM35 22C36.1046 22 37 21.1046 37 20C37 18.8954 36.1046 18 35 18V22ZM5 18C3.89543 18 3 18.8954 3 20C3 21.1046 3.89543 22 5 22V18ZM10.5719 22C11.6765 22 12.5719 21.1046 12.5719 20C12.5719 18.8954 11.6765 18 10.5719 18V22ZM18 10.5724C18 11.6769 18.8954 12.5724 20 12.5724C21.1046 12.5724 22 11.6769 22 10.5724L18 10.5724ZM22 5C22 3.89543 21.1046 3 20 3C18.8954 3 18 3.89543 18 5L22 5ZM18 35C18 36.1046 18.8954 37 20 37C21.1046 37 22 36.1046 22 35H18ZM22 29.4281C22 28.3235 21.1046 27.4281 20 27.4281C18.8954 27.4281 18 28.3235 18 29.4281L22 29.4281ZM11.9195 14.7479C12.7006 15.529 13.9669 15.529 14.7479 14.7479C15.529 13.9669 15.529 12.7006 14.7479 11.9195L11.9195 14.7479ZM10.8077 7.97927C10.0267 7.19822 8.76032 7.19822 7.97927 7.97927C7.19822 8.76032 7.19822 10.0267 7.97927 10.8077L10.8077 7.97927ZM29.1924 32.0208C29.9734 32.8019 31.2398 32.8019 32.0208 32.0208C32.8019 31.2398 32.8019 29.9734 32.0208 29.1924L29.1924 32.0208ZM28.0809 25.2525C27.2999 24.4714 26.0335 24.4714 25.2525 25.2525C24.4714 26.0335 24.4714 27.2999 25.2525 28.0809L28.0809 25.2525ZM28.0809 14.7479L32.0212 10.8077L29.1928 7.97927L25.2525 11.9195L28.0809 14.7479ZM10.8081 32.0208L14.748 28.0809L11.9196 25.2525L7.97963 29.1924L10.8081 32.0208ZM29.4276 22H35V18H29.4276V22ZM5 22H10.5719V18H5V22ZM22 10.5724V5L18 5L18 10.5724L22 10.5724ZM22 35V29.4281L18 29.4281L18 35H22ZM14.7479 11.9195L10.8077 7.97927L7.97927 10.8077L11.9195 14.7479L14.7479 11.9195ZM32.0208 29.1924L28.0809 25.2525L25.2525 28.0809L29.1924 32.0208L32.0208 29.1924Z" fill="#303757"/>
</svg>
