<svg width="24" height="25" viewBox="0 0 24 25" fill="none" xmlns="http://www.w3.org/2000/svg">
<path d="M12 2C9.81276 2.00258 7.71584 2.8726 6.16923 4.41922C4.62261 5.96584 3.75259 8.06276 3.75001 10.25C3.74739 12.0374 4.33124 13.7763 5.41201 15.2C5.41201 15.2 5.63701 15.4963 5.67376 15.539L12 23L18.3293 15.5353C18.3623 15.4955 18.588 15.2 18.588 15.2L18.5888 15.1978C19.669 13.7747 20.2526 12.0366 20.25 10.25C20.2474 8.06276 19.3774 5.96584 17.8308 4.41922C16.2842 2.8726 14.1873 2.00258 12 2ZM12 13.25C11.4067 13.25 10.8266 13.0741 10.3333 12.7444C9.83995 12.4148 9.45543 11.9462 9.22837 11.3981C9.00131 10.8499 8.9419 10.2467 9.05765 9.66473C9.17341 9.08279 9.45913 8.54824 9.87869 8.12868C10.2982 7.70912 10.8328 7.4234 11.4147 7.30764C11.9967 7.19189 12.5999 7.2513 13.1481 7.47836C13.6962 7.70542 14.1648 8.08994 14.4944 8.58329C14.8241 9.07664 15 9.65666 15 10.25C14.999 11.0453 14.6826 11.8078 14.1202 12.3702C13.5578 12.9326 12.7954 13.249 12 13.25Z" fill="#F5693C"/>
</svg>
