<svg width="343" height="270" viewBox="0 0 343 270" fill="none" xmlns="http://www.w3.org/2000/svg">
<path d="M341.842 158.967C341.538 161.046 341.282 162.339 341.218 162.635C339.63 170.156 337.044 177.351 333.594 184.196V184.2C332.608 186.156 331.555 188.083 330.431 189.984C327.221 195.43 323.455 200.636 319.222 205.596C316.682 208.575 313.969 211.461 311.1 214.258C298.657 226.401 283.329 236.786 266.509 245.186C263.35 246.766 260.136 248.27 256.879 249.707C246.622 254.232 235.932 258.043 225.093 261.102C222.848 261.736 220.599 262.336 218.345 262.902C214.432 263.891 210.502 264.778 206.58 265.56C201.281 266.62 195.995 267.495 190.742 268.179C184.015 269.058 177.347 269.616 170.809 269.857C163.375 270.131 155.506 270.004 147.397 269.459C143.4 269.197 139.343 268.826 135.253 268.348C135.245 268.352 135.236 268.352 135.224 268.348C131.597 267.93 127.941 267.431 124.272 266.844C123.269 266.683 122.267 266.514 121.26 266.345C114.457 265.175 107.633 263.713 100.881 261.951C100.759 261.922 100.636 261.892 100.514 261.854C100.447 261.841 100.38 261.825 100.312 261.803C100.123 261.757 99.933 261.706 99.7435 261.651C93.7283 260.054 87.7847 258.216 81.9717 256.129C77.8816 254.663 73.8546 253.07 69.9245 251.35C68.0543 250.535 66.2093 249.69 64.3853 248.815C62.7173 248.017 61.066 247.193 59.4401 246.344C49.8318 241.341 40.9944 235.489 33.3575 228.746C29.8612 225.657 26.6136 222.379 23.6607 218.914C19.0988 213.556 15.2319 207.738 12.2159 201.447C10.7289 198.354 9.45261 195.147 8.39953 191.822C7.96566 190.457 7.5697 189.072 7.20744 187.656C5.6194 181.433 4.71797 174.757 4.54526 167.959C4.50314 166.366 4.50314 164.764 4.54526 163.159C4.68427 157.582 5.31612 151.971 6.46187 146.52C9.49052 132.091 16.1081 118.744 26.7104 109.842C44.9666 94.5043 73.1512 93.9465 90.6112 95.4084C97.4141 95.9788 102.591 96.8534 104.916 97.2844C108.374 97.9224 111.761 98.7125 115.186 99.5406C127.877 102.604 141.104 106.145 160.363 103.973C162.368 103.745 169.356 102.9 182.149 99.3294C193.922 96.0422 202.798 92.6241 210.081 89.3115C210.485 89.1256 210.885 88.9439 211.281 88.7623C212.305 88.2848 213.291 87.8158 214.255 87.3468C214.499 87.2285 214.748 87.106 214.988 86.9877C216.93 86.0328 218.762 85.0906 220.515 84.1695C220.519 84.1695 220.519 84.1695 220.523 84.1695C220.586 84.1357 220.645 84.1019 220.708 84.0681C220.948 83.9414 221.184 83.8188 221.42 83.6921C221.446 83.6794 221.467 83.671 221.488 83.6541C224.04 82.3062 226.437 81.0007 228.779 79.7627C229.264 79.505 229.748 79.2514 230.228 79.0022C230.565 78.8289 230.902 78.6515 231.239 78.4825C231.471 78.3642 231.702 78.2459 231.93 78.1276H231.934C233.341 77.4177 234.74 76.7333 236.168 76.0826C238.387 75.0643 240.666 74.1263 243.093 73.2813C245.005 72.6095 247.006 72.0011 249.146 71.456C270.359 66.0436 302.082 67.7717 322.263 86.506C338.699 101.772 342.667 123.852 342.979 140.322C343.127 148.354 342.41 155.055 341.842 158.967Z" fill="#E6EDFA"/>
<path d="M206.58 147.323V265.559C194.503 267.98 182.452 269.434 170.809 269.856C140.051 270.985 101.891 265.323 69.9242 251.354C64.5493 249.005 59.3513 246.424 54.3934 243.597C54.3892 243.597 54.3892 243.593 54.385 243.593C51.3395 241.856 48.3866 240.031 45.5349 238.109C42.9275 236.355 40.4085 234.521 37.9907 232.612C36.4026 231.353 34.8567 230.064 33.3571 228.737C21.7943 218.533 12.978 206.285 8.39919 191.822C7.96953 190.457 7.56936 189.071 7.21131 187.66C5.61906 181.432 4.71763 174.757 4.54492 167.963V163.159C4.68393 157.581 5.31577 151.975 6.46152 146.524H37.3378V189.228H42.6242V104.083H75.417V232.198H95.514V126.366L173.791 165.622V147.323C173.791 138.826 180.657 131.935 189.133 131.935H191.239C199.714 131.935 206.58 138.826 206.58 147.323Z" fill="#D8DFF3"/>
<path d="M341.838 146.393V158.971C341.538 161.046 341.282 162.339 341.218 162.634C330.629 212.728 275.671 248.468 218.345 262.906V116.817H251.134V227.161H256.425V160.966L289.213 146.524V146.393C289.213 139.105 292.158 132.505 296.922 127.73C301.682 122.956 308.261 119.998 315.527 119.998C330.06 119.998 341.838 131.816 341.838 146.393Z" fill="#D8DFF3"/>
<path d="M330.43 189.984C327.216 195.43 323.455 200.64 319.217 205.596V196.267C319.217 192.798 323.956 189.984 329.799 189.984H330.43Z" fill="#BDCFD3"/>
<path d="M124.272 266.844C123.269 266.683 122.267 266.518 121.26 266.345C108.008 264.064 94.6592 260.688 81.9717 256.133L101.129 204.578L124.272 266.844Z" fill="#BDCFD3"/>
<path d="M64.3853 248.819C48.349 241.138 34.1577 231.238 23.6606 218.914L38.4669 179.07L64.3853 248.819Z" fill="#CAD4EF"/>
<path d="M333.594 184.2C332.608 186.156 331.555 188.083 330.43 189.984C327.216 195.43 323.455 200.64 319.217 205.596C316.677 208.575 313.965 211.465 311.096 214.258C288.948 235.869 257.671 251.912 225.085 261.106C222.84 261.736 220.59 262.336 218.341 262.906C214.428 263.895 210.498 264.782 206.572 265.564C201.277 266.624 195.986 267.499 190.733 268.183C191.504 267.545 192.317 266.971 193.147 266.464C198 263.502 203.674 261.93 208.156 258.432C205.83 256.653 207.667 252.939 209.765 250.898C214.739 246.056 220.759 242.292 227.284 239.947C226.231 231.699 235.258 223.925 243.227 226.215C243.333 222.214 246.618 218.533 250.569 217.997C254.525 217.456 258.67 220.122 259.832 223.95C260.169 221.06 260.982 218.234 262.229 215.605C263.32 213.307 266.728 213.48 267.532 215.901C267.536 215.918 267.541 215.935 267.549 215.948C270.19 210.616 278.501 209.373 282.574 213.708C281.151 208.397 287.528 202.858 292.566 205.026C290.148 201.468 289.495 196.495 291.774 192.849C294.057 189.202 299.592 187.749 302.907 190.483C300.553 186.452 303.518 180.44 308.143 179.878C310.502 179.59 312.844 180.503 315.224 180.562C316.412 180.592 317.709 180.262 318.716 179.624C321.349 177.955 324.79 178.204 326.888 180.507C328.307 182.062 329.386 183.968 330.152 185.996C331.349 185.425 332.482 184.808 333.594 184.2Z" fill="#CAD4EF"/>
<path d="M118.754 80.3498C104.579 77.2865 89.5707 71.4009 82.5909 58.6536C80.0846 54.0778 78.8209 48.4837 80.6617 43.5952C83.1343 37.0335 90.4258 33.5689 97.3424 32.5633C105.927 31.3126 114.904 32.8886 122.553 36.9955C133.059 42.6361 141.479 52.9877 153.278 54.6566C162.305 55.9326 171.066 51.7455 179.756 48.9991C188.45 46.2528 199.082 45.3275 205.62 51.699C207.183 53.2243 207.444 55.2481 207.595 56.0763C208.872 63.0478 201.985 69.4447 199.495 71.76C196.096 74.9162 188.206 80.8821 163.509 82.8806C150.22 83.9538 136.669 84.22 118.754 80.3498Z" fill="#E6EDFA"/>
<path d="M84.6759 80.6245H1.7439C0.636059 78.6978 0 76.4669 0 74.084C0 66.8547 5.84247 60.9944 13.0539 60.9944C15.2317 60.9944 17.2789 61.531 19.086 62.4775C19.8905 52.0963 28.5426 43.9248 39.0987 43.9248C50.1855 43.9248 59.1745 52.9413 59.1745 64.0619C59.1745 66.9603 58.5638 69.7151 57.4643 72.2038C66.5208 75.0853 75.4088 78.6133 84.6759 80.6245Z" fill="#DAE8EB"/>
<path d="M262.49 106.66H307.12C307.718 105.625 308.059 104.425 308.059 103.14C308.059 99.2491 304.912 96.0971 301.037 96.0971C299.866 96.0971 298.762 96.3844 297.794 96.8957C297.36 91.31 292.705 86.9116 287.023 86.9116C281.058 86.9116 276.218 91.7621 276.218 97.7491C276.218 99.3082 276.547 100.791 277.136 102.131C272.259 103.677 267.478 105.578 262.49 106.66Z" fill="#D8DFF3"/>
<path d="M221.736 50.0723H334.887C336.399 47.4485 337.267 44.4021 337.267 41.1488C337.267 31.2873 329.293 23.289 319.457 23.289C316.488 23.289 313.691 24.02 311.231 25.3129C310.131 11.1502 298.328 0 283.926 0C268.8 0 256.538 12.2994 256.538 27.4719C256.538 31.4267 257.372 35.1828 258.872 38.5841C246.508 42.5177 234.381 47.3302 221.736 50.0723Z" fill="#DAE8EB"/>
<path d="M155.91 269.852C155.872 269.86 155.83 269.869 155.792 269.877C154.49 269.835 153.176 269.784 151.858 269.721C151.255 269.691 150.649 269.658 150.042 269.624C149.507 269.594 148.972 269.565 148.437 269.531C147.679 269.484 146.917 269.434 146.154 269.379C145.24 269.311 144.326 269.239 143.408 269.163C142.928 269.125 142.447 269.083 141.963 269.041C141.095 268.965 140.227 268.88 139.355 268.796C138.774 268.737 138.193 268.677 137.607 268.614C136.634 268.513 135.661 268.403 134.688 268.289C132.738 268.061 130.779 267.807 128.816 267.524C128.382 267.465 127.953 267.401 127.523 267.338C126.441 267.182 125.358 267.017 124.271 266.844C123.77 266.763 123.269 266.679 122.767 266.599C122.266 266.514 121.765 266.43 121.259 266.345C120.821 266.269 120.387 266.193 119.949 266.113C117.742 265.724 115.535 265.302 113.332 264.849C113.172 264.816 113.016 264.782 112.856 264.748C112.506 264.676 112.152 264.604 111.803 264.528C110.615 264.279 109.427 264.017 108.239 263.747C107.536 263.586 106.836 263.426 106.137 263.257C105.653 263.147 105.168 263.028 104.684 262.91C104.09 262.766 103.5 262.623 102.906 262.471C102.317 262.323 101.727 262.175 101.137 262.019C100.547 261.866 99.9577 261.71 99.368 261.554C98.1886 261.237 97.0133 260.916 95.8423 260.578C95.2694 260.417 94.6923 260.248 94.1195 260.079C93.5213 259.906 92.9232 259.729 92.325 259.547C89.4185 258.668 86.5331 257.73 83.6772 256.729C83.416 256.64 83.1548 256.547 82.8937 256.458C82.5862 256.348 82.2787 256.239 81.9712 256.129C80.0293 255.432 78.1043 254.709 76.1961 253.957C76.1961 253.953 76.1961 253.953 76.1961 253.953C75.7664 253.788 75.341 253.619 74.9156 253.446C74.8145 253.404 74.7176 253.365 74.6207 253.323C74.031 253.087 73.4455 252.846 72.8599 252.605C72.1649 252.313 71.4741 252.022 70.7833 251.726C70.6695 251.68 70.5558 251.629 70.4463 251.578L75.7033 251.574H75.9349L76.0318 251.578H76.036L111.731 251.57H111.735L112.321 251.566H113.269L119.777 251.561H119.789L120.396 251.566H120.497L142.03 251.561L146.874 251.557H147.932L148.399 251.561H148.656L153.484 251.557H154.023V251.578L154.785 258.93L155.543 266.286L155.548 266.316V266.332L155.615 267.021V267.025L155.91 269.852Z" fill="#32477B"/>
<path d="M154.019 251.557L151.719 251.726L148.395 251.971L146.87 252.081L120.792 253.999L119.263 254.113L113.281 254.553L111.752 254.667L83.6771 256.729C83.416 256.64 83.1548 256.547 82.8937 256.458C82.5862 256.348 82.2787 256.239 81.9712 256.129C80.0293 255.432 78.1043 254.709 76.1961 253.957C76.1961 253.953 76.1961 253.953 76.1961 253.953C75.7664 253.788 75.341 253.619 74.9155 253.446C74.8145 253.403 74.7176 253.365 74.6207 253.323C74.031 253.087 73.4455 252.846 72.8599 252.605C72.1649 252.313 71.4741 252.022 70.7833 251.726C70.6695 251.68 70.5558 251.629 70.4463 251.578L75.7032 251.574H76.0318L111.735 251.566H120.497L142.03 251.561L146.874 251.557H154.019Z" fill="#1B2C58"/>
<path d="M113.332 264.849C112.822 264.744 112.312 264.638 111.803 264.528L111.752 254.667L111.735 251.726V251.532L113.264 251.54V251.726L113.281 254.553L113.311 260.586L113.319 262.158L113.332 264.849Z" fill="#1B2C58"/>
<path d="M115.088 262.348C116.638 262.357 117.898 261.896 118.854 260.979C121.87 258.085 120.526 251.692 120.467 251.422L118.972 251.739C118.985 251.798 120.194 257.561 117.793 259.86C116.731 260.874 115.034 261.072 112.742 260.447L112.354 261.934C113.349 262.205 114.258 262.344 115.088 262.348Z" fill="#1B2C58"/>
<path d="M76.1961 253.953C75.6696 253.75 75.143 253.539 74.6207 253.323C74.5786 252.423 74.5112 251.827 74.5027 251.726C74.4985 251.717 74.4985 251.709 74.4985 251.709L75.7033 251.574H75.7201L76.0276 251.54C76.0276 251.548 76.0318 251.561 76.0318 251.574C76.0318 251.574 76.0318 251.574 76.0318 251.578C76.036 251.612 76.0445 251.658 76.0487 251.726C76.0908 252.077 76.1666 252.879 76.1961 253.953Z" fill="#1B2C58"/>
<path d="M154.343 267.152C154.777 267.152 155.227 267.105 155.691 267.013L155.379 265.513C154.019 265.796 152.89 265.534 151.929 264.722C148.214 261.579 148.395 251.65 148.399 251.548L146.879 251.502C146.87 251.941 146.685 262.285 150.96 265.897C151.942 266.725 153.075 267.148 154.343 267.152Z" fill="#1B2C58"/>
<path d="M179.954 200.598H154.469L154.44 203.711L154.398 208.663L154.389 209.707L154.36 212.901L154.356 213.484L154.288 221.233L154.276 222.281L154.229 227.672V227.677L154.208 230.355L154.179 233.807L154.17 234.851L154.141 237.973L154.082 244.662V244.725L154.065 246.381L154.057 247.425L154.027 250.835L154.023 251.557V251.726H70.7792C70.6654 251.68 70.5517 251.629 70.4422 251.578C70.438 251.578 70.438 251.578 70.438 251.578C69.2206 251.054 68.0159 250.518 66.8238 249.964V201.941H31.4994L31.6089 200.779L31.7184 199.668L32.8895 187.369L32.999 186.249L34.17 173.954L34.2753 172.838L34.6081 169.374C34.924 166.048 35.5853 162.829 36.5542 159.753C36.6974 159.297 36.8448 158.84 37.0049 158.388C37.1102 158.084 37.2197 157.78 37.3334 157.476C38.6814 153.842 40.4632 150.428 42.6199 147.297C43.3402 146.249 44.1026 145.231 44.903 144.251C45.0799 144.031 45.261 143.816 45.4463 143.6C47.4851 141.179 49.764 138.978 52.2492 137.026C52.4767 136.84 52.7084 136.662 52.9443 136.485C56.8406 133.527 61.2088 131.178 65.9098 129.564C66.1204 129.488 66.3352 129.416 66.55 129.349C69.3975 128.415 72.363 127.747 75.4127 127.38C77.2619 127.152 79.1448 127.038 81.053 127.038H147.329C151.769 127.038 155.986 128.043 159.764 129.843C160.051 129.978 160.337 130.122 160.619 130.27C160.628 130.27 160.636 130.274 160.645 130.283C163.121 131.567 165.392 133.202 167.393 135.12C170.19 137.808 172.456 141.052 174.006 144.69C174.482 145.806 174.895 146.955 175.228 148.142C175.312 148.43 175.388 148.721 175.464 149.013C175.855 150.576 176.125 152.19 176.255 153.846L176.71 159.575L176.786 160.56L176.866 161.561V161.591L177.641 171.397L177.721 172.382L177.822 173.688V173.692L177.843 173.928L178.576 183.224L178.656 184.204L179.512 195.05L179.587 196.03L179.954 200.598Z" fill="#77BBCB"/>
<path d="M154.027 250.835L148.677 251.557L148.656 251.561L148.399 251.595L147.439 251.726H70.7834C70.6697 251.68 70.556 251.629 70.4464 251.578C70.4422 251.578 70.4422 251.578 70.4422 251.578C69.2249 251.054 68.0201 250.518 66.8281 249.964V224.427L69.465 220.92L70.6234 229.451C71.8028 238.108 78.8289 244.776 87.5105 245.477L154.027 250.835Z" fill="#579FAE"/>
<path d="M112.953 78.4863L133.854 86.9578C139.225 123.121 123.863 121.448 123.863 121.448L123.858 126.974C123.858 127.507 123.821 128.039 123.749 128.567C122.864 134.905 117.03 139.324 110.712 138.441C104.393 137.554 99.9873 131.702 100.868 125.364L104.158 101.754L100.051 101.18C96.6091 100.698 94.2122 97.508 94.6924 94.0602C94.7219 93.8321 94.7641 93.6082 94.8188 93.3842C95.7624 89.3323 99.8062 86.8141 103.846 87.7648L105.981 88.2676L112.953 78.4863Z" fill="#FFC1C2"/>
<path d="M98.0835 95.218C98.0793 95.1968 97.6834 93.0251 98.8544 91.8885C99.6295 91.1322 100.965 90.959 102.818 91.3688L103.071 90.2238C100.805 89.7253 99.1071 90.0041 98.0372 91.0562C96.4197 92.6406 96.9167 95.332 96.942 95.4461L98.0835 95.218Z" fill="#EE9C9E"/>
<path d="M130.16 105.612L127.182 97.1699L126.078 97.5586L128.682 104.94L124.078 106.774L124.507 107.864L130.16 105.612Z" fill="#EE9C9E"/>
<path d="M131.125 97.474C131.129 98.3063 131.521 98.9824 132.005 98.9824C132.49 98.9781 132.882 98.3021 132.877 97.4698C132.877 97.2965 132.86 97.1317 132.827 96.9796C132.78 96.7219 132.688 96.498 132.574 96.329C132.22 96.274 131.858 96.2487 131.5 96.2402C131.374 96.3881 131.272 96.5909 131.209 96.8318C131.154 97.0261 131.129 97.2458 131.125 97.474Z" fill="#32477B"/>
<path d="M115.278 91.5254C115.261 91.3437 115.392 91.1832 115.573 91.1621L122.093 90.4396C122.784 90.3635 123.429 90.7818 123.648 91.4409L123.749 91.7578C123.795 91.9015 123.808 92.0536 123.782 92.2014C123.698 92.7127 123.218 93.0634 122.708 92.9789L115.556 91.817C115.404 91.7958 115.29 91.6733 115.278 91.5254Z" fill="#32477B"/>
<path d="M136.272 92.6789C136.302 92.5226 136.201 92.3705 136.045 92.3409L130.4 91.2423C129.802 91.1283 129.208 91.4451 128.972 92.0071L128.858 92.2733C128.808 92.3958 128.787 92.531 128.795 92.662C128.833 93.1141 129.229 93.4521 129.68 93.4141L136.007 92.9113C136.137 92.907 136.247 92.8099 136.272 92.6789Z" fill="#32477B"/>
<path d="M123.859 127.046C119.398 126.036 115.426 123.497 112.625 119.872C115.961 121.532 123.859 121.448 123.859 121.448V127.046Z" fill="#EE9C9E"/>
<path d="M166.891 64.0871C165.013 63.2082 163.071 63.1364 161.26 63.5716C160.295 63.8082 159.768 64.8518 160.152 65.7644L160.164 65.794C160.472 66.525 161.255 66.9052 162.035 66.7405C163.041 66.525 164.019 66.5799 164.966 67.0193C166.689 67.8221 167.186 69.3727 166.453 70.9614C165.27 73.5218 160.813 73.581 158.513 76.6907C158.303 76.978 158.185 77.3076 158.151 77.6371C158.079 78.4103 158.48 79.192 159.246 79.5511C160.059 79.9314 161.049 79.699 161.563 78.9638C163.707 75.9175 168.547 76.2006 170.299 72.4233C171.984 68.7897 170.383 65.7137 166.891 64.0871ZM158.117 81.9299C156.715 81.275 155.118 81.8834 154.415 83.396C153.724 84.8833 154.292 86.5015 155.699 87.1564C157.102 87.8113 158.699 87.2029 159.385 85.7156C160.089 84.203 159.524 82.5848 158.117 81.9299Z" fill="#32477B"/>
<path d="M125.556 113.361L125.905 112.364C124.625 111.912 123.311 111.527 121.992 111.223C120.695 110.923 119.364 110.691 118.041 110.539L117.919 111.586C119.204 111.739 120.497 111.962 121.756 112.254C123.033 112.546 124.313 112.922 125.556 113.361Z" fill="#EE9C9E"/>
<path d="M128.766 96.5405C128.779 96.5405 128.791 96.5447 128.804 96.5447L134.908 96.8489C135.139 96.8616 135.333 96.6842 135.346 96.4518C135.358 96.2194 135.177 96.025 134.95 96.0124L128.846 95.7082C128.614 95.6955 128.421 95.8729 128.408 96.1053C128.4 96.3208 128.555 96.5109 128.766 96.5405Z" fill="#32477B"/>
<path d="M118.631 96.3885C118.635 97.2209 119.027 97.8969 119.511 97.8969C119.996 97.8927 120.387 97.2167 120.383 96.3843C120.383 96.2111 120.366 96.0463 120.333 95.8942C120.286 95.6365 120.194 95.4125 120.08 95.2435C119.726 95.1886 119.364 95.1632 119.006 95.1548C118.879 95.3027 118.778 95.5055 118.715 95.7463C118.66 95.9407 118.631 96.1562 118.631 96.3885Z" fill="#32477B"/>
<path d="M116.382 95.539C116.394 95.539 116.407 95.5433 116.42 95.5433L122.523 95.8475C122.755 95.8602 122.949 95.6827 122.961 95.4503C122.974 95.2179 122.793 95.0236 122.565 95.0109L116.462 94.7067C116.23 94.694 116.036 94.8715 116.024 95.1039C116.015 95.3236 116.171 95.5095 116.382 95.539Z" fill="#32477B"/>
<path d="M67.8683 168.005L58.1084 197.458L67.8683 186.693V168.005Z" fill="#579FAE"/>
<path d="M177.645 171.397L172.405 175.158L160.628 166.707L148.846 175.158L137.064 166.707L125.282 175.158L113.505 166.707L101.727 175.158L89.9452 166.707L78.1676 175.158L66.3857 166.707L54.6081 175.158L42.8263 166.707L34.2795 172.838L34.1742 173.954L42.8263 167.747L54.6081 176.197L66.3857 167.747L78.1676 176.197L89.9452 167.747L101.727 176.197L113.505 167.747L125.282 176.197L137.064 167.747L148.846 176.197L160.628 167.747L172.405 176.197L177.726 172.382L177.645 171.397ZM178.581 183.224L172.405 187.652L160.628 179.201L148.846 187.652L137.064 179.201L125.282 187.652L113.505 179.201L101.727 187.652L89.9452 179.201L78.1676 187.652L66.3857 179.201L54.6081 187.652L42.8263 179.201L33.0032 186.249L32.8936 187.368L42.8263 180.241L54.6081 188.691L66.3857 180.241L78.1676 188.691L89.9452 180.241L101.727 188.691L113.505 180.241L125.282 188.691L137.064 180.241L148.846 188.691L160.628 180.241L172.405 188.691L178.661 184.204L178.581 183.224ZM179.516 195.05L172.405 200.149L160.628 191.699L148.846 200.149L137.064 191.699L125.282 200.149L113.505 191.699L101.727 200.149L89.9452 191.699L78.1676 200.149L66.3857 191.699L54.6081 200.149L42.8263 191.699L31.7184 199.668L31.6089 200.779L42.8221 192.734L54.6039 201.185L66.3815 192.734L78.1633 201.185L89.941 192.734L101.723 201.185L113.5 192.734L125.278 201.185L137.06 192.734L148.842 201.185L160.624 192.734L171.584 200.597L172.401 201.185L173.218 200.597L179.587 196.03L179.516 195.05ZM175.228 148.142L172.401 150.17L160.624 141.72L148.842 150.17L137.06 141.72L125.278 150.17L113.5 141.72L101.723 150.17L89.941 141.72L78.1633 150.17L66.3815 141.72L54.6039 150.17L45.4463 143.6C45.261 143.816 45.0799 144.031 44.9029 144.251L54.6039 151.21L66.3815 142.759L78.1633 151.21L89.941 142.759L101.723 151.21L113.5 142.759L125.278 151.21L137.06 142.759L148.842 151.21L160.624 142.759L172.401 151.21L175.464 149.012C175.392 148.721 175.316 148.429 175.228 148.142ZM176.71 159.575L172.401 162.664L160.624 154.214L148.842 162.664L137.06 154.214L125.278 162.664L113.5 154.214L101.723 162.664L89.941 154.214L78.1633 162.664L66.3815 154.214L54.6039 162.664L42.8221 154.214L37.0049 158.388C36.8448 158.84 36.6974 159.296 36.5541 159.753L42.8221 155.253L54.6039 163.703L66.3815 155.253L78.1633 163.703L89.941 155.253L101.723 163.703L113.5 155.253L125.278 163.703L137.06 155.253L148.842 163.703L160.624 155.253L172.401 163.703L176.786 160.56L176.71 159.575ZM148.846 225.137L137.064 216.687L125.282 225.137L113.505 216.687L101.727 225.137L89.9452 216.687L78.1676 225.137L66.828 217.004V218.043L78.1676 226.176L89.9452 217.726L101.727 226.176L113.505 217.726L125.282 226.176L137.064 217.726L148.846 226.176L154.276 222.281L154.288 221.233L148.846 225.137ZM160.649 130.282L167.397 135.12C165.396 133.202 163.126 131.567 160.649 130.282ZM148.846 137.676L137.064 129.226L125.282 137.676L113.505 129.226L101.727 137.676L89.9452 129.226L78.1676 137.676L66.5542 129.349L66.3857 129.226L65.9139 129.564L54.6081 137.676L52.9485 136.485C52.7126 136.662 52.4809 136.84 52.2534 137.026L54.6081 138.716L66.3857 130.265L78.1676 138.716L89.9452 130.265L101.727 138.716L113.505 130.265L125.282 138.716L137.064 130.265L148.846 138.716L160.624 130.27C160.341 130.122 160.055 129.978 159.768 129.843L148.846 137.676ZM148.846 250.125L137.064 241.674L125.282 250.125L113.505 241.674L101.727 250.125L89.9452 241.674L78.1676 250.125L66.828 241.991V243.031L78.1676 251.164L89.9452 242.714L101.727 251.164L113.505 242.714L125.282 251.164L137.064 242.714L148.846 251.164L154.057 247.425L154.065 246.381L148.846 250.125ZM148.846 237.631L137.064 229.181L125.282 237.631L113.505 229.181L101.727 237.631L89.9452 229.181L78.1676 237.631L66.828 229.497V230.537L78.1676 238.67L89.9452 230.22L101.727 238.67L113.505 230.22L125.282 238.67L137.064 230.22L148.846 238.67L154.17 234.851L154.179 233.807L148.846 237.631ZM148.846 212.643L137.064 204.193L125.282 212.643L113.505 204.193L101.727 212.643L89.9452 204.193L78.1676 212.643L66.828 204.51V205.549L78.1676 213.683L89.9452 205.232L101.727 213.683L113.505 205.232L125.282 213.683L137.064 205.232L148.846 213.683L154.389 209.707L154.398 208.663L148.846 212.643Z" fill="#579FAE"/>
<path d="M68.332 163.817H67.4053V187.271H68.332V163.817Z" fill="#579FAE"/>
<path d="M179.954 200.598H154.465L154.082 244.666C154.048 248.557 157.182 251.73 161.062 251.73C171.495 251.73 179.954 243.246 179.954 232.781V200.598Z" fill="#FFC1C2"/>
<path d="M179.954 200.598L165.013 204.561L166.677 200.598H179.954Z" fill="#EE9C9E"/>
<path d="M168.85 215.242C168.311 226.498 162.835 234.112 158.808 238.235C157.523 239.554 155.868 240.369 154.124 240.623L154.288 224.406C154.478 224.449 154.592 224.478 154.617 224.483C154.507 224.428 154.398 224.373 154.288 224.322L154.373 215.952C156.31 216.336 157.692 216.658 157.801 216.679C156.567 216.189 155.43 215.72 154.381 215.276L154.469 206.264C158.4 206.319 161.908 206.631 161.908 206.631L163.328 207.126C166.748 208.317 169.023 211.613 168.85 215.242Z" fill="#EE9C9E"/>
<path d="M91.4027 196.808L90.4001 196.618C89.2544 196.398 88.5046 195.291 88.7236 194.146L97.3504 148.641C97.5695 147.492 98.6731 146.74 99.8146 146.96L100.817 147.15C101.963 147.369 102.713 148.476 102.494 149.621L93.8669 195.126C93.6478 196.271 92.5442 197.028 91.4027 196.808Z" fill="#9BCFDC"/>
<path d="M93.1127 197.133L88.6855 196.288C87.4303 196.047 86.6047 194.834 86.8448 193.575L92.4808 163.839C92.7209 162.58 93.9299 161.752 95.1851 161.992L99.6123 162.837C100.868 163.078 101.693 164.291 101.453 165.55L95.817 195.287C95.5811 196.546 94.3679 197.374 93.1127 197.133Z" fill="#32477B"/>
<path d="M102.157 154.662C111.695 154.662 119.427 146.906 119.427 137.339C119.427 127.771 111.695 120.016 102.157 120.016C92.6185 120.016 84.8862 127.771 84.8862 137.339C84.8862 146.906 92.6185 154.662 102.157 154.662Z" fill="#9BCFDC"/>
<path d="M102.157 151.56C109.987 151.56 116.335 145.193 116.335 137.339C116.335 129.484 109.987 123.117 102.157 123.117C94.326 123.117 87.978 129.484 87.978 137.339C87.978 145.193 94.326 151.56 102.157 151.56Z" fill="#32477B"/>
<path d="M91.786 141.56C91.4448 141.496 91.1499 141.247 91.0446 140.892C90.636 139.536 89.8905 135.965 91.786 132.167C93.6226 128.483 96.7944 126.928 98.075 126.434C98.5678 126.243 99.1281 126.488 99.3176 126.983C99.5072 127.481 99.2629 128.039 98.77 128.229C97.7001 128.648 95.0421 129.949 93.5046 133.029C91.9166 136.206 92.5442 139.193 92.8854 140.33C93.0371 140.841 92.7506 141.378 92.2409 141.53C92.0893 141.581 91.9334 141.589 91.786 141.56Z" fill="white"/>
<path d="M97.0263 147.893C97.001 147.889 96.98 147.885 96.9547 147.876C93.8797 147.048 92.6876 144.352 92.6413 144.238C92.4307 143.748 92.6539 143.182 93.1426 142.971C93.627 142.759 94.1914 142.983 94.4063 143.469C94.4442 143.554 95.3035 145.434 97.4602 146.013C97.9741 146.152 98.2774 146.68 98.1384 147.196C97.9994 147.686 97.5149 147.986 97.0263 147.893Z" fill="white"/>
<path d="M100.872 174.583C100.872 174.583 102.152 177.275 99.7683 179.514C99.7683 179.514 100.661 182.653 98.1297 183.553C98.1297 183.553 98.7995 185.649 97.2367 186.545C96.8787 186.748 95.9225 187.107 94.6335 187.271L94.7009 187.36L94.6925 187.373L85.6529 199.393V199.398L55.8129 239.08C47.026 249.622 29.9198 243.014 30.4505 229.286L31.5036 201.945H54.3091C61.7606 193.525 69.2122 185.1 76.6638 176.679C77.5105 175.602 78.8626 174.127 80.8382 172.792C82.7759 171.482 84.6082 170.785 85.9056 170.4C90.893 169.851 95.8846 169.306 100.872 168.757C100.872 168.753 103.762 171.144 100.872 174.583Z" fill="#FFC1C2"/>
<path d="M53.8359 201.611L43.252 216.713L44.1996 217.381L54.7835 202.279L53.8359 201.611Z" fill="#EE9C9E"/>
<path d="M31.4995 201.941L52.3041 204.797L53.7826 201.941H31.4995Z" fill="#EE9C9E"/>
<path d="M180.287 168.064L151.327 234.306C150.712 235.713 149.448 236.731 147.945 237.018C141.066 238.324 132.717 239.355 123.227 239.376C114.996 239.397 107.616 238.658 101.298 237.627C98.2984 237.137 96.5714 233.93 97.7929 231.137C107.662 208.608 117.536 186.076 127.405 163.547C128.265 161.591 130.337 160.458 132.439 160.822C138.543 161.87 145.561 162.664 153.332 162.829C161.483 163.002 168.893 162.449 175.384 161.561C178.994 161.071 181.753 164.722 180.287 168.064Z" fill="#E8EBF6"/>
<path d="M180.304 168.064L152.553 234.306C151.963 235.713 150.75 236.731 149.309 237.018C142.717 238.324 134.718 239.355 125.624 239.376C117.738 239.397 110.666 238.658 104.608 237.627C101.731 237.137 100.08 233.93 101.251 231.137C110.712 208.608 120.173 186.076 129.63 163.547C130.451 161.591 132.439 160.458 134.457 160.822C140.308 161.87 147.031 162.664 154.478 162.829C162.292 163.002 169.39 162.449 175.607 161.561C179.065 161.071 181.706 164.722 180.304 168.064Z" fill="white"/>
<path d="M161.441 204.075C161.441 204.075 123.564 200.707 157.338 214.126C157.338 214.126 120.645 205.63 154.154 221.93C154.154 221.93 118.8 213.45 150.944 229.802C150.944 229.802 115.851 221.977 148.004 237.01L149.499 237.593C152.566 238.789 156.041 238.037 158.345 235.683C162.372 231.559 167.852 223.946 168.387 212.69C168.56 209.065 166.285 205.765 162.865 204.578L161.441 204.075Z" fill="#FFC1C2"/>
<path d="M100.868 173.506H95.8887V174.668H100.868V173.506Z" fill="#EE9C9E"/>
<path d="M99.7641 178.935H96.3859V180.097H99.7641V178.935Z" fill="#EE9C9E"/>
<path d="M98.1254 182.975H94.9956V184.137H98.1254V182.975Z" fill="#EE9C9E"/>
<path d="M94.688 187.377L85.6484 199.397L86.7099 193.541C87.3671 189.912 90.5179 187.275 94.191 187.275H94.6291C94.6501 187.309 94.6712 187.343 94.688 187.377Z" fill="#EE9C9E"/>
<path d="M100.046 101.179L104.153 101.754L103.071 109.537C101.478 106.461 100.24 103.63 99.2964 101.027C99.5365 101.091 99.7892 101.146 100.046 101.179Z" fill="#32477B"/>
<path d="M134.263 86.4636C134.035 86.9283 133.926 87.7776 133.201 87.9128C127.308 89.0198 117.308 86.7044 113.884 85.7918C113.201 85.6101 112.473 85.9101 112.136 86.5354C110.813 89.0198 107.97 91.9478 106.318 93.5365C105.901 93.9379 105.219 93.5872 105.299 93.0168L105.893 88.817C105.935 88.5043 105.737 88.2128 105.434 88.141L103.837 87.7649C101.209 87.148 98.5763 87.9973 96.7987 89.7888C96.6302 88.9818 95.1643 81.3427 100.227 76.2471C102.047 74.4134 104.103 73.5261 105.535 73.0783C113.008 68.3546 121.613 67.7039 127.359 71.684C131.858 74.7979 136.428 82.0145 134.263 86.4636Z" fill="#32477B"/>
</svg>
