<svg width="20" height="20" viewBox="0 0 20 20" fill="none" xmlns="http://www.w3.org/2000/svg">
<path d="M10.6667 0.833374C8.27974 0.833374 5.99055 1.78159 4.30273 3.46941C2.6149 5.15724 1.66669 7.44643 1.66669 9.83337C1.66669 12.2203 2.6149 14.5095 4.30273 16.1973C5.99055 17.8852 8.27974 18.8334 10.6667 18.8334C13.0536 18.8334 15.3428 17.8852 17.0307 16.1973C18.7185 14.5095 19.6667 12.2203 19.6667 9.83337C19.6667 7.44643 18.7185 5.15724 17.0307 3.46941C15.3428 1.78159 13.0536 0.833374 10.6667 0.833374V0.833374ZM2.77669 10.5134H5.28669C5.32669 11.4234 5.45369 12.3274 5.66669 13.2134H3.50669C3.10389 12.3643 2.85665 11.4498 2.77669 10.5134ZM11.3467 5.11337V2.02337C12.3104 2.3896 13.1022 3.103 13.5667 4.02337C13.7717 4.37037 13.9527 4.73137 14.1067 5.10337L11.3467 5.11337ZM14.5667 6.46337C14.7987 7.34637 14.9367 8.25137 14.9767 9.16337H11.3467V6.46337H14.5667ZM9.98669 2.02337V5.11337H7.22669C7.38095 4.74107 7.5614 4.38017 7.76669 4.03337C8.22916 3.10923 9.02128 2.39204 9.98669 2.02337ZM9.98669 6.46337V9.16337H6.36669C6.40669 8.25137 6.54469 7.34637 6.77669 6.46337H9.98669ZM5.28669 9.15337H2.77669C2.85665 8.21697 3.10389 7.30249 3.50669 6.45337H5.66669C5.45328 7.33902 5.32602 8.24323 5.28669 9.15337ZM6.36669 10.5134H9.98669V13.2134H6.77669C6.54472 12.3304 6.40728 11.4254 6.36669 10.5134ZM9.99669 14.5134V17.6034C9.03301 17.2372 8.24113 16.5238 7.77669 15.6034C7.5714 15.2566 7.39095 14.8957 7.23669 14.5234L9.99669 14.5134ZM11.3467 17.6034V14.5634H14.1067C13.9524 14.9357 13.772 15.2966 13.5667 15.6434C13.1022 16.5638 12.3104 17.2771 11.3467 17.6434V17.6034ZM11.3467 13.1634V10.4634H14.9667C14.9261 11.3754 14.7887 12.2804 14.5567 13.1634H11.3467ZM16.0567 10.4634H18.5667C18.4867 11.3998 18.2395 12.3143 17.8367 13.1634H15.6667C15.8767 12.2934 16.0037 11.4064 16.0467 10.5134L16.0567 10.4634ZM16.0567 9.11337C16.0109 8.21968 15.8803 7.33237 15.6667 6.46337H17.8267C18.2297 7.31337 18.4767 8.22737 18.5567 9.16337L16.0567 9.11337ZM17.0567 5.11337H15.2667C14.9428 4.20367 14.4734 3.3526 13.8767 2.59337C15.1211 3.15195 16.202 4.01942 17.0167 5.11337H17.0567ZM7.45669 2.59337C6.86001 3.3526 6.39057 4.20367 6.06669 5.11337H4.31669C5.13141 4.01942 6.21231 3.15195 7.45669 2.59337ZM4.30669 14.5934H6.06669C6.39057 15.5031 6.86001 16.3541 7.45669 17.1134C6.20886 16.5464 5.12763 15.6683 4.31669 14.5634L4.30669 14.5934ZM13.8667 17.1134C14.4634 16.3541 14.9328 15.5031 15.2567 14.5934H17.0167C16.197 15.6727 15.1165 16.526 13.8767 17.0734L13.8667 17.1134Z" fill="#3B86C6"/>
</svg>
