<svg width="171" height="169" viewBox="0 0 171 169" fill="none" xmlns="http://www.w3.org/2000/svg">
<g clip-path="url(#clip0_7_729)">
<path d="M84.921 169.004C131.822 169.004 169.842 131.171 169.842 84.502C169.842 37.8328 131.822 0 84.921 0C38.0204 0 0 37.8328 0 84.502C0 131.171 38.0204 169.004 84.921 169.004Z" fill="#F3F7FC"/>
<path d="M117.403 60.3335L116.726 59.4125L82.7615 13.1607L82.0844 12.2397C80.7782 10.4656 78.274 10.0748 76.4911 11.3746L75.4333 12.144L3.28148 64.6154L2.22372 65.3849C1.99935 65.5483 1.79902 65.7278 1.61872 65.9231C1.49451 66.0587 1.38233 66.2062 1.27815 66.3577C0.953613 66.8321 0.737254 67.3664 0.641094 67.9245C0.637087 67.9564 0.629074 67.9923 0.625067 68.0242C0.589008 68.2634 0.572981 68.5066 0.585001 68.7498C0.589008 68.8774 0.601028 69.005 0.617054 69.1325C0.653114 69.3877 0.709207 69.6389 0.797354 69.8861C0.925567 70.2568 1.10987 70.6157 1.35428 70.9466L2.0314 71.8675L21.3154 98.1252L35.9998 118.119L36.6769 119.04C37.9831 120.815 40.4873 121.205 42.2702 119.906L43.328 119.136L115.48 66.6687L116.538 65.8992C118.321 64.6034 118.709 62.1116 117.403 60.3335Z" fill="#3B86C6"/>
<path d="M77.3565 7.29202L76.2988 8.06148L4.14692 60.5289L3.08916 61.2983C1.3062 62.5981 0.913548 65.0899 2.21972 66.864L2.89684 67.785L36.8653 114.037L37.5424 114.958C38.8486 116.732 41.3527 117.123 43.1357 115.823L44.1934 115.053L116.345 62.5861L117.403 61.8166C119.186 60.5169 119.579 58.0251 118.272 56.2509L117.595 55.33L83.6269 9.07415L82.9498 8.15318C81.6476 6.37902 79.1435 5.99229 77.3565 7.29202Z" fill="#FF931D"/>
<path d="M115.668 61.6611L42.4586 114.898C40.6756 116.198 38.1715 115.807 36.8653 114.033L2.22375 66.86C0.917577 65.0859 1.31023 62.5941 3.09319 61.2943L76.3028 8.05749C78.0857 6.75777 80.5899 7.14848 81.8961 8.92265L116.542 56.0955C117.844 57.8736 117.455 60.3654 115.668 61.6611Z" fill="#FFB31A"/>
<path d="M59.5327 71.8347C65.1161 71.5293 69.3935 66.7777 69.0865 61.2219C68.7795 55.6661 64.0044 51.4098 58.421 51.7153C52.8376 52.0207 48.5603 56.7723 48.8673 62.3281C49.1742 67.884 53.9493 72.1402 59.5327 71.8347Z" fill="#FFC82E"/>
<path d="M155.514 81.1131C156.396 79.6061 155.891 77.6725 154.38 76.7874L147.649 72.8324C148.743 70.9865 147.545 68.2674 144.973 66.7564C142.4 65.2453 139.428 65.5165 138.334 67.3584L131.603 63.4034C130.092 62.5143 128.149 63.0087 127.247 64.5038L111.758 55.4017L66.1578 132.237L125.404 167.05L171.004 90.2112L155.514 81.1131Z" fill="#3B86C6"/>
<path d="M169.842 85.3246L110.596 50.5113L64.9957 127.351L124.241 162.164L169.842 85.3246Z" fill="#29477C"/>
<path d="M162.464 87.5176L112.23 57.9997L72.3743 125.158L122.608 154.676L162.464 87.5176Z" fill="#FFE6CA"/>
<path d="M151.255 81.4401L122.984 64.8267L126.069 59.6278C126.967 58.1208 128.918 57.6184 130.437 58.5075L153.214 71.8915C154.729 72.7845 155.234 74.7261 154.34 76.2372L151.255 81.4401Z" fill="#0D1B35"/>
<path d="M146.488 67.9335C147.583 66.0887 146.385 63.3678 143.813 61.8562C141.241 60.3447 138.268 60.6149 137.173 62.4597C136.078 64.3046 137.276 67.0255 139.848 68.537C142.421 70.0486 145.394 69.7784 146.488 67.9335Z" fill="#0D1B35"/>
<path d="M120.769 6.53846L119.442 4.34169C119.062 3.70777 118.236 3.50444 117.599 3.8832L116.101 4.77626C115.464 5.15501 115.259 5.97631 115.64 6.61022L116.966 8.807L120.769 6.53846Z" fill="#3B86C6"/>
<path d="M121.57 8.72725L121.87 8.54784C121.975 8.48405 122.011 8.34849 121.947 8.24483L120.993 6.66204C120.929 6.55838 120.793 6.5225 120.688 6.58629L117.046 8.75914C116.942 8.82293 116.906 8.95849 116.97 9.06214L117.924 10.6449C117.988 10.7486 118.124 10.7845 118.228 10.7207L121.57 8.72725Z" fill="#3B86C6"/>
<path d="M155.27 66.2938L153.727 61.2305C153.727 61.2305 153.727 61.2305 153.723 61.2305H153.727L121.951 8.5L118.529 10.5413L118.148 10.7685L149.929 63.4951H149.933L153.771 67.3065L156.372 69.89L155.27 66.2938ZM151.199 62.7415C151.199 62.7375 151.199 62.7415 151.199 62.7415V62.7415Z" fill="#3B86C6"/>
<path d="M150.371 62.6209L154.224 60.4422L123.693 6.98651L119.84 9.16524L150.371 62.6209Z" fill="#FFC82E"/>
<path d="M118.785 7.14049L122.479 5.05136C122.588 4.99156 122.72 5.02744 122.78 5.13509L123.697 6.7418C123.758 6.84945 123.722 6.98101 123.613 7.04082L119.919 9.12994C119.811 9.18975 119.679 9.15386 119.619 9.04622L118.701 7.4395C118.641 7.33186 118.677 7.20029 118.785 7.14049Z" fill="#FFF4E9"/>
<path d="M117.936 3.13368L119.454 2.2765C120.1 1.9097 120.921 2.13696 121.285 2.77884L122.56 5.00751L118.705 7.18834L117.431 4.95967C117.066 4.31379 117.291 3.49648 117.936 3.13368Z" fill="#D83E3A"/>
<path d="M153.244 61.1152L153.885 60.7526L123.301 7.21375L122.66 7.57629L153.244 61.1152Z" fill="#FFB31A"/>
<path d="M152.026 61.8042L152.667 61.4417L122.082 7.90284L121.441 8.26538L152.026 61.8042Z" fill="#FFB31A"/>
<path d="M150.803 62.4925L151.444 62.13L120.859 8.59111L120.218 8.95365L150.803 62.4925Z" fill="#FFB31A"/>
<path d="M150.374 62.6259C150.694 62.4425 150.474 62.0598 150.798 61.8804C151.119 61.697 151.339 62.0837 151.66 61.9003C151.98 61.7169 151.76 61.3342 152.081 61.1548C152.401 60.9754 152.622 61.3581 152.942 61.1747C153.263 60.9913 153.042 60.6086 153.363 60.4292C153.683 60.2458 153.904 60.6325 154.224 60.4491L155.647 65.5443L156.656 69.1684L154.12 66.5251L150.374 62.6259Z" fill="#FFF4E9"/>
<path d="M154.12 66.5251C154.304 66.2301 154.557 65.9829 154.857 65.8115C155.098 65.6719 155.37 65.5802 155.647 65.5443L156.656 69.1684L154.12 66.5251Z" fill="#0D1B35"/>
<path d="M94.5612 33.6044L70.642 107.149L125.652 124.864L149.571 51.3193L94.5612 33.6044Z" fill="#FFF4E9"/>
<path d="M148.106 47.9661L93.0964 30.2512L69.1772 103.796L124.187 121.511L148.106 47.9661Z" fill="#FFF4E9"/>
<path d="M109.613 39.7274L95.4823 35.1768L89.5707 53.3534L103.701 57.904L109.613 39.7274Z" fill="#D83E3A"/>
<path d="M99.9821 38.8561C98.7721 39.0874 97.6863 39.825 97.0693 40.8456C96.2119 42.2609 96.2439 44.1029 95.2222 45.4146C94.8055 45.9488 94.2446 46.3595 93.6997 46.7741C93.1588 47.1927 92.6179 47.6392 92.2814 48.2253C91.9408 48.8114 91.8326 49.5609 92.1692 50.1629C92.4697 50.7012 93.0626 51.0281 93.6356 51.2992C95.5468 52.2002 97.5982 52.8102 99.6897 53.1013C100.443 53.2049 101.228 53.2687 101.941 53.0295C102.891 52.7106 103.572 51.8813 103.921 50.9763C104.269 50.0712 104.333 49.0785 104.369 48.1057C104.405 47.1329 104.417 46.1442 104.67 45.2073C104.834 44.6052 105.071 43.9992 105.307 43.4211C105.523 42.8949 105.748 42.4005 105.788 41.8184C105.824 41.3081 105.72 40.7738 105.419 40.3433C105.139 39.9406 104.698 39.6535 104.221 39.498C103.817 39.3625 103.424 39.3744 103.011 39.3106C102.739 39.2668 102.486 39.0914 102.214 39.0156C101.485 38.8043 100.727 38.7126 99.9821 38.8561Z" fill="#1A0F24"/>
<path d="M101.553 51.7537C103.207 52.9338 102.418 58.3001 102.418 58.3001C102.418 58.3001 101.1 59.1454 98.9924 58.4517L101.553 51.7537Z" fill="#FFB31A"/>
<path d="M97.1534 72.4815C97.0893 72.5014 97.0252 72.5174 96.9611 72.5373C93.8079 73.3227 89.1722 70.8509 86.9284 69.4873C86.8082 69.4156 86.7001 69.3478 86.5959 69.28C85.9789 68.8973 85.6143 68.6381 85.6143 68.6381C85.6463 68.5225 85.6864 68.3949 85.7345 68.2594L85.7585 68.1916C85.8346 67.9723 85.9188 67.7291 86.0149 67.462C86.1511 67.0952 86.3114 66.6925 86.4877 66.254C86.5799 66.0267 86.672 65.7915 86.7762 65.5483C86.9325 65.1696 87.1007 64.7709 87.277 64.3562C87.3732 64.129 87.4734 63.8937 87.5735 63.6585C87.7418 63.2718 87.9141 62.8771 88.0944 62.4744C88.1945 62.2432 88.2987 62.008 88.4069 61.7767C88.5792 61.39 88.7555 60.9953 88.9318 60.6006C89.0319 60.3693 89.1401 60.1381 89.2443 59.9069C89.4246 59.5122 89.6009 59.1175 89.7812 58.7267C89.8854 58.4955 89.9935 58.2683 90.0977 58.037C90.262 57.6742 90.4263 57.3194 90.5905 56.9645C90.6106 56.9287 90.6266 56.8928 90.6426 56.8569C90.6867 56.7612 90.7308 56.6655 90.7748 56.5659C90.8389 56.4303 90.899 56.2987 90.9631 56.1712C90.9912 56.1074 91.0192 56.0516 91.0473 55.9917C91.1074 55.8522 91.1715 55.7167 91.2356 55.5851L91.2396 55.5771C91.3318 55.3897 91.4159 55.1984 91.504 55.015C91.5121 55.007 91.5121 55.003 91.5121 54.999C91.5762 54.8635 91.6403 54.7319 91.7004 54.6003C91.7444 54.5007 91.7925 54.405 91.8366 54.3093C91.8807 54.2176 91.9207 54.1259 91.9648 54.0382C92.0329 53.8946 92.101 53.7471 92.1651 53.6036C92.2413 53.4441 92.3134 53.2847 92.3895 53.1332C92.4176 53.0734 92.4456 53.0175 92.4696 52.9577C92.5498 52.7823 92.6339 52.6149 92.714 52.4434C92.9144 52.0208 93.1027 51.6221 93.267 51.2713C93.3912 51.0241 93.4994 50.7889 93.5955 50.5815C93.9 49.9397 94.1044 49.521 94.1604 49.4054C94.1645 49.3974 94.1645 49.3935 94.1685 49.3935L94.1765 49.3735L94.5211 49.3775L94.5491 49.3735H95.7791H95.9955H96.304H96.7327L96.913 49.3695L99.3491 50.155L99.7097 50.4181L99.7778 50.4659L100.17 50.753L100.315 50.8566L101.136 51.4507L101.284 51.5543L101.565 51.7577C101.557 51.7896 101.557 51.8215 101.553 51.8494C101.489 52.2281 101.412 52.6587 101.32 53.1371C101.276 53.3764 101.228 53.6275 101.18 53.8827C101.104 54.2893 101.024 54.7159 100.932 55.1665C100.884 55.4097 100.832 55.6568 100.783 55.908C100.767 55.9678 100.759 56.0197 100.751 56.0755C100.719 56.219 100.687 56.3625 100.659 56.51C100.619 56.7054 100.579 56.9008 100.535 57.1041C100.531 57.132 100.527 57.1559 100.519 57.1838C100.515 57.1998 100.515 57.2117 100.511 57.2277C100.487 57.3353 100.467 57.439 100.451 57.5466C100.419 57.6742 100.395 57.8018 100.367 57.9294C100.355 57.9972 100.335 58.0689 100.319 58.1407C100.291 58.2882 100.259 58.4397 100.227 58.5872C100.182 58.7826 100.138 58.9819 100.102 59.1813C100.098 59.1892 100.102 59.1932 100.098 59.2012C100.062 59.3447 100.034 59.4843 100.006 59.6278C99.9861 59.7354 99.9581 59.8391 99.938 59.9427C99.8699 60.2497 99.8058 60.5647 99.7417 60.8757C99.7177 60.9873 99.6936 61.1029 99.6696 61.2186C99.6175 61.4618 99.5654 61.7089 99.5093 61.9521C99.4172 62.3787 99.325 62.8053 99.2329 63.2279C99.1768 63.4791 99.1247 63.7263 99.0686 63.9695C98.9764 64.4001 98.8843 64.8227 98.7921 65.2373C98.7601 65.4048 98.72 65.5762 98.68 65.7437C98.6639 65.8234 98.6479 65.8991 98.6319 65.9749C98.5357 66.4135 98.4396 66.8321 98.3554 67.2427C98.2993 67.4979 98.2432 67.7411 98.1911 67.9843C98.091 68.4308 97.9948 68.8534 97.9107 69.2481C97.8506 69.5073 97.7945 69.7545 97.7424 69.9897C97.6342 70.4721 97.5381 70.8987 97.4619 71.2575C97.3938 71.5525 97.3417 71.7997 97.2937 71.9951C97.1935 72.3061 97.1534 72.4815 97.1534 72.4815Z" fill="#FFB31A"/>
<path d="M100.299 50.8447C100.291 50.8527 100.291 50.8567 100.283 50.8646C100.19 50.9882 100.018 51.068 99.8699 51.0201C100.034 51.4029 99.8419 51.8853 99.5053 52.1364C99.1728 52.3876 98.708 52.4315 98.3114 52.3119C98.127 52.256 97.9588 52.1723 97.8185 52.0447C97.6783 51.9172 97.5821 51.7417 97.5581 51.5583C97.4299 51.6939 97.2456 51.7736 97.0613 51.7976C96.873 51.8215 96.6806 51.7896 96.5044 51.7258C96.1077 51.5902 95.7591 51.2832 95.6389 50.8885C95.5147 50.4899 95.6429 49.9875 96.0035 49.7722C95.8553 49.7244 95.7631 49.5609 95.7631 49.4054C95.7631 49.3935 95.7631 49.3775 95.7671 49.3656H95.9835H96.292H96.7207L96.901 49.3616L99.3371 50.147L99.6977 50.4101L99.7658 50.458L100.158 50.745L100.299 50.8447Z" fill="white"/>
<path d="M94.1645 49.3736C92.702 49.3776 87.4854 53.7751 87.4854 53.7751C87.4854 53.7751 88.7234 56.5739 90.1578 58.1527L91.9327 56.2071L94.1645 49.3736Z" fill="#FFB31A"/>
<path d="M103.58 46.6266C103.127 47.5595 102.562 48.0379 101.921 48.2971C101.529 48.4566 101.192 48.5443 100.9 48.632C100.162 48.8513 99.6897 49.0705 99.2409 50.45C98.4997 51.3431 96.877 50.9723 96.7488 49.6486C97.3618 47.8346 97.4099 46.184 97.3898 45.3906C97.3818 45.1474 97.3698 44.984 97.3618 44.9202C97.3578 44.8963 97.3578 44.8883 97.3578 44.8883C97.3578 44.8883 97.458 44.5972 97.6222 44.1707C97.6423 44.1188 97.6623 44.063 97.6823 44.0112C98.067 43.0184 98.712 41.4715 99.2008 41.013C100.992 39.3266 104.718 41.2961 104.498 43.0264C104.289 44.673 103.981 45.8212 103.58 46.6266Z" fill="#FEA384"/>
<path d="M104.454 44.0191C103.764 43.4052 103.304 42.548 103.167 41.635C103.071 41.8702 102.843 42.0257 102.627 42.1573C101.873 42.6038 100.988 42.8271 100.114 42.7832C99.8299 43.2417 99.4092 43.5925 98.9244 43.8278C98.4356 44.063 97.8827 44.1587 97.3418 44.0989C97.5261 43.15 97.5622 42.1692 98.0269 41.32C98.4917 40.4708 99.249 39.7332 100.195 39.514C100.739 39.3864 101.316 39.4382 101.861 39.5698C102.855 39.805 103.813 40.3273 104.385 41.1685C104.958 42.0098 105.031 43.1819 104.454 44.0191Z" fill="#1A0F24"/>
<path d="M102.707 44.5414C103.095 44.4218 103.508 44.5694 103.724 44.9242C103.764 44.992 103.744 45.0916 103.68 45.1395C103.616 45.1913 103.528 45.1754 103.488 45.1076C103.4 44.9601 103.26 44.8644 103.099 44.8245C103.019 44.8046 102.935 44.8006 102.855 44.8126C102.783 44.8245 102.703 44.8564 102.647 44.7966C102.635 44.7807 102.623 44.7607 102.619 44.7408C102.595 44.669 102.635 44.5614 102.707 44.5414Z" fill="#1A0F24"/>
<path d="M101.721 44.2225C101.429 43.8836 100.948 43.7441 100.519 43.8916C100.439 43.9195 100.395 44.0112 100.423 44.0909C100.451 44.1707 100.543 44.2145 100.623 44.1866C100.8 44.1268 100.996 44.1388 101.164 44.2065C101.252 44.2424 101.332 44.2903 101.405 44.3501C101.469 44.4019 101.521 44.4816 101.613 44.4657C101.637 44.4617 101.657 44.4537 101.677 44.4418C101.741 44.3939 101.773 44.2863 101.721 44.2225Z" fill="#1A0F24"/>
<path d="M101.461 46.8139C101.601 46.8578 101.753 46.8738 101.913 46.8458C101.989 46.8339 102.042 46.7621 102.026 46.6864C102.014 46.6106 101.941 46.5588 101.865 46.5747C101.473 46.6425 101.156 46.3395 101.096 46.1601C101.072 46.0883 100.992 46.0485 100.92 46.0724C100.848 46.0963 100.808 46.176 100.832 46.2478C100.908 46.4591 101.144 46.7143 101.461 46.8139Z" fill="#C16B5B"/>
<path d="M102.018 46.1641C102.034 46.1681 102.05 46.1641 102.058 46.1521C102.19 45.9568 102.142 45.8611 102.074 45.8132C102.006 45.7654 101.913 45.7574 101.793 45.7853C101.773 45.7893 101.765 45.8093 101.769 45.8292C101.773 45.8491 101.793 45.8571 101.813 45.8531C101.913 45.8292 101.99 45.8332 102.038 45.8691C102.098 45.9129 102.086 45.9927 102.002 46.1123C101.99 46.1282 101.994 46.1481 102.01 46.1601C102.014 46.1641 102.018 46.1641 102.018 46.1641Z" fill="#C16B5B"/>
<path d="M100.687 44.8723C100.643 45.0039 100.715 45.1474 100.852 45.1913C100.984 45.2351 101.128 45.1634 101.172 45.0278C101.216 44.8963 101.144 44.7527 101.008 44.7089C100.872 44.665 100.731 44.7368 100.687 44.8723Z" fill="black"/>
<path d="M100.948 44.8843C100.932 44.9321 100.96 44.984 101.008 44.9999C101.056 45.0159 101.108 44.988 101.124 44.9401C101.14 44.8923 101.112 44.8404 101.064 44.8245C101.02 44.8085 100.964 44.8325 100.948 44.8843Z" fill="white"/>
<path d="M102.558 45.4743C102.514 45.6059 102.586 45.7494 102.723 45.7933C102.855 45.8372 102.999 45.7654 103.043 45.6298C103.087 45.4983 103.015 45.3547 102.879 45.3109C102.743 45.267 102.599 45.3388 102.558 45.4743Z" fill="black"/>
<path d="M102.819 45.4863C102.803 45.5342 102.831 45.586 102.879 45.6019C102.927 45.6179 102.979 45.59 102.995 45.5421C103.011 45.4943 102.983 45.4425 102.935 45.4265C102.887 45.4106 102.835 45.4385 102.819 45.4863Z" fill="white"/>
<path d="M96.4723 44.681C96.6807 45.1913 97.1815 45.4744 97.5902 45.3109C97.9989 45.1474 98.1591 44.5972 97.9508 44.0869C97.7425 43.5766 97.2416 43.2935 96.8329 43.457C96.4243 43.6205 96.264 44.1667 96.4723 44.681Z" fill="#FEA384"/>
<path d="M96.9892 43.7241C97.1575 43.6962 97.3498 43.76 97.4981 43.8995C97.5742 43.9673 97.6223 44.0391 97.6463 44.1148C97.6784 44.2145 97.6624 44.3221 97.6023 44.3939C97.5502 44.4577 97.474 44.4896 97.4059 44.5135C97.3579 44.5334 97.3138 44.5494 97.2817 44.5773C97.2336 44.6212 97.2176 44.6969 97.2417 44.7567C97.2697 44.8165 97.3378 44.8564 97.4019 44.8484C97.442 44.8444 97.474 44.8723 97.478 44.9082C97.4821 44.9441 97.454 44.98 97.418 44.984C97.3779 44.988 97.3338 44.984 97.2937 44.972C97.2136 44.9481 97.1455 44.8883 97.1134 44.8125C97.0614 44.6969 97.0934 44.5534 97.1856 44.4736C97.2377 44.4298 97.2978 44.4059 97.3538 44.3819C97.4099 44.362 97.462 44.3421 97.4901 44.3022C97.5181 44.2663 97.5261 44.2065 97.5101 44.1507C97.5021 44.1268 97.4901 44.1069 97.478 44.0829C97.4139 44.063 97.3218 44.055 97.2657 44.0869C97.2016 44.1228 97.1575 44.1906 97.1455 44.2623C97.1415 44.2982 97.1054 44.3261 97.0654 44.3221C97.0614 44.3221 97.0574 44.3221 97.0533 44.3182C97.0213 44.3062 97.0013 44.2743 97.0053 44.2424C97.0213 44.1268 97.0934 44.0271 97.1936 43.9673C97.2296 43.9474 97.2737 43.9354 97.3138 43.9314C97.2136 43.8676 97.1054 43.8357 97.0053 43.8557C96.8851 43.8756 96.7609 43.9912 96.7769 44.1228C96.7809 44.1627 96.7528 44.1946 96.7168 44.1985C96.6767 44.2025 96.6447 44.1746 96.6407 44.1387C96.6246 43.9514 96.7809 43.76 96.9892 43.7241Z" fill="#C16B5B"/>
<path d="M111.987 43.7202L111.528 45.1313L134.834 52.6366L135.293 51.2255L111.987 43.7202Z" fill="#FFC82E"/>
<path d="M110.165 49.3288L109.707 50.7398L138.437 59.992L138.896 58.5809L110.165 49.3288Z" fill="#FFC82E"/>
<path d="M111.029 46.6721L110.57 48.0832L124.872 52.689L125.331 51.2779L111.029 46.6721Z" fill="#FFC82E"/>
<path d="M127.065 51.8332L126.606 53.2443L140.908 57.8501L141.367 56.439L127.065 51.8332Z" fill="#FFC82E"/>
<path d="M109.297 51.9862L108.838 53.3972L116.782 55.9555L117.241 54.5444L109.297 51.9862Z" fill="#FFC82E"/>
<path d="M130.832 61.8584L130.373 63.2694L138.317 65.8276L138.776 64.4166L130.832 61.8584Z" fill="#FFC82E"/>
<path d="M108.433 54.6452L107.974 56.0562L127.922 62.4801L128.381 61.069L108.433 54.6452Z" fill="#FFC82E"/>
<path d="M118.853 55.0643L118.394 56.4753L139.18 63.1692L139.639 61.7582L118.853 55.0643Z" fill="#FFC82E"/>
<path d="M90.6666 63.543C89.2643 63.0924 88.491 61.5854 88.9438 60.19C89.3965 58.7946 90.911 58.0251 92.3134 58.4756C93.7157 58.9261 94.489 60.4332 94.0362 61.8286C93.5835 63.224 92.073 63.9935 90.6666 63.543ZM92.125 59.0577C91.0432 58.7109 89.8813 59.3009 89.5327 60.3774C89.1842 61.4538 89.7771 62.61 90.8589 62.9569C91.9407 63.3037 93.1027 62.7137 93.4512 61.6372C93.7998 60.5648 93.2068 59.4046 92.125 59.0577Z" fill="#F7D4AA"/>
<path d="M91.1995 61.9083C91.1233 61.8844 91.0552 61.8286 91.0192 61.7528L90.2579 60.2378C90.1818 60.0863 90.2419 59.9029 90.3941 59.8232C90.5464 59.7474 90.7307 59.8072 90.8108 59.9588L91.4439 61.2186L94.9497 59.7674C95.106 59.7036 95.2863 59.7754 95.3544 59.9348C95.4185 60.0903 95.3464 60.2697 95.1861 60.3375L91.4118 61.8964C91.3437 61.9283 91.2676 61.9283 91.1995 61.9083Z" fill="#FF931D"/>
<path d="M97.719 60.8646L97.4723 61.6232L134.235 73.4618L134.481 72.7032L97.719 60.8646Z" fill="#FF931D"/>
<path d="M108.988 66.2246L108.741 66.9832L133.729 75.0299L133.975 74.2713L108.988 66.2246Z" fill="#FF931D"/>
<path d="M96.699 63.9998L96.4523 64.7584L119.133 72.0624L119.38 71.3038L96.699 63.9998Z" fill="#FF931D"/>
<path d="M107.617 65.7809L97.2067 62.4285L96.9599 63.1871L107.37 66.5396L107.617 65.7809Z" fill="#FF931D"/>
<path d="M133.457 75.8372L120.493 71.6622L120.246 72.4209L133.211 76.5958L133.457 75.8372Z" fill="#FF931D"/>
<path d="M87.7659 72.4696C86.3635 72.019 85.5903 70.512 86.043 69.1166C86.4958 67.7212 88.0103 66.9517 89.4126 67.4022C90.8149 67.8527 91.5882 69.3598 91.1355 70.7552C90.6827 72.1506 89.1682 72.9201 87.7659 72.4696ZM89.2243 67.9843C88.1425 67.6375 86.9806 68.2275 86.632 69.304C86.2834 70.3804 86.8764 71.5366 87.9582 71.8835C89.04 72.2303 90.2019 71.6403 90.5505 70.5638C90.8991 69.4914 90.3021 68.3312 89.2243 67.9843Z" fill="#F7D4AA"/>
<path d="M88.2987 70.8349C88.2226 70.811 88.1545 70.7552 88.1184 70.6795L87.3572 69.1644C87.281 69.0129 87.3411 68.8295 87.4934 68.7498C87.6456 68.6741 87.8299 68.7339 87.9101 68.8854L88.5431 70.1452L92.049 68.694C92.2052 68.6302 92.3855 68.702 92.4536 68.8614C92.5177 69.0169 92.4456 69.1963 92.2853 69.2641L88.5111 70.823C88.439 70.8549 88.3628 70.8549 88.2987 70.8349Z" fill="#FF931D"/>
<path d="M94.8189 69.7905L94.5721 70.5491L131.334 82.3877L131.581 81.6291L94.8189 69.7905Z" fill="#FF931D"/>
<path d="M106.084 75.151L105.837 75.9096L130.825 83.9563L131.071 83.1977L106.084 75.151Z" fill="#FF931D"/>
<path d="M93.7896 72.9268L93.543 73.6854L116.224 80.987L116.471 80.2284L93.7896 72.9268Z" fill="#FF931D"/>
<path d="M104.716 74.7079L94.3054 71.3554L94.0587 72.114L104.469 75.4665L104.716 74.7079Z" fill="#FF931D"/>
<path d="M130.553 84.7625L117.588 80.5875L117.342 81.3461L130.306 85.5211L130.553 84.7625Z" fill="#FF931D"/>
<path d="M84.861 81.3922C83.4586 80.9417 82.6853 79.4347 83.1381 78.0393C83.5908 76.6439 85.1054 75.8744 86.5077 76.3249C87.91 76.7754 88.6833 78.2825 88.2305 79.6779C87.7778 81.0773 86.2673 81.8467 84.861 81.3922ZM86.3194 76.911C85.2376 76.5641 84.0757 77.1542 83.7271 78.2306C83.3785 79.3071 83.9715 80.4633 85.0533 80.8101C86.1351 81.157 87.297 80.5669 87.6456 79.4905C87.9942 78.414 87.4012 77.2578 86.3194 76.911Z" fill="#F7D4AA"/>
<path d="M85.3938 79.7576C85.3177 79.7337 85.2496 79.6779 85.2135 79.6021L84.4523 78.0871C84.3761 77.9356 84.4362 77.7522 84.5885 77.6725C84.7407 77.5967 84.925 77.6565 85.0052 77.808L85.6382 79.0679L89.144 77.6167C89.3003 77.5529 89.4806 77.6246 89.5487 77.7841C89.6128 77.9396 89.5407 78.119 89.3804 78.1868L85.6062 79.7457C85.5381 79.7815 85.4619 79.7815 85.3938 79.7576Z" fill="#FF931D"/>
<path d="M91.9171 78.7149L91.6704 79.4735L128.433 91.3121L128.679 90.5535L91.9171 78.7149Z" fill="#FF931D"/>
<path d="M103.179 84.0741L102.932 84.8327L127.919 92.8794L128.166 92.1208L103.179 84.0741Z" fill="#FF931D"/>
<path d="M90.8948 81.8527L90.6481 82.6113L113.329 89.9153L113.576 89.1567L90.8948 81.8527Z" fill="#FF931D"/>
<path d="M101.81 83.6337L91.4 80.2812L91.1533 81.0399L101.564 84.3923L101.81 83.6337Z" fill="#FF931D"/>
<path d="M127.651 93.6896L114.687 89.5147L114.44 90.2733L127.404 94.4482L127.651 93.6896Z" fill="#FF931D"/>
<path d="M125.901 99.0741L92.4741 88.3096L92.1682 89.2503L125.595 100.015L125.901 99.0741Z" fill="#D83E3A"/>
<path d="M125.155 101.373L80.2507 86.9122L79.9448 87.8529L124.849 102.314L125.155 101.373Z" fill="#D83E3A"/>
<path d="M106.027 97.7555L79.5038 89.2141L79.1978 90.1548L105.721 98.6962L106.027 97.7555Z" fill="#D83E3A"/>
<path d="M123.661 105.97L78.756 91.509L78.45 92.4497L123.355 106.91L123.661 105.97Z" fill="#D83E3A"/>
<path d="M122.912 108.268L102.854 101.809L102.548 102.75L122.606 109.209L122.912 108.268Z" fill="#D83E3A"/>
<path d="M122.166 110.567L77.2612 96.1059L76.9553 97.0466L121.86 111.507L122.166 110.567Z" fill="#D83E3A"/>
<path d="M109.16 108.919L76.5112 98.4051L76.2053 99.3458L108.854 109.86L109.16 108.919Z" fill="#D83E3A"/>
<path d="M121.419 112.867L111.157 109.562L110.851 110.503L121.113 113.807L121.419 112.867Z" fill="#D83E3A"/>
<path d="M99.4936 100.727L78.0095 93.8086L77.7036 94.7493L99.1876 101.668L99.4936 100.727Z" fill="#D83E3A"/>
<path d="M124.404 103.673L108.02 98.3972L107.714 99.3378L124.098 104.614L124.404 103.673Z" fill="#D83E3A"/>
<path d="M56.8945 127.465L7.20797 114.882L0 143.065L49.6865 155.648L55.2798 133.772L56.8945 127.465Z" fill="#3B86C6"/>
<path d="M10.5232 112.921L3.31543 141.106L53.0004 153.687L60.2081 125.501L10.5232 112.921Z" fill="#FF931D"/>
<path d="M3.3175 141.108L32.2896 131.256L53.004 153.69L3.3175 141.108Z" fill="#FFB31A"/>
<path d="M8.91077 119.232L30.6188 137.791L58.5973 131.81L8.91077 119.232Z" fill="#FFC82E"/>
<path d="M60.212 125.503L58.5973 131.81L30.9954 136.319L8.91077 119.232L10.5254 112.92L60.212 125.503Z" fill="#FFC82E"/>
<path d="M72.3288 69.5176L19.3124 93.8901L52.2195 164.767L105.236 140.394L72.3288 69.5176Z" fill="#FFF4E9"/>
<path d="M70.7387 72.3888L17.7223 96.7614L50.6294 167.638L103.646 143.265L70.7387 72.3888Z" fill="#FFF4E9"/>
<path d="M38.8485 123.115C37.4942 123.737 35.8836 123.147 35.2585 121.799C34.6335 120.452 35.2265 118.853 36.5807 118.227C37.935 117.605 39.5416 118.195 40.1707 119.543C40.7957 120.89 40.2027 122.493 38.8485 123.115ZM36.8452 118.793C35.8034 119.272 35.3507 120.504 35.8315 121.54C36.3123 122.577 37.5503 123.027 38.5921 122.549C39.6338 122.07 40.0865 120.838 39.6058 119.802C39.1209 118.769 37.8829 118.315 36.8452 118.793Z" fill="#F7D4AA"/>
<path d="M38.1193 121.54C38.0471 121.572 37.959 121.58 37.8789 121.548L36.2722 120.946C36.1119 120.886 36.0278 120.707 36.0919 120.547C36.152 120.388 36.3323 120.304 36.4926 120.368L37.8308 120.87L39.4334 117.402C39.5056 117.246 39.6899 117.178 39.8461 117.25C40.0024 117.322 40.0705 117.505 39.9984 117.661L38.2715 121.393C38.2395 121.456 38.1834 121.508 38.1193 121.54Z" fill="#FF931D"/>
<path d="M77.661 100.028L42.2343 116.315L42.5737 117.046L78.0004 100.759L77.661 100.028Z" fill="#FF931D"/>
<path d="M78.3619 101.541L54.2833 112.61L54.6228 113.342L78.7013 102.272L78.3619 101.541Z" fill="#FF931D"/>
<path d="M65.4964 109.291L43.6366 119.34L43.976 120.071L65.8359 110.022L65.4964 109.291Z" fill="#FF931D"/>
<path d="M52.968 113.218L42.9365 117.829L43.276 118.56L53.3075 113.949L52.968 113.218Z" fill="#FF931D"/>
<path d="M79.0673 103.054L66.5734 108.798L66.9128 109.529L79.4067 103.786L79.0673 103.054Z" fill="#FF931D"/>
<path d="M42.8431 131.715C41.4889 132.337 39.8822 131.747 39.2532 130.399C38.6281 129.051 39.2211 127.453 40.5754 126.827C41.9296 126.205 43.5363 126.795 44.1653 128.142C44.7904 129.494 44.1974 131.093 42.8431 131.715ZM40.8398 127.397C39.7981 127.875 39.3453 129.107 39.8261 130.144C40.3069 131.18 41.545 131.631 42.5867 131.153C43.6284 130.674 44.0812 129.442 43.6004 128.406C43.1156 127.369 41.8775 126.918 40.8398 127.397Z" fill="#F7D4AA"/>
<path d="M42.1139 130.14C42.0418 130.172 41.9536 130.18 41.8735 130.148L40.2668 129.546C40.1066 129.486 40.0224 129.307 40.0865 129.147C40.1466 128.988 40.3269 128.904 40.4872 128.968L41.8254 129.47L43.4281 126.001C43.5002 125.846 43.6845 125.778 43.8408 125.85C43.997 125.922 44.0651 126.105 43.993 126.261L42.2661 129.992C42.2341 130.06 42.178 130.112 42.1139 130.14Z" fill="#FF931D"/>
<path d="M81.656 108.632L46.2292 124.918L46.5687 125.649L81.9954 109.363L81.656 108.632Z" fill="#FF931D"/>
<path d="M82.3569 110.145L58.2783 121.214L58.6178 121.945L82.6963 110.876L82.3569 110.145Z" fill="#FF931D"/>
<path d="M69.4917 117.894L47.6318 127.943L47.9713 128.675L69.8311 118.625L69.4917 117.894Z" fill="#FF931D"/>
<path d="M56.9618 121.817L46.9303 126.429L47.2697 127.16L57.3012 122.548L56.9618 121.817Z" fill="#FF931D"/>
<path d="M83.0605 111.655L70.5665 117.398L70.906 118.129L83.3999 112.386L83.0605 111.655Z" fill="#FF931D"/>
<path d="M46.8377 140.318C45.4835 140.94 43.8728 140.35 43.2478 139.003C42.6228 137.655 43.2157 136.056 44.57 135.43C45.9242 134.805 47.5309 135.399 48.1599 136.746C48.785 138.094 48.192 139.696 46.8377 140.318ZM44.8304 135.997C43.7887 136.475 43.3359 137.707 43.8167 138.744C44.2975 139.78 45.5356 140.231 46.5773 139.752C47.619 139.274 48.0718 138.042 47.591 137.005C47.1102 135.973 45.8721 135.518 44.8304 135.997Z" fill="#F7D4AA"/>
<path d="M46.1085 138.744C46.0364 138.775 45.9483 138.783 45.8681 138.752L44.2615 138.15C44.1012 138.09 44.017 137.91 44.0812 137.751C44.1413 137.591 44.3216 137.508 44.4818 137.571L45.82 138.074L47.4227 134.605C47.4948 134.45 47.6791 134.382 47.8354 134.454C47.9916 134.525 48.0598 134.709 47.9876 134.864L46.2608 138.596C46.2287 138.66 46.1726 138.712 46.1085 138.744Z" fill="#FF931D"/>
<path d="M85.651 117.236L50.2242 133.522L50.5637 134.253L85.9904 117.967L85.651 117.236Z" fill="#FF931D"/>
<path d="M86.3517 118.749L62.2732 129.818L62.6126 130.549L86.6912 119.48L86.3517 118.749Z" fill="#FF931D"/>
<path d="M73.4818 126.495L51.6256 136.543L51.965 137.274L73.8212 127.226L73.4818 126.495Z" fill="#FF931D"/>
<path d="M60.957 130.42L50.9255 135.032L51.265 135.763L61.2965 131.151L60.957 130.42Z" fill="#FF931D"/>
<path d="M87.052 120.26L74.5581 126.003L74.8975 126.735L87.3915 120.991L87.052 120.26Z" fill="#FF931D"/>
<path d="M89.4677 125.45L57.2527 140.259L57.6728 141.164L89.8878 126.354L89.4677 125.45Z" fill="#D83E3A"/>
<path d="M90.496 127.663L47.2201 147.558L47.6402 148.463L90.9161 128.568L90.496 127.663Z" fill="#D83E3A"/>
<path d="M73.8067 138.024L48.2478 149.774L48.6679 150.679L74.2268 138.929L73.8067 138.024Z" fill="#D83E3A"/>
<path d="M92.5513 132.094L49.2754 151.988L49.6955 152.893L92.9714 132.998L92.5513 132.094Z" fill="#D83E3A"/>
<path d="M93.579 134.309L74.2471 143.196L74.6672 144.101L93.9991 135.214L93.579 134.309Z" fill="#D83E3A"/>
<path d="M94.6067 136.524L51.3308 156.418L51.7509 157.323L95.0268 137.428L94.6067 136.524Z" fill="#D83E3A"/>
<path d="M83.8281 144.169L52.3623 158.634L52.7824 159.539L84.2482 145.074L83.8281 144.169Z" fill="#D83E3A"/>
<path d="M95.6379 138.739L85.7483 143.285L86.1684 144.19L96.058 139.644L95.6379 138.739Z" fill="#D83E3A"/>
<path d="M71.012 144.684L50.3052 154.203L50.7253 155.108L71.4321 145.589L71.012 144.684Z" fill="#D83E3A"/>
<path d="M91.52 129.881L75.7307 137.14L76.1508 138.044L91.9401 130.786L91.52 129.881Z" fill="#D83E3A"/>
<path d="M63.4707 83.5443L41.0107 93.8695L41.6426 95.2304L64.1025 84.9052L63.4707 83.5443Z" fill="#FFC82E"/>
<path d="M71.2058 86.5459L43.5192 99.2739L44.151 100.635L71.8377 87.9068L71.2058 86.5459Z" fill="#FFC82E"/>
<path d="M56.1133 90.3755L42.3281 96.7127L42.96 98.0736L56.7451 91.7363L56.1133 90.3755Z" fill="#FFC82E"/>
<path d="M71.5714 83.269L57.7863 89.6063L58.4181 90.9671L72.2032 84.6299L71.5714 83.269Z" fill="#FFC82E"/>
<path d="M52.3661 98.3177L44.7097 101.837L45.3415 103.198L52.9979 99.6785L52.3661 98.3177Z" fill="#FFC82E"/>
<path d="M75.1397 90.9536L67.4833 94.4734L68.1151 95.8342L75.7715 92.3145L75.1397 90.9536Z" fill="#FFC82E"/>
<path d="M65.1208 95.5597L45.8979 104.397L46.5298 105.758L65.7526 96.9206L65.1208 95.5597Z" fill="#FFC82E"/>
<path d="M73.9515 88.3955L53.9176 97.6054L54.5494 98.9662L74.5834 89.7563L73.9515 88.3955Z" fill="#FFC82E"/>
<path d="M36.5045 92.5245L22.8867 98.7848L31.0198 116.302L44.6376 110.042L36.5045 92.5245Z" fill="#385D93"/>
<path d="M39.1571 106.785C41.1965 106.534 44.3097 111.051 44.3097 111.051C44.3097 111.051 43.913 112.578 41.8736 113.499L39.1571 106.785Z" fill="#D83E3A"/>
<path d="M38.9608 130.184C38.9608 130.184 39.4096 130.128 40.1308 129.992C40.251 129.969 40.3792 129.945 40.5154 129.921C43.1238 129.406 48.2643 128.075 50.0633 125.34C50.1034 125.284 50.1354 125.228 50.1715 125.168C50.1715 125.168 50.0793 125.009 49.911 124.722C49.8109 124.546 49.6827 124.323 49.5264 124.06C49.3381 123.741 49.1177 123.358 48.8653 122.928C48.7411 122.72 48.6129 122.497 48.4767 122.262C48.2683 121.911 48.0479 121.528 47.8156 121.134C47.6913 120.918 47.5591 120.699 47.4309 120.472C47.2146 120.109 46.9942 119.73 46.7618 119.343C46.7217 119.276 46.6817 119.208 46.6416 119.136C46.5535 118.985 46.4653 118.833 46.3732 118.682C46.1568 118.311 45.9324 117.932 45.7081 117.553C45.5798 117.334 45.4476 117.115 45.3194 116.892C45.099 116.517 44.8747 116.138 44.6503 115.759C44.5221 115.54 44.3899 115.321 44.2617 115.101C44.2016 114.998 44.1415 114.898 44.0814 114.798C43.9171 114.523 43.7528 114.244 43.5885 113.969C43.5324 113.873 43.4763 113.782 43.4203 113.69C43.3481 113.563 43.272 113.439 43.1959 113.311C43.1919 113.303 43.1879 113.299 43.1839 113.291C43.0757 113.116 42.9675 112.937 42.8673 112.765C42.7872 112.634 42.7071 112.498 42.6269 112.37C42.5909 112.307 42.5508 112.243 42.5148 112.183C42.4466 112.071 42.3785 111.96 42.3144 111.844C42.2583 111.752 42.1982 111.661 42.1421 111.565C42.1341 111.553 42.1261 111.541 42.1181 111.529C42.1061 111.505 42.09 111.481 42.078 111.457C41.9698 111.282 41.8657 111.107 41.7575 110.935C41.6774 110.808 41.6052 110.676 41.5251 110.552C41.4971 110.501 41.465 110.453 41.433 110.405C41.2967 110.182 41.1645 109.966 41.0323 109.755C40.7919 109.36 40.5555 108.986 40.3351 108.635C40.1949 108.407 40.0587 108.192 39.9265 107.985C39.666 107.57 39.4256 107.195 39.2093 106.873C39.1932 106.845 39.1732 106.821 39.1572 106.793L38.8086 106.833L38.6243 106.849L37.4303 106.988L36.9375 107.044L36.8534 107.056L36.4046 107.108L34.0567 108.188L33.9245 108.312L33.608 108.603L33.3796 108.814L32.3098 109.803L32.2938 109.823L32.0374 110.058L32.0454 110.078C32.0454 110.082 32.0494 110.086 32.0494 110.094C32.0894 110.218 32.2257 110.664 32.442 111.35C32.5101 111.569 32.5903 111.816 32.6704 112.083C32.7906 112.458 32.9228 112.881 33.0671 113.331C33.1232 113.511 33.1833 113.694 33.2393 113.877C33.2594 113.937 33.2794 113.997 33.2954 114.061C33.3475 114.224 33.4036 114.392 33.4557 114.563C33.5078 114.715 33.5559 114.866 33.604 115.022C33.632 115.117 33.6641 115.213 33.6961 115.313C33.7282 115.416 33.7602 115.52 33.7963 115.62C33.8403 115.759 33.8844 115.899 33.9285 116.042C33.9325 116.05 33.9325 116.054 33.9365 116.062C34.0006 116.258 34.0647 116.461 34.1288 116.66L34.1328 116.664C34.1769 116.808 34.225 116.951 34.2731 117.095C34.2931 117.159 34.3131 117.222 34.3332 117.282C34.3772 117.422 34.4253 117.561 34.4694 117.705C34.5055 117.805 34.5375 117.908 34.5736 118.012C34.5856 118.048 34.5976 118.088 34.6096 118.128C34.7298 118.498 34.854 118.877 34.9822 119.256C35.0624 119.495 35.1425 119.738 35.2226 119.981C35.3589 120.392 35.4991 120.811 35.6353 121.221C35.7155 121.465 35.7996 121.708 35.8797 121.951C36.02 122.366 36.1602 122.776 36.3004 123.183C36.3846 123.43 36.4687 123.673 36.5529 123.912C36.6971 124.331 36.8413 124.742 36.9816 125.14C37.0697 125.388 37.1538 125.631 37.242 125.866C37.3942 126.293 37.5465 126.703 37.6907 127.09C37.7829 127.341 37.875 127.58 37.9632 127.812C38.1315 128.254 38.2957 128.661 38.444 129.028C38.5522 129.291 38.6563 129.53 38.7525 129.741C38.7645 129.765 38.7725 129.785 38.7846 129.809C38.8487 129.953 38.9048 130.072 38.9608 130.184Z" fill="#D83E3A"/>
<path d="M32.0373 110.054C30.9555 111.055 30.1141 117.876 30.1141 117.876C30.1141 117.876 32.9589 119.108 35.1144 119.304L35.0904 116.652L32.0373 110.054Z" fill="#D83E3A"/>
<path d="M28.3952 102.04C28.2269 101.741 28.0787 101.418 28.0466 101.079C28.0146 100.737 28.1188 100.374 28.3752 100.158C28.1989 100.103 28.0707 99.9153 28.0827 99.7319C28.0947 99.5485 28.239 99.3811 28.4233 99.3531C29.1805 97.5391 30.9274 96.1995 32.8667 95.9444C33.1271 95.9085 33.3995 95.8965 33.656 95.9723C33.9124 96.048 34.1488 96.2354 34.2289 96.4906C34.7338 96.1636 35.475 96.2593 35.8957 96.7098C36.3164 97.1604 36.3725 97.9099 36.0199 98.4043C36.2683 98.5478 36.4045 98.8468 36.4246 99.1339C36.4446 99.4209 36.3645 99.704 36.2723 99.9751C35.7875 101.406 34.9421 102.702 33.8483 103.727C33.5718 103.986 33.2793 104.229 32.9748 104.452C32.8226 104.56 32.6703 104.668 32.5141 104.767C32.3979 104.839 32.2015 105.019 32.0653 105.03C31.9171 105.042 31.6687 104.895 31.5324 104.839C31.3601 104.767 31.1919 104.688 31.0236 104.6C30.687 104.42 30.3665 104.213 30.066 103.978C29.3889 103.448 28.8159 102.79 28.3952 102.04Z" fill="black"/>
<path d="M37.1337 101.598C37.4382 102.598 37.3501 103.34 37.0536 103.97C36.8733 104.357 36.685 104.652 36.5247 104.915C36.128 105.585 35.9277 106.063 36.5447 107.391C36.6088 108.559 35.1544 109.392 34.1448 108.495C33.3514 106.729 32.2496 105.473 31.6887 104.899C31.5164 104.723 31.3922 104.612 31.3441 104.568C31.3281 104.552 31.3201 104.548 31.3201 104.548C31.3201 104.548 31.1958 104.261 31.0236 103.838C31.0035 103.787 30.9795 103.731 30.9595 103.679C30.5588 102.678 29.9778 101.091 30.0219 100.418C30.1902 97.9458 34.313 96.8653 35.3387 98.3006C36.3124 99.6641 36.8733 100.729 37.1337 101.598Z" fill="#FEA384"/>
<path d="M35.4309 97.9697C35.3307 98.2328 35.1103 98.4282 34.89 98.5996C33.8482 99.405 32.5581 99.8914 31.2399 99.9751C31.3721 100.055 31.4362 100.226 31.4002 100.374C31.3601 100.521 31.2199 100.637 31.0636 100.645C31.3641 101.024 31.5564 101.562 31.5564 102.04C31.5564 102.519 31.3841 102.997 31.0836 103.372C30.9875 103.488 30.8713 103.603 30.719 103.619C30.4746 103.647 30.2863 103.42 30.1501 103.216C29.6533 102.479 29.1404 101.685 29.1164 100.8C29.0923 99.9273 29.5611 99.086 30.2302 98.5199C30.8993 97.9498 31.7447 97.6268 32.5981 97.4315C33.099 97.3159 33.6158 97.2441 34.1247 97.3039C34.6335 97.3637 35.0783 97.5989 35.4309 97.9697Z" fill="black"/>
<path d="M35.0463 100.645C35.2546 100.29 35.6593 100.119 36.064 100.234C36.1401 100.254 36.1922 100.346 36.1801 100.426C36.1681 100.505 36.092 100.553 36.0159 100.533C35.8516 100.485 35.6753 100.509 35.5351 100.589C35.463 100.629 35.3989 100.681 35.3468 100.749C35.2987 100.808 35.2666 100.884 35.1785 100.88C35.1585 100.88 35.1384 100.872 35.1184 100.86C35.0543 100.816 35.0062 100.713 35.0463 100.645Z" fill="black"/>
<path d="M34.0927 101.083C33.644 101.032 33.1912 101.255 32.9749 101.658C32.9348 101.733 32.9669 101.833 33.043 101.869C33.1191 101.909 33.2153 101.877 33.2553 101.801C33.3435 101.638 33.4957 101.514 33.672 101.446C33.7602 101.414 33.8523 101.394 33.9485 101.39C34.0326 101.386 34.1248 101.406 34.1849 101.335C34.2009 101.319 34.2089 101.295 34.2129 101.275C34.233 101.195 34.1809 101.091 34.0927 101.083Z" fill="black"/>
<path d="M35.6914 103.185C35.8236 103.125 35.9518 103.029 36.052 102.897C36.1 102.838 36.088 102.75 36.0279 102.702C35.9678 102.654 35.8797 102.666 35.8316 102.726C35.5872 103.045 35.1465 103.037 34.9782 102.941C34.9101 102.905 34.8259 102.929 34.7859 102.997C34.7498 103.065 34.7738 103.149 34.8419 103.189C35.0343 103.296 35.3828 103.324 35.6914 103.185Z" fill="#C16B5B"/>
<path d="M35.6553 102.319C35.6673 102.311 35.6793 102.299 35.6753 102.283C35.6393 102.048 35.5351 102.008 35.455 102.02C35.3748 102.032 35.2947 102.088 35.2266 102.192C35.2146 102.208 35.2186 102.228 35.2346 102.24C35.2506 102.252 35.2747 102.244 35.2827 102.232C35.3388 102.144 35.3989 102.1 35.459 102.092C35.5311 102.084 35.5792 102.152 35.5992 102.295C35.6032 102.315 35.6192 102.327 35.6393 102.323C35.6473 102.323 35.6513 102.323 35.6553 102.319Z" fill="#C16B5B"/>
<path d="M33.7762 102.268C33.8363 102.395 33.9886 102.451 34.1168 102.391C34.245 102.331 34.3011 102.18 34.241 102.052C34.1809 101.925 34.0286 101.869 33.9004 101.929C33.7722 101.988 33.7161 102.14 33.7762 102.268Z" fill="black"/>
<path d="M33.9805 102.1C34.0006 102.148 34.0567 102.168 34.1047 102.144C34.1528 102.124 34.1729 102.068 34.1488 102.02C34.1288 101.973 34.0727 101.953 34.0246 101.977C33.9765 101.996 33.9565 102.052 33.9805 102.1Z" fill="white"/>
<path d="M35.5792 101.438C35.6393 101.566 35.7915 101.622 35.9198 101.562C36.048 101.502 36.1041 101.351 36.044 101.223C35.9839 101.095 35.8316 101.04 35.7034 101.099C35.5752 101.159 35.5191 101.311 35.5792 101.438Z" fill="black"/>
<path d="M35.7835 101.271C35.8035 101.319 35.8596 101.339 35.9077 101.315C35.9558 101.295 35.9758 101.239 35.9518 101.191C35.9317 101.143 35.8757 101.123 35.8276 101.147C35.7795 101.167 35.7595 101.223 35.7835 101.271Z" fill="white"/>
<path d="M30.5148 105.003C31.0196 105.242 31.5846 105.106 31.7769 104.708C31.9652 104.309 31.7088 103.791 31.2039 103.551C30.6991 103.312 30.1342 103.448 29.9418 103.846C29.7495 104.245 30.01 104.763 30.5148 105.003Z" fill="#FEA384"/>
<path d="M30.2423 103.938C30.3465 103.803 30.5348 103.719 30.7432 103.719C30.8473 103.719 30.9315 103.739 30.9996 103.779C31.0917 103.83 31.1518 103.922 31.1598 104.018C31.1638 104.102 31.1278 104.177 31.0997 104.241C31.0757 104.289 31.0557 104.333 31.0517 104.373C31.0436 104.436 31.0877 104.508 31.1478 104.532C31.2079 104.556 31.2881 104.54 31.3281 104.488C31.3522 104.46 31.3962 104.456 31.4283 104.48C31.4563 104.504 31.4603 104.548 31.4363 104.58C31.4083 104.612 31.3762 104.636 31.3361 104.656C31.26 104.692 31.1719 104.696 31.0917 104.664C30.9755 104.616 30.8994 104.488 30.9114 104.361C30.9194 104.293 30.9475 104.233 30.9755 104.177C31.0036 104.125 31.0276 104.074 31.0236 104.026C31.0196 103.978 30.9835 103.93 30.9355 103.898C30.9154 103.886 30.8914 103.878 30.8633 103.87C30.7992 103.898 30.7311 103.954 30.7111 104.018C30.6871 104.09 30.6991 104.169 30.7432 104.229C30.7632 104.261 30.7552 104.305 30.7231 104.325C30.7191 104.329 30.7151 104.329 30.7111 104.329C30.679 104.345 30.643 104.333 30.623 104.305C30.5588 104.209 30.5388 104.086 30.5749 103.974C30.5869 103.934 30.6109 103.898 30.639 103.866C30.5188 103.886 30.4186 103.938 30.3585 104.018C30.2824 104.117 30.2704 104.285 30.3745 104.373C30.4026 104.397 30.4066 104.44 30.3826 104.472C30.3585 104.5 30.3144 104.504 30.2824 104.48C30.1301 104.357 30.1141 104.11 30.2423 103.938Z" fill="#C16B5B"/>
<path d="M33.7842 108.431L33.7161 107.634L35.7595 108.71L35.2466 110.178L33.7842 108.431Z" fill="#AD2727"/>
<path d="M36.8252 107.036L36.2602 106.466L35.7594 108.71L37.2138 109.277L36.8252 107.036Z" fill="#AD2727"/>
<path d="M81.1431 55.4721L79.7837 51.8702L62.9228 58.1712L64.2822 61.7731L81.1431 55.4721Z" fill="#821919"/>
<path d="M119.923 38.924C115.572 27.3939 102.606 21.5411 91.0232 25.8709C79.4359 30.2007 73.5542 43.0982 77.9054 54.6243C82.2566 66.1504 95.2181 72.0071 106.801 67.6774C118.385 63.3516 124.274 50.45 119.923 38.924ZM81.4473 53.3007C77.8293 43.7162 82.7214 32.9994 92.3494 29.3993C101.977 25.7991 112.755 30.6631 116.373 40.2476C119.991 49.8321 115.095 60.5528 105.463 64.153C95.8352 67.7491 85.0653 62.8851 81.4473 53.3007Z" fill="#385D93"/>
<path d="M118.284 39.5339C114.274 28.9049 102.318 23.5027 91.6321 27.4935C80.9504 31.4844 75.5254 43.3853 79.536 54.0143C83.5507 64.6473 95.5025 70.0456 106.184 66.0547C116.874 62.0638 122.299 50.167 118.284 39.5339ZM81.4472 53.3006C77.8292 43.7162 82.7213 32.9994 92.3493 29.3993C101.977 25.7991 112.755 30.6631 116.373 40.2476C119.991 49.8321 115.095 60.5528 105.463 64.1529C95.8351 67.7491 85.0652 62.8851 81.4472 53.3006Z" fill="#3B86C6"/>
<path opacity="0.3" d="M112.098 59.902C119.383 52.6528 119.383 40.8995 112.098 33.6503C104.812 26.4011 93.0009 26.4011 85.7157 33.6503C78.4306 40.8995 78.4306 52.6528 85.7157 59.902C93.0009 67.1512 104.812 67.1512 112.098 59.902Z" fill="#385D93"/>
<path d="M38.1433 69.4834C37.4141 67.5538 38.3957 65.4048 40.335 64.6832L67.2677 54.6203L69.9041 61.6013L42.9713 71.6642C41.0321 72.3898 38.8725 71.4131 38.1433 69.4834Z" fill="#D83E3A"/>
<path d="M69.2069 59.7594L42.2742 69.8223C40.6555 70.4283 38.8886 69.8422 37.923 68.5146C37.955 68.8375 38.0231 69.1645 38.1433 69.4834C38.8725 71.4131 41.0321 72.3859 42.9673 71.6642L69.9001 61.6013L69.2069 59.7594Z" fill="#D83E3A"/>
<path opacity="0.3" d="M104.97 31.0937C99.2809 29.3235 93.3551 30.2206 88.8396 34.2553C86.1511 36.6594 89.4526 41.2643 92.1811 38.8283C95.0779 36.2408 98.7961 35.0447 102.626 36.2368C106.068 37.3172 108.456 32.1821 104.97 31.0937Z" fill="white"/>
<path d="M106.144 49.9118C106.144 49.9118 106.277 49.9158 106.493 49.9118C106.277 49.9078 106.144 49.9118 106.144 49.9118Z" fill="white"/>
<path d="M110.568 54.3133C110.568 54.3133 110.572 54.1818 110.568 53.9665C110.564 54.1818 110.568 54.3133 110.568 54.3133Z" fill="white"/>
<path d="M110.568 45.8571C110.56 46.6864 110.483 48.7516 109.943 49.2898C109.402 49.8281 107.326 49.9038 106.493 49.9118C107.326 49.9198 109.402 49.9955 109.943 50.5337C110.483 51.072 110.56 53.1372 110.568 53.9664C110.576 53.1372 110.652 51.072 111.193 50.5337C111.734 49.9955 113.809 49.9198 114.642 49.9118C113.809 49.9038 111.734 49.8281 111.193 49.2898C110.652 48.7516 110.576 46.6864 110.568 45.8571Z" fill="white"/>
<path d="M110.568 45.5063C110.568 45.5063 110.564 45.6379 110.568 45.8531C110.568 45.6418 110.568 45.5063 110.568 45.5063Z" fill="white"/>
<path d="M114.991 49.9118C114.991 49.9118 114.859 49.9078 114.642 49.9118C114.859 49.9118 114.991 49.9118 114.991 49.9118Z" fill="white"/>
<path d="M12.2323 137.942C12.2323 137.942 12.3645 137.946 12.5809 137.942C12.3645 137.942 12.2323 137.942 12.2323 137.942Z" fill="white"/>
<path d="M16.6556 142.344C16.6556 142.344 16.6596 142.212 16.6556 141.997C16.6556 142.212 16.6556 142.344 16.6556 142.344Z" fill="white"/>
<path d="M16.6557 133.888C16.6477 134.717 16.5716 136.782 16.0307 137.32C15.4898 137.858 13.4143 137.934 12.5809 137.942C13.4143 137.95 15.4898 138.026 16.0307 138.564C16.5716 139.102 16.6477 141.168 16.6557 141.997C16.6637 141.168 16.7398 139.102 17.2807 138.564C17.8216 138.026 19.8971 137.95 20.7305 137.942C19.8971 137.934 17.8216 137.858 17.2807 137.32C16.7438 136.782 16.6637 134.717 16.6557 133.888Z" fill="white"/>
<path d="M16.6556 133.541C16.6556 133.541 16.6516 133.672 16.6556 133.887C16.6596 133.672 16.6556 133.541 16.6556 133.541Z" fill="white"/>
<path d="M21.083 137.942C21.083 137.942 20.9507 137.938 20.7344 137.942C20.9467 137.946 21.083 137.942 21.083 137.942Z" fill="white"/>
<path d="M29.3286 48.3529C29.3286 48.3529 29.4608 48.357 29.6772 48.3529C29.4648 48.3529 29.3286 48.3529 29.3286 48.3529Z" fill="white"/>
<path d="M33.7559 52.7584C33.7559 52.7584 33.7599 52.6269 33.7559 52.4116C33.7519 52.6229 33.7559 52.7584 33.7559 52.7584Z" fill="white"/>
<path d="M33.7559 44.2983C33.7479 45.1276 33.6718 47.1928 33.1309 47.731C32.59 48.2692 30.5145 48.345 29.6812 48.3529C30.5145 48.3609 32.59 48.4367 33.1309 48.9749C33.6718 49.5131 33.7479 51.5783 33.7559 52.4076C33.7639 51.5783 33.8401 49.5131 34.381 48.9749C34.9219 48.4367 36.9973 48.3609 37.8307 48.3529C36.9973 48.345 34.9219 48.2692 34.381 47.731C33.8401 47.1928 33.7639 45.1276 33.7559 44.2983Z" fill="white"/>
<path d="M33.7559 43.9514C33.7559 43.9514 33.7519 44.083 33.7559 44.2983C33.7559 44.083 33.7559 43.9514 33.7559 43.9514Z" fill="white"/>
<path d="M38.1793 48.353C38.1793 48.353 38.047 48.3489 37.8307 48.353C38.047 48.357 38.1793 48.353 38.1793 48.353Z" fill="white"/>
<path d="M75.8259 22.5339C75.8259 22.5339 75.9582 22.5379 76.1745 22.5339C75.9582 22.5299 75.8259 22.5339 75.8259 22.5339Z" fill="white"/>
<path d="M80.2493 26.9354C80.2493 26.9354 80.2533 26.8038 80.2493 26.5885C80.2493 26.8038 80.2493 26.9354 80.2493 26.9354Z" fill="white"/>
<path d="M80.2493 18.4792C80.2413 19.3085 80.1652 21.3737 79.6243 21.9119C79.0834 22.4502 77.0079 22.5259 76.1746 22.5339C77.0079 22.5419 79.0834 22.6176 79.6243 23.1558C80.1652 23.6941 80.2413 25.7593 80.2493 26.5885C80.2573 25.7593 80.3335 23.6941 80.8744 23.1558C81.4153 22.6176 83.4907 22.5419 84.3241 22.5339C83.4907 22.5259 81.4153 22.4502 80.8744 21.9119C80.3335 21.3737 80.2573 19.3085 80.2493 18.4792Z" fill="white"/>
<path d="M80.2493 18.1324C80.2493 18.1324 80.2453 18.2639 80.2493 18.4792C80.2533 18.2639 80.2493 18.1324 80.2493 18.1324Z" fill="white"/>
<path d="M84.6727 22.5339C84.6727 22.5339 84.5405 22.5299 84.3241 22.5339C84.5405 22.5339 84.6727 22.5339 84.6727 22.5339Z" fill="white"/>
<path d="M141.828 129.127C141.828 129.127 141.96 129.131 142.176 129.127C141.96 129.123 141.828 129.127 141.828 129.127Z" fill="white"/>
<path d="M146.251 133.529C146.251 133.529 146.255 133.397 146.251 133.182C146.251 133.397 146.251 133.529 146.251 133.529Z" fill="white"/>
<path d="M146.251 125.073C146.243 125.902 146.167 127.967 145.626 128.505C145.085 129.043 143.009 129.119 142.176 129.127C143.009 129.135 145.085 129.211 145.626 129.749C146.167 130.287 146.243 132.353 146.251 133.182C146.259 132.353 146.335 130.287 146.876 129.749C147.417 129.211 149.492 129.135 150.326 129.127C149.492 129.119 147.417 129.043 146.876 128.505C146.339 127.967 146.263 125.902 146.251 125.073Z" fill="white"/>
<path d="M146.251 124.726C146.251 124.726 146.247 124.857 146.251 125.073C146.255 124.857 146.251 124.726 146.251 124.726Z" fill="white"/>
<path d="M150.678 129.127C150.678 129.127 150.546 129.123 150.33 129.127C150.542 129.127 150.678 129.127 150.678 129.127Z" fill="white"/>
<path d="M81.2629 85.6263C81.2629 85.6263 81.3952 85.6304 81.6115 85.6263C81.3952 85.6223 81.2629 85.6263 81.2629 85.6263Z" fill="white"/>
<path d="M85.6863 90.0278C85.6863 90.0278 85.6902 89.8963 85.6863 89.681C85.6863 89.8963 85.6863 90.0278 85.6863 90.0278Z" fill="white"/>
<path d="M85.6862 81.5717C85.6782 82.4009 85.6021 84.4661 85.0612 85.0044C84.5203 85.5426 82.4448 85.6183 81.6115 85.6263C82.4448 85.6343 84.5203 85.71 85.0612 86.2483C85.6021 86.7865 85.6782 88.8517 85.6862 89.681C85.6942 88.8517 85.7704 86.7865 86.3113 86.2483C86.8522 85.71 88.9276 85.6343 89.761 85.6263C88.9276 85.6183 86.8522 85.5426 86.3113 85.0044C85.7704 84.4661 85.6942 82.4009 85.6862 81.5717Z" fill="white"/>
<path d="M85.6862 81.2208C85.6862 81.2208 85.6822 81.3524 85.6862 81.5676C85.6902 81.3563 85.6862 81.2208 85.6862 81.2208Z" fill="white"/>
<path d="M90.1097 85.6263C90.1097 85.6263 89.9775 85.6223 89.7611 85.6263C89.9775 85.6263 90.1097 85.6263 90.1097 85.6263Z" fill="white"/>
<path d="M114.642 56.4064C114.638 56.857 114.594 57.9733 114.302 58.2643C114.009 58.5554 112.883 58.5952 112.435 58.6032C112.887 58.6072 114.009 58.6511 114.302 58.9421C114.594 59.2331 114.634 60.3535 114.642 60.8C114.646 60.3495 114.69 59.2331 114.983 58.9421C115.275 58.6511 116.401 58.6112 116.85 58.6032C116.397 58.5992 115.275 58.5554 114.983 58.2643C114.686 57.9773 114.646 56.857 114.642 56.4064Z" fill="white"/>
<path d="M117.038 58.6032C117.038 58.6032 116.966 58.6032 116.85 58.6032C116.966 58.6072 117.038 58.6032 117.038 58.6032Z" fill="white"/>
<path d="M8.91079 94.4214C8.90679 94.8719 8.86271 95.9882 8.57023 96.2793C8.27774 96.5703 7.15187 96.6102 6.70312 96.6181C7.15588 96.6221 8.27774 96.666 8.57023 96.957C8.86271 97.2481 8.90278 98.3684 8.91079 98.8149C8.9148 98.3644 8.95887 97.2481 9.25136 96.957C9.54384 96.666 10.6697 96.6261 11.1185 96.6181C10.6657 96.6141 9.54384 96.5703 9.25136 96.2793C8.95887 95.9882 8.9148 94.8719 8.91079 94.4214Z" fill="white"/>
<path d="M8.91077 94.234C8.91077 94.234 8.91077 94.3057 8.91077 94.4213C8.91477 94.3057 8.91077 94.234 8.91077 94.234Z" fill="white"/>
<path d="M155.39 82.2375C155.39 82.2375 155.462 82.2375 155.578 82.2375C155.462 82.2335 155.39 82.2375 155.39 82.2375Z" fill="white"/>
<path d="M157.786 80.0407C157.782 80.4912 157.738 81.6075 157.445 81.8986C157.153 82.1896 156.027 82.2295 155.578 82.2375C156.031 82.2414 157.153 82.2853 157.445 82.5763C157.738 82.8674 157.778 83.9877 157.786 84.4342C157.79 83.9837 157.834 82.8674 158.127 82.5763C158.419 82.2853 159.545 82.2454 159.994 82.2375C159.541 82.2335 158.419 82.1896 158.127 81.8986C157.834 81.6075 157.794 80.4872 157.786 80.0407Z" fill="white"/>
<path d="M157.786 79.8493C157.786 79.8493 157.786 79.9211 157.786 80.0367C157.79 79.9211 157.786 79.8493 157.786 79.8493Z" fill="white"/>
<path d="M126.602 28.6179C126.598 29.0684 126.554 30.1847 126.262 30.4757C125.969 30.7668 124.843 30.8067 124.395 30.8146C124.847 30.8186 125.969 30.8625 126.262 31.1535C126.554 31.4446 126.594 32.5649 126.602 33.0114C126.606 32.5609 126.65 31.4446 126.943 31.1535C127.235 30.8625 128.361 30.8226 128.81 30.8146C128.357 30.8106 127.235 30.7668 126.943 30.4757C126.65 30.1887 126.61 29.0684 126.602 28.6179Z" fill="white"/>
<path d="M126.602 28.4305C126.602 28.4305 126.602 28.5022 126.602 28.6179C126.606 28.5022 126.602 28.4305 126.602 28.4305Z" fill="white"/>
<path d="M129.002 30.8146C129.002 30.8146 128.93 30.8146 128.814 30.8146C128.93 30.8186 129.002 30.8146 129.002 30.8146Z" fill="white"/>
<path d="M107.919 150.872C107.919 150.872 107.919 150.8 107.919 150.684C107.915 150.8 107.919 150.872 107.919 150.872Z" fill="white"/>
<path d="M107.919 146.287C107.915 146.737 107.871 147.854 107.579 148.145C107.286 148.436 106.16 148.476 105.712 148.484C106.164 148.487 107.286 148.531 107.579 148.822C107.871 149.113 107.911 150.234 107.919 150.68C107.923 150.23 107.967 149.113 108.26 148.822C108.552 148.531 109.678 148.491 110.127 148.484C109.674 148.48 108.552 148.436 108.26 148.145C107.963 147.858 107.923 146.737 107.919 146.287Z" fill="white"/>
<path d="M110.315 148.484C110.315 148.484 110.243 148.484 110.127 148.484C110.243 148.488 110.315 148.484 110.315 148.484Z" fill="white"/>
<path d="M20.45 85.5466C20.45 85.5466 20.5221 85.5466 20.6383 85.5466C20.5261 85.5426 20.45 85.5466 20.45 85.5466Z" fill="white"/>
<path d="M22.8499 87.9307C22.8499 87.9307 22.8499 87.859 22.8499 87.7433C22.8459 87.859 22.8499 87.9307 22.8499 87.9307Z" fill="white"/>
<path d="M22.8499 83.3498C22.8459 83.8003 22.8018 84.9166 22.5093 85.2077C22.2168 85.4987 21.091 85.5386 20.6422 85.5466C21.095 85.5506 22.2168 85.5944 22.5093 85.8855C22.8018 86.1765 22.8419 87.2968 22.8499 87.7433C22.8539 87.2928 22.898 86.1765 23.1904 85.8855C23.4829 85.5944 24.6088 85.5545 25.0575 85.5466C24.6048 85.5426 23.4829 85.4987 23.1904 85.2077C22.8939 84.9166 22.8539 83.7963 22.8499 83.3498Z" fill="white"/>
<path d="M25.0576 127.086C25.0536 127.536 25.0096 128.653 24.7171 128.944C24.4246 129.235 23.2987 129.275 22.85 129.283C23.3027 129.287 24.4246 129.33 24.7171 129.622C25.0096 129.913 25.0496 131.033 25.0576 131.479C25.0616 131.029 25.1057 129.913 25.3982 129.622C25.6907 129.33 26.8166 129.291 27.2653 129.283C26.8126 129.279 25.6907 129.235 25.3982 128.944C25.1017 128.653 25.0616 127.536 25.0576 127.086Z" fill="white"/>
</g>
<defs>
<clipPath id="clip0_7_729">
<rect width="171" height="169" fill="white"/>
</clipPath>
</defs>
</svg>
