<svg width="187" height="179" viewBox="0 0 187 179" fill="none" xmlns="http://www.w3.org/2000/svg">
<path d="M71.6964 0.0170154C63.4595 0.15312 55.2226 1.30151 47.1898 3.53874C23.8646 10.0378 9.63492 36.893 4.88318 59.2142C-0.990603 86.8351 1.43202 127.02 18.4838 150.456C32.3055 169.451 66.4517 176.971 88.4083 177.923C118.1 179.208 167.734 166.167 181.046 136.284C196.389 101.841 173.217 60.7199 151.065 35.013C131.599 12.4196 101.686 -0.484872 71.6964 0.0170154Z" fill="#F3F7FC"/>
<rect y="67.6483" width="169" height="61" rx="30.5" transform="rotate(-7.35962 0 67.6483)" fill="#235076"/>
<path d="M46.6509 98.4261L50.3472 86.5749L52.3942 86.3106L59.0439 96.8254L56.5368 97.1492L54.7862 94.2133L55.8423 94.7706L49.1936 95.6293L50.0893 94.8199L49.1422 98.1043L46.6509 98.4261ZM51.6989 89.0462L50.2791 94.1662L49.7728 93.6186L54.7712 92.973L54.4842 93.6231L51.7624 89.038L51.6989 89.0462ZM60.2926 100.149L59.0813 90.7707C59.0376 90.4322 58.9826 90.0897 58.9163 89.7434C58.8487 89.3864 58.7712 89.0361 58.6838 88.6925L60.9847 88.3953L61.378 89.9417L61.2035 89.9642C61.2938 89.4148 61.5731 88.9539 62.0412 88.5815C62.508 88.1986 63.0694 87.9647 63.7253 87.88C64.4235 87.7898 65.0589 87.8799 65.6315 88.1501C66.2028 88.4097 66.6769 88.8324 67.0537 89.4183C67.4411 90.0029 67.6908 90.7288 67.8029 91.5963C67.9163 92.4743 67.8599 93.2453 67.6337 93.909C67.4182 94.5714 67.0678 95.1061 66.5825 95.5129C66.0973 95.9197 65.5056 96.1682 64.8074 96.2584C64.1621 96.3418 63.5657 96.2628 63.0183 96.0216C62.4815 95.7791 62.0957 95.4148 61.8608 94.9289L62.0512 94.9043L62.6887 99.8393L60.2926 100.149ZM63.8438 94.5437C64.4045 94.4713 64.8288 94.2175 65.1168 93.7824C65.4048 93.3473 65.4961 92.7224 65.3909 91.9078C65.2857 91.0933 65.0393 90.5174 64.6515 90.1803C64.2638 89.8432 63.7896 89.7109 63.229 89.7833C62.6789 89.8543 62.2539 90.1028 61.9539 90.5287C61.6646 90.9533 61.5726 91.5729 61.6778 92.3874C61.783 93.202 62.0301 93.7831 62.4192 94.1308C62.8189 94.4771 63.2937 94.6148 63.8438 94.5437ZM70.3187 98.8538L69.1074 89.4757C69.0636 89.1372 69.0087 88.7948 68.9424 88.4484C68.8748 88.0915 68.7973 87.7412 68.7099 87.3975L71.0108 87.1003L71.4041 88.6467L71.2295 88.6692C71.3199 88.1198 71.5992 87.6589 72.0673 87.2865C72.5341 86.9036 73.0955 86.6698 73.7513 86.585C74.4495 86.4949 75.085 86.5849 75.6576 86.8551C76.2289 87.1147 76.703 87.5375 77.0798 88.1234C77.4672 88.7079 77.7169 89.4339 77.829 90.3013C77.9424 91.1794 77.886 91.9503 77.6598 92.614C77.4442 93.2765 77.0938 93.8111 76.6086 94.2179C76.1234 94.6248 75.5317 94.8733 74.8335 94.9634C74.1882 95.0468 73.5918 94.9679 73.0444 94.7267C72.5076 94.4841 72.1218 94.1199 71.8869 93.6339L72.0773 93.6093L72.7147 98.5444L70.3187 98.8538ZM73.8699 93.2488C74.4306 93.1763 74.8549 92.9226 75.1429 92.4874C75.4308 92.0523 75.5222 91.4274 75.417 90.6129C75.3118 89.7983 75.0653 89.2225 74.6776 88.8853C74.2899 88.5482 73.8157 88.4159 73.2551 88.4883C72.705 88.5593 72.28 88.8078 71.98 89.2338C71.6907 89.6583 71.5986 90.2779 71.7039 91.0925C71.8091 91.907 72.0562 92.4881 72.4453 92.8358C72.8449 93.1822 73.3198 93.3198 73.8699 93.2488ZM79.902 94.1313L78.3936 82.4523L80.7897 82.1429L82.2981 93.8218L79.902 94.1313ZM84.6424 97.1812L83.8452 95.3805C84.3301 95.2211 84.7336 95.056 85.0557 94.8854C85.3884 94.7133 85.6522 94.5072 85.847 94.2669C86.0432 94.0372 86.1889 93.7495 86.2841 93.4038L86.5598 92.4164L86.6152 93.3449L82.0749 85.6713L84.5979 85.3454L87.651 90.8719L87.1591 90.9354L88.7395 84.8105L91.1197 84.5031L88.566 93.3349C88.3794 93.9721 88.158 94.5062 87.9018 94.9372C87.6575 95.3775 87.3759 95.7365 87.0568 96.0143C86.7378 96.2922 86.3749 96.5219 85.9681 96.7035C85.5719 96.8837 85.13 97.043 84.6424 97.1812ZM97.4593 91.8636L96.6907 85.913C96.647 85.5745 96.592 85.2321 96.5258 84.8857C96.4582 84.5288 96.3807 84.1785 96.2933 83.8348L98.5941 83.5377L98.9614 85.0067L98.7709 85.0313C98.9671 84.4682 99.29 84.0124 99.7398 83.664C100.189 83.3155 100.737 83.0996 101.382 83.0162C102.324 82.8946 103.063 83.0788 103.599 83.5688C104.145 84.0468 104.492 84.8571 104.639 85.9996L105.266 90.8552L102.87 91.1647L102.258 86.4201C102.182 85.8383 102.023 85.4394 101.78 85.2234C101.537 85.0074 101.204 84.9268 100.781 84.9814C100.252 85.0497 99.8509 85.2736 99.5772 85.6532C99.3022 86.0221 99.2009 86.4869 99.2733 87.0476L99.8554 91.5541L97.4593 91.8636ZM111.022 90.2893C110.165 90.4 109.397 90.3271 108.719 90.0705C108.05 89.802 107.5 89.3783 107.07 88.7992C106.651 88.2188 106.386 87.4949 106.274 86.6274C106.163 85.7705 106.237 85.0081 106.495 84.3403C106.763 83.671 107.187 83.1268 107.768 82.7077C108.359 82.2872 109.083 82.0216 109.94 81.9109C110.797 81.8003 111.564 81.8732 112.243 82.1297C112.921 82.3863 113.47 82.8047 113.889 83.3852C114.319 83.9642 114.589 84.6822 114.7 85.5391C114.812 86.4065 114.734 87.1749 114.465 87.8441C114.207 88.512 113.783 89.0615 113.194 89.4926C112.603 89.9131 111.879 90.1787 111.022 90.2893ZM110.788 88.4804C111.338 88.4093 111.747 88.1576 112.014 87.7252C112.291 87.2914 112.377 86.6672 112.272 85.8527C112.167 85.0381 111.925 84.4616 111.548 84.1231C111.182 83.7832 110.723 83.6488 110.173 83.7199C109.623 83.791 109.209 84.0381 108.93 84.4613C108.662 84.8831 108.58 85.5013 108.686 86.3159C108.791 87.1304 109.027 87.7129 109.395 88.0633C109.774 88.4124 110.238 88.5514 110.788 88.4804ZM118.851 89.1007L114.575 81.4736L117.034 81.1559L119.909 86.6732L119.496 86.7265L120.89 80.6579L122.477 80.4529L125.351 85.9702L125.018 86.0132L126.365 79.9508L128.681 79.6516L126.499 88.1128L124.436 88.3792L121.385 82.7397L122.353 82.6146L120.914 88.8342L118.851 89.1007Z" fill="white"/>
<rect y="63.6483" width="169" height="61" rx="30.5" transform="rotate(-7.35962 0 63.6483)" fill="#3B86C6"/>
<path d="M46.6509 94.4261L50.3472 82.5749L52.3942 82.3106L59.0439 92.8254L56.5368 93.1492L54.7862 90.2133L55.8423 90.7706L49.1936 91.6293L50.0893 90.8199L49.1422 94.1043L46.6509 94.4261ZM51.6989 85.0462L50.2791 90.1662L49.7728 89.6186L54.7712 88.973L54.4842 89.6231L51.7624 85.038L51.6989 85.0462ZM60.2926 96.1488L59.0813 86.7707C59.0376 86.4322 58.9826 86.0897 58.9163 85.7434C58.8487 85.3864 58.7712 85.0361 58.6838 84.6925L60.9847 84.3953L61.378 85.9417L61.2035 85.9642C61.2938 85.4148 61.5731 84.9539 62.0412 84.5815C62.508 84.1986 63.0694 83.9647 63.7253 83.88C64.4235 83.7898 65.0589 83.8799 65.6315 84.1501C66.2028 84.4097 66.6769 84.8324 67.0537 85.4183C67.4411 86.0029 67.6908 86.7288 67.8029 87.5963C67.9163 88.4743 67.8599 89.2453 67.6337 89.909C67.4182 90.5714 67.0678 91.1061 66.5825 91.5129C66.0973 91.9197 65.5056 92.1682 64.8074 92.2584C64.1621 92.3418 63.5657 92.2628 63.0183 92.0216C62.4815 91.7791 62.0957 91.4148 61.8608 90.9289L62.0512 90.9043L62.6887 95.8393L60.2926 96.1488ZM63.8438 90.5437C64.4045 90.4713 64.8288 90.2175 65.1168 89.7824C65.4048 89.3473 65.4961 88.7224 65.3909 87.9078C65.2857 87.0933 65.0393 86.5174 64.6515 86.1803C64.2638 85.8432 63.7896 85.7109 63.229 85.7833C62.6789 85.8543 62.2539 86.1028 61.9539 86.5287C61.6646 86.9533 61.5726 87.5729 61.6778 88.3874C61.783 89.202 62.0301 89.7831 62.4192 90.1308C62.8189 90.4771 63.2937 90.6148 63.8438 90.5437ZM70.3187 94.8538L69.1074 85.4757C69.0636 85.1372 69.0087 84.7948 68.9424 84.4484C68.8748 84.0915 68.7973 83.7412 68.7099 83.3975L71.0108 83.1003L71.4041 84.6467L71.2295 84.6692C71.3199 84.1198 71.5992 83.6589 72.0673 83.2865C72.5341 82.9036 73.0955 82.6698 73.7513 82.585C74.4495 82.4949 75.085 82.5849 75.6576 82.8551C76.2289 83.1147 76.703 83.5375 77.0798 84.1234C77.4672 84.7079 77.7169 85.4339 77.829 86.3013C77.9424 87.1794 77.886 87.9503 77.6598 88.614C77.4442 89.2765 77.0938 89.8111 76.6086 90.2179C76.1234 90.6248 75.5317 90.8733 74.8335 90.9634C74.1882 91.0468 73.5918 90.9679 73.0444 90.7267C72.5076 90.4841 72.1218 90.1199 71.8869 89.6339L72.0773 89.6093L72.7147 94.5444L70.3187 94.8538ZM73.8699 89.2488C74.4306 89.1763 74.8549 88.9226 75.1429 88.4874C75.4308 88.0523 75.5222 87.4274 75.417 86.6129C75.3118 85.7983 75.0653 85.2225 74.6776 84.8853C74.2899 84.5482 73.8157 84.4159 73.2551 84.4883C72.705 84.5593 72.28 84.8078 71.98 85.2338C71.6907 85.6583 71.5986 86.2779 71.7039 87.0925C71.8091 87.907 72.0562 88.4881 72.4453 88.8358C72.8449 89.1822 73.3198 89.3198 73.8699 89.2488ZM79.902 90.1313L78.3936 78.4523L80.7897 78.1429L82.2981 89.8218L79.902 90.1313ZM84.6424 93.1812L83.8452 91.3805C84.3301 91.2211 84.7336 91.056 85.0557 90.8854C85.3884 90.7133 85.6522 90.5072 85.847 90.2669C86.0432 90.0372 86.1889 89.7495 86.2841 89.4038L86.5598 88.4164L86.6152 89.3449L82.0749 81.6713L84.5979 81.3454L87.651 86.8719L87.1591 86.9354L88.7395 80.8105L91.1197 80.5031L88.566 89.3349C88.3794 89.9721 88.158 90.5062 87.9018 90.9372C87.6575 91.3775 87.3759 91.7365 87.0568 92.0143C86.7378 92.2922 86.3749 92.5219 85.9681 92.7035C85.5719 92.8837 85.13 93.043 84.6424 93.1812ZM97.4593 87.8636L96.6907 81.913C96.647 81.5745 96.592 81.2321 96.5258 80.8857C96.4582 80.5288 96.3807 80.1785 96.2933 79.8348L98.5941 79.5377L98.9614 81.0067L98.7709 81.0313C98.9671 80.4682 99.29 80.0124 99.7398 79.664C100.189 79.3155 100.737 79.0996 101.382 79.0162C102.324 78.8946 103.063 79.0788 103.599 79.5688C104.145 80.0468 104.492 80.8571 104.639 81.9996L105.266 86.8552L102.87 87.1647L102.258 82.4201C102.182 81.8383 102.023 81.4394 101.78 81.2234C101.537 81.0074 101.204 80.9268 100.781 80.9814C100.252 81.0497 99.8509 81.2736 99.5772 81.6532C99.3022 82.0221 99.2009 82.4869 99.2733 83.0476L99.8554 87.5541L97.4593 87.8636ZM111.022 86.2893C110.165 86.4 109.397 86.3271 108.719 86.0705C108.05 85.802 107.5 85.3783 107.07 84.7992C106.651 84.2188 106.386 83.4949 106.274 82.6274C106.163 81.7705 106.237 81.0081 106.495 80.3403C106.763 79.671 107.187 79.1268 107.768 78.7077C108.359 78.2872 109.083 78.0216 109.94 77.9109C110.797 77.8003 111.564 77.8732 112.243 78.1297C112.921 78.3863 113.47 78.8047 113.889 79.3852C114.319 79.9642 114.589 80.6822 114.7 81.5391C114.812 82.4065 114.734 83.1749 114.465 83.8441C114.207 84.512 113.783 85.0615 113.194 85.4926C112.603 85.9131 111.879 86.1787 111.022 86.2893ZM110.788 84.4804C111.338 84.4093 111.747 84.1576 112.014 83.7252C112.291 83.2914 112.377 82.6672 112.272 81.8527C112.167 81.0381 111.925 80.4616 111.548 80.1231C111.182 79.7832 110.723 79.6488 110.173 79.7199C109.623 79.791 109.209 80.0381 108.93 80.4613C108.662 80.8831 108.58 81.5013 108.686 82.3159C108.791 83.1304 109.027 83.7129 109.395 84.0633C109.774 84.4124 110.238 84.5514 110.788 84.4804ZM118.851 85.1007L114.575 77.4736L117.034 77.1559L119.909 82.6732L119.496 82.7265L120.89 76.6579L122.477 76.4529L125.351 81.9702L125.018 82.0132L126.365 75.9508L128.681 75.6516L126.499 84.1128L124.436 84.3792L121.385 78.7397L122.353 78.6146L120.914 84.8342L118.851 85.1007Z" fill="white"/>
</svg>
