<svg width="184" height="178" viewBox="0 0 184 178" fill="none" xmlns="http://www.w3.org/2000/svg">
<g clip-path="url(#clip0_7_373)">
<path d="M69.695 0.0170154C61.4581 0.15312 53.2212 1.30151 45.1883 3.53874C21.8631 10.0378 7.63345 36.893 2.88172 59.2142C-2.99207 86.8351 -0.569449 127.02 16.4824 150.456C30.3041 169.451 64.4502 176.971 86.4068 177.923C116.099 179.208 165.733 166.167 179.044 136.284C194.388 101.841 171.215 60.7199 149.063 35.013C129.597 12.4196 99.6844 -0.484872 69.695 0.0170154Z" fill="#F3F7FC"/>
<path d="M150.049 147.257H29.7005C26.4874 147.257 23.9967 144.654 24.1498 141.456H155.6C155.753 144.654 153.263 147.257 150.049 147.257Z" fill="#3B86C6"/>
<path d="M27.8305 144.671H151.903C154.24 144.671 155.889 143.225 155.583 141.456L146.471 89.1574H33.2537L24.1413 141.456C23.8438 143.225 25.4843 144.671 27.8305 144.671Z" fill="white"/>
<path d="M74.8972 142.374H104.836C105.609 142.374 106.221 141.898 106.196 141.311L105.507 125.387C105.482 124.851 104.87 124.417 104.13 124.417H75.6027C74.8632 124.417 74.2427 124.851 74.2257 125.387L73.5371 141.311C73.5116 141.898 74.1237 142.374 74.8972 142.374Z" fill="#CFE3FD"/>
<path d="M36.5689 93.2916H40.9806C41.3292 93.2916 41.5757 93.4787 41.5417 93.7084L41.4227 94.542C41.3887 94.7717 41.0826 94.9589 40.7341 94.9589H36.2969C35.9484 94.9589 35.7019 94.7717 35.7359 94.542L35.8719 93.7084C35.9144 93.4702 36.2289 93.2916 36.5689 93.2916ZM42.6977 93.6999L42.5787 94.5335C42.5447 94.7632 42.7997 94.9504 43.1482 94.9504H47.5855C47.934 94.9504 48.2315 94.7632 48.2655 94.5335L48.3675 93.6999C48.393 93.4702 48.138 93.2831 47.798 93.2831H43.3863C43.0377 93.2916 42.7317 93.4702 42.6977 93.6999ZM49.5236 93.6999L49.4215 94.5335C49.396 94.7632 49.6511 94.9504 49.9996 94.9504H54.4368C54.7853 94.9504 55.0828 94.7632 55.1083 94.5335L55.1933 93.6999C55.2188 93.4702 54.9553 93.2831 54.6153 93.2831H50.2036C49.8466 93.2916 49.5491 93.4702 49.5236 93.6999ZM56.3409 93.6999L56.2559 94.5335C56.2304 94.7632 56.4939 94.9504 56.8424 94.9504H61.2796C61.6281 94.9504 61.9257 94.7632 61.9427 94.5335L62.0107 93.6999C62.0277 93.4702 61.7642 93.2831 61.4241 93.2831H57.0124C56.6639 93.2916 56.3664 93.4702 56.3409 93.6999ZM63.1582 93.6999L63.0902 94.5335C63.0732 94.7632 63.3367 94.9504 63.6852 94.9504H68.1225C68.471 94.9504 68.76 94.7632 68.777 94.5335L68.828 93.6999C68.845 93.4702 68.573 93.2831 68.233 93.2831H63.8213C63.4727 93.2916 63.1752 93.4702 63.1582 93.6999ZM69.9841 93.6999L69.933 94.5335C69.916 94.7632 70.1881 94.9504 70.5366 94.9504H74.9738C75.3223 94.9504 75.6113 94.7632 75.6198 94.5335L75.6538 93.6999C75.6623 93.4702 75.3903 93.2831 75.0503 93.2831H70.6386C70.2816 93.2916 69.9926 93.4702 69.9841 93.6999ZM76.8014 93.6999L76.7674 94.5335C76.7589 94.7632 77.0309 94.9504 77.3794 94.9504H81.8166C82.1651 94.9504 82.4457 94.7632 82.4542 94.5335L82.4712 93.6999C82.4797 93.4702 82.1992 93.2831 81.8591 93.2831H77.4389C77.0989 93.2916 76.8099 93.4702 76.8014 93.6999ZM83.6187 93.6999L83.6017 94.5335C83.5932 94.7632 83.8737 94.9504 84.2223 94.9504H88.6595C89.008 94.9504 89.2885 94.7632 89.2885 94.5335V93.6999C89.2885 93.4702 89.008 93.2831 88.668 93.2831H84.2563C83.9077 93.2916 83.6272 93.4702 83.6187 93.6999ZM90.4446 93.6999V94.5335C90.4446 94.7632 90.7251 94.9504 91.0736 94.9504H95.5108C95.8593 94.9504 96.1313 94.7632 96.1313 94.5335L96.1143 93.6999C96.1058 93.4702 95.8253 93.2831 95.4853 93.2831H91.0736C90.7166 93.2916 90.4446 93.4702 90.4446 93.6999ZM97.2619 93.6999L97.2789 94.5335C97.2874 94.7632 97.5679 94.9504 97.9164 94.9504H102.354C102.702 94.9504 102.974 94.7632 102.966 94.5335L102.932 93.6999C102.923 93.4702 102.634 93.2831 102.294 93.2831H97.8824C97.5339 93.2916 97.2534 93.4702 97.2619 93.6999ZM104.079 93.6999L104.113 94.5335C104.122 94.7632 104.411 94.9504 104.759 94.9504H109.196C109.545 94.9504 109.809 94.7632 109.8 94.5335L109.749 93.6999C109.732 93.4702 109.443 93.2831 109.103 93.2831H104.691C104.343 93.2916 104.071 93.4702 104.079 93.6999ZM110.905 93.6999L110.956 94.5335C110.973 94.7632 111.262 94.9504 111.611 94.9504H116.048C116.396 94.9504 116.66 94.7632 116.643 94.5335L116.575 93.6999C116.558 93.4702 116.26 93.2831 115.92 93.2831H111.509C111.152 93.2916 110.888 93.4702 110.905 93.6999ZM117.722 93.6999L117.79 94.5335C117.807 94.7632 118.105 94.9504 118.453 94.9504H122.891C123.239 94.9504 123.494 94.7632 123.477 94.5335L123.392 93.6999C123.367 93.4702 123.069 93.2831 122.729 93.2831H118.317C117.969 93.2916 117.705 93.4702 117.722 93.6999ZM124.54 93.6999L124.625 94.5335C124.65 94.7632 124.948 94.9504 125.296 94.9504H129.733C130.082 94.9504 130.337 94.7632 130.312 94.5335L130.209 93.6999C130.184 93.4702 129.878 93.2831 129.538 93.2831H125.126C124.778 93.2916 124.523 93.4702 124.54 93.6999ZM131.366 93.6999L131.468 94.5335C131.493 94.7632 131.799 94.9504 132.148 94.9504H136.585C136.933 94.9504 137.188 94.7632 137.154 94.5335L137.035 93.6999C137.001 93.4702 136.695 93.2831 136.355 93.2831H131.944C131.587 93.2916 131.332 93.4702 131.366 93.6999ZM138.183 93.6999L138.302 94.5335C138.336 94.7632 138.642 94.9504 138.99 94.9504H143.428C143.776 94.9504 144.023 94.7632 143.989 94.5335L143.853 93.6999C143.819 93.4702 143.504 93.2831 143.164 93.2831H138.752C138.404 93.2916 138.149 93.4702 138.183 93.6999ZM134.043 96.0988L134.502 99.5524C134.536 99.7906 134.842 99.9777 135.199 99.9777H144.125C144.473 99.9777 144.728 99.7821 144.694 99.5524L144.133 96.0988C144.099 95.8691 143.785 95.6819 143.436 95.6819H134.621C134.273 95.6734 134.018 95.8606 134.043 96.0988ZM35.5064 96.0988L34.9368 99.5524C34.8943 99.7906 35.1494 99.9777 35.5064 99.9777H40.6831C41.0316 99.9777 41.3462 99.7821 41.3802 99.5524L41.8817 96.0988C41.9157 95.8691 41.6607 95.6819 41.3122 95.6819H36.2034C35.8549 95.6734 35.5404 95.8606 35.5064 96.0988ZM43.0802 96.0988L42.5957 99.5524C42.5617 99.7906 42.8167 99.9777 43.1737 99.9777H48.3505C48.699 99.9777 49.0135 99.7821 49.039 99.5524L49.4556 96.0988C49.4811 95.8691 49.226 95.6819 48.8775 95.6819H43.7688C43.4203 95.6734 43.1142 95.8606 43.0802 96.0988ZM50.6541 96.0988L50.2461 99.5524C50.2206 99.7906 50.4841 99.9777 50.8326 99.9777H56.0094C56.3579 99.9777 56.6639 99.7821 56.6894 99.5524L57.0294 96.0988C57.0549 95.8691 56.7914 95.6819 56.4429 95.6819H51.3341C50.9771 95.6734 50.6796 95.8606 50.6541 96.0988ZM58.2195 96.0988L57.888 99.5524C57.8625 99.7906 58.1345 99.9777 58.483 99.9777H63.6597C64.0083 99.9777 64.3143 99.7821 64.3313 99.5524L64.5948 96.0988C64.6118 95.8691 64.3483 95.6819 63.9998 95.6819H58.891C58.5425 95.6734 58.245 95.8606 58.2195 96.0988ZM65.7934 96.0988L65.5468 99.5524C65.5298 99.7906 65.8018 99.9777 66.1504 99.9777H71.3271C71.6756 99.9777 71.9732 99.7821 71.9902 99.5524L72.1772 96.0988C72.1857 95.8691 71.9221 95.6819 71.5736 95.6819H66.4649C66.1079 95.6734 65.8104 95.8606 65.7934 96.0988ZM73.3672 96.0988L73.1972 99.5524C73.1887 99.7906 73.4607 99.9777 73.8092 99.9777H78.986C79.3345 99.9777 79.632 99.7821 79.632 99.5524L79.734 96.0988C79.7425 95.8691 79.462 95.6819 79.122 95.6819H74.0133C73.6732 95.6734 73.3757 95.8606 73.3672 96.0988ZM80.9411 96.0988L80.8476 99.5524C80.8391 99.7906 81.1196 99.9777 81.4681 99.9777H86.6449C86.9934 99.9777 87.2824 99.7821 87.2824 99.5524L87.3079 96.0988C87.3079 95.8691 87.0274 95.6819 86.6789 95.6819H81.5701C81.2301 95.6734 80.9496 95.8606 80.9411 96.0988ZM88.515 96.0988L88.498 99.5524C88.498 99.7906 88.7785 99.9777 89.1355 99.9777H94.3122C94.6608 99.9777 94.9413 99.7821 94.9413 99.5524L94.8903 96.0988C94.8903 95.8691 94.6013 95.6819 94.2527 95.6819H89.144C88.7955 95.6734 88.515 95.8606 88.515 96.0988ZM96.0888 96.0988L96.1568 99.5524C96.1653 99.7906 96.4458 99.9777 96.8029 99.9777H101.98C102.328 99.9777 102.609 99.7821 102.6 99.5524L102.473 96.0988C102.464 95.8691 102.175 95.6819 101.827 95.6819H96.7179C96.3608 95.6734 96.0803 95.8606 96.0888 96.0988ZM103.654 96.0988L103.799 99.5524C103.807 99.7906 104.105 99.9777 104.453 99.9777H109.63C109.979 99.9777 110.251 99.7821 110.242 99.5524L110.03 96.0988C110.013 95.8691 109.724 95.6819 109.375 95.6819H104.266C103.926 95.6734 103.646 95.8606 103.654 96.0988ZM111.228 96.0988L111.449 99.5524C111.466 99.7906 111.764 99.9777 112.112 99.9777H117.289C117.637 99.9777 117.909 99.7821 117.892 99.5524L117.603 96.0988C117.586 95.8691 117.289 95.6819 116.94 95.6819H111.832C111.483 95.6734 111.22 95.8606 111.228 96.0988ZM118.802 96.0988L119.099 99.5524C119.116 99.7906 119.422 99.9777 119.771 99.9777H124.956C125.305 99.9777 125.568 99.7821 125.543 99.5524L125.177 96.0988C125.152 95.8691 124.854 95.6819 124.506 95.6819H119.397C119.048 95.6734 118.785 95.8606 118.802 96.0988ZM126.376 96.0988L126.758 99.5524C126.784 99.7906 127.09 99.9777 127.438 99.9777H132.615C132.964 99.9777 133.227 99.7821 133.193 99.5524L132.751 96.0988C132.717 95.8691 132.42 95.6819 132.071 95.6819H126.962C126.614 95.6734 126.35 95.8606 126.376 96.0988ZM44.5253 104.792L45.0013 101.228C45.0353 100.99 44.7718 100.794 44.4233 100.794H35.4724C35.1239 100.794 34.8008 100.99 34.7668 101.228L34.1888 104.792C34.1463 105.039 34.4098 105.235 34.7668 105.235H43.8368C44.1768 105.235 44.4913 105.031 44.5253 104.792ZM145.646 104.792L145.06 101.228C145.017 100.99 144.703 100.794 144.354 100.794H139.16C138.812 100.794 138.548 100.99 138.582 101.228L139.101 104.792C139.135 105.039 139.458 105.235 139.815 105.235H145.077C145.434 105.235 145.689 105.031 145.646 104.792ZM137.877 104.792L137.375 101.228C137.341 100.99 137.027 100.794 136.678 100.794H131.485C131.136 100.794 130.873 100.99 130.898 101.228L131.332 104.792C131.366 105.039 131.672 105.235 132.029 105.235H137.29C137.656 105.235 137.911 105.031 137.877 104.792ZM130.107 104.792L129.691 101.228C129.665 100.99 129.351 100.794 129.002 100.794H123.809C123.46 100.794 123.188 100.99 123.214 101.228L123.562 104.792C123.588 105.039 123.894 105.235 124.251 105.235H129.512C129.869 105.235 130.133 105.031 130.107 104.792ZM122.338 104.792L121.998 101.228C121.973 100.99 121.675 100.794 121.318 100.794H116.124C115.776 100.794 115.504 100.99 115.521 101.228L115.793 104.792C115.81 105.039 116.116 105.235 116.473 105.235H121.735C122.092 105.235 122.364 105.031 122.338 104.792ZM114.569 104.792L114.314 101.228C114.297 100.99 113.999 100.794 113.642 100.794H108.448C108.1 100.794 107.819 100.99 107.836 101.228L108.023 104.792C108.04 105.039 108.338 105.235 108.695 105.235H113.957C114.305 105.235 114.586 105.031 114.569 104.792ZM106.799 104.792L106.621 101.228C106.612 100.99 106.315 100.794 105.958 100.794H100.764C100.416 100.794 100.135 100.99 100.144 101.228L100.254 104.792C100.263 105.039 100.56 105.235 100.917 105.235H106.179C106.527 105.235 106.808 105.031 106.799 104.792ZM99.0215 104.792L98.928 101.228C98.9195 100.99 98.6305 100.794 98.2819 100.794H93.0882C92.7397 100.794 92.4507 100.99 92.4507 101.228L92.4762 104.792C92.4762 105.039 92.7652 105.235 93.1222 105.235H98.3839C98.7495 105.235 99.03 105.031 99.0215 104.792ZM91.2521 104.792L91.2351 101.228C91.2351 100.99 90.9461 100.794 90.5976 100.794H85.4038C85.0553 100.794 84.7663 100.99 84.7578 101.228L84.7068 104.792C84.7068 105.039 84.9873 105.235 85.3443 105.235H90.6061C90.9631 105.235 91.2521 105.031 91.2521 104.792ZM83.4827 104.792L83.5507 101.228C83.5592 100.99 83.2702 100.794 82.9217 100.794H77.7279C77.3794 100.794 77.0819 100.99 77.0734 101.228L76.9374 104.792C76.9289 105.039 77.2094 105.235 77.5664 105.235H82.8282C83.1852 105.235 83.4742 105.031 83.4827 104.792ZM75.7133 104.792L75.8578 101.228C75.8663 100.99 75.5943 100.794 75.2373 100.794H70.0436C69.695 100.794 69.3975 100.99 69.3805 101.228L69.168 104.792C69.151 105.039 69.4315 105.235 69.7885 105.235H75.0503C75.4073 105.235 75.7048 105.031 75.7133 104.792ZM67.944 104.792L68.1735 101.228C68.1905 100.99 67.9185 100.794 67.5614 100.794H62.3677C62.0192 100.794 61.7132 100.99 61.6962 101.228L61.3986 104.792C61.3816 105.039 61.6536 105.235 62.0107 105.235H67.2724C67.6209 105.235 67.927 105.031 67.944 104.792ZM60.1661 104.792L60.4806 101.228C60.4976 100.99 60.2341 100.794 59.8771 100.794H54.6833C54.3348 100.794 54.0288 100.99 54.0033 101.228L53.6208 104.792C53.5953 105.039 53.8588 105.235 54.2158 105.235H59.4775C59.8431 105.235 60.1491 105.031 60.1661 104.792ZM52.3967 104.792L52.7877 101.228C52.8132 100.99 52.5497 100.794 52.2012 100.794H47.0074C46.6589 100.794 46.3444 100.99 46.3104 101.228L45.8514 104.792C45.8174 105.039 46.0809 105.235 46.4379 105.235H51.6997C52.0567 105.235 52.3712 105.031 52.3967 104.792ZM129.342 115.783L128.917 111.989C128.892 111.734 128.569 111.53 128.212 111.53H122.857C122.491 111.53 122.219 111.734 122.245 111.989L122.602 115.783C122.627 116.047 122.942 116.251 123.316 116.251H128.747C129.096 116.251 129.368 116.038 129.342 115.783ZM147.193 115.783L146.573 111.989C146.53 111.734 146.207 111.53 145.842 111.53H131.017C130.652 111.53 130.38 111.734 130.414 111.989L130.856 115.783C130.89 116.047 131.213 116.251 131.578 116.251H146.607C146.972 116.251 147.236 116.038 147.193 115.783ZM121.318 115.783L120.978 111.989C120.953 111.734 120.638 111.53 120.281 111.53H114.926C114.56 111.53 114.28 111.734 114.297 111.989L114.56 115.783C114.577 116.047 114.892 116.251 115.257 116.251H120.689C121.063 116.251 121.344 116.038 121.318 115.783ZM113.294 115.783L113.039 111.989C113.022 111.734 112.716 111.53 112.35 111.53H106.995C106.629 111.53 106.349 111.734 106.357 111.989L106.536 115.783C106.544 116.047 106.859 116.251 107.224 116.251H112.656C113.03 116.251 113.311 116.038 113.294 115.783ZM105.278 115.783L105.108 111.989C105.099 111.734 104.793 111.53 104.428 111.53H99.0725C98.707 111.53 98.4179 111.734 98.4265 111.989L98.52 115.783C98.5285 116.047 98.826 116.251 99.2 116.251H104.632C104.997 116.251 105.286 116.038 105.278 115.783ZM97.2534 115.783L97.1769 111.989C97.1684 111.734 96.8709 111.53 96.5054 111.53H91.1501C90.7846 111.53 90.4956 111.734 90.4956 111.989L90.5041 115.783C90.5041 116.047 90.8016 116.251 91.1756 116.251H96.6074C96.9644 116.251 97.2619 116.038 97.2534 115.783ZM89.229 115.783L89.2375 111.989C89.2375 111.734 88.94 111.53 88.583 111.53H83.2277C82.8622 111.53 82.5647 111.734 82.5562 111.989L82.4797 115.783C82.4712 116.047 82.7687 116.251 83.1342 116.251H88.566C88.9315 116.251 89.229 116.038 89.229 115.783ZM81.2131 115.783L81.3066 111.989C81.3151 111.734 81.0261 111.53 80.6606 111.53H75.3053C74.9398 111.53 74.6423 111.734 74.6253 111.989L74.4553 115.783C74.4468 116.047 74.7358 116.251 75.1013 116.251H80.5331C80.8986 116.251 81.2046 116.038 81.2131 115.783ZM73.1887 115.783L73.3672 111.989C73.3757 111.734 73.0952 111.53 72.7297 111.53H67.3744C67.0089 111.53 66.7029 111.734 66.6859 111.989L66.4309 115.783C66.4139 116.047 66.6944 116.251 67.0684 116.251H72.5002C72.8657 116.251 73.1802 116.038 73.1887 115.783ZM65.1643 115.783L65.4278 111.989C65.4448 111.734 65.1643 111.53 64.7988 111.53H59.4435C59.078 111.53 58.7635 111.734 58.7465 111.989L58.4065 115.783C58.381 116.047 58.6615 116.251 59.0355 116.251H64.4673C64.8328 116.251 65.1473 116.038 65.1643 115.783ZM57.1484 115.783L57.5054 111.989C57.5309 111.734 57.2504 111.53 56.8934 111.53H51.5382C51.1726 111.53 50.8581 111.734 50.8326 111.989L50.4076 115.783C50.3821 116.047 50.6541 116.251 51.0196 116.251H56.4514C56.7999 116.251 57.1229 116.038 57.1484 115.783ZM48.869 115.783L49.311 111.989C49.3365 111.734 49.073 111.53 48.7075 111.53H33.8828C33.5173 111.53 33.1943 111.734 33.1518 111.989L32.5312 115.783C32.4887 116.047 32.7522 116.251 33.1178 116.251H48.1465C48.5205 116.251 48.8435 116.038 48.869 115.783ZM133.508 110.194L133.04 106.519C133.006 106.273 132.692 106.077 132.335 106.077H127.064C126.707 106.077 126.435 106.273 126.461 106.519L126.852 110.194C126.877 110.449 127.192 110.653 127.557 110.653H132.904C133.27 110.653 133.542 110.449 133.508 110.194ZM125.611 110.194L125.228 106.519C125.203 106.273 124.888 106.077 124.531 106.077H119.261C118.904 106.077 118.632 106.273 118.649 106.519L118.955 110.194C118.98 110.449 119.286 110.653 119.652 110.653H124.999C125.364 110.653 125.636 110.449 125.611 110.194ZM117.722 110.194L117.425 106.519C117.408 106.273 117.102 106.077 116.745 106.077H111.475C111.118 106.077 110.837 106.273 110.854 106.519L111.075 110.194C111.092 110.449 111.398 110.653 111.764 110.653H117.11C117.459 110.653 117.739 110.449 117.722 110.194ZM109.826 110.194L109.613 106.519C109.596 106.273 109.298 106.077 108.941 106.077H103.671C103.314 106.077 103.034 106.273 103.042 106.519L103.187 110.194C103.195 110.449 103.501 110.653 103.858 110.653H109.205C109.553 110.653 109.843 110.449 109.826 110.194ZM101.929 110.194L101.801 106.519C101.793 106.273 101.495 106.077 101.138 106.077H95.8678C95.5108 106.077 95.2218 106.273 95.2303 106.519L95.2898 110.194C95.2898 110.449 95.5873 110.653 95.9528 110.653H101.3C101.648 110.653 101.937 110.449 101.929 110.194ZM94.0317 110.194L93.9892 106.519C93.9892 106.273 93.6917 106.077 93.3347 106.077H88.0644C87.7074 106.077 87.4184 106.273 87.4099 106.519L87.3844 110.194C87.3844 110.449 87.6734 110.653 88.0389 110.653H93.3857C93.7512 110.653 94.0402 110.449 94.0317 110.194ZM86.1433 110.194L86.1858 106.519C86.1858 106.273 85.8968 106.077 85.5398 106.077H80.2696C79.9125 106.077 79.615 106.273 79.6065 106.519L79.496 110.194C79.4875 110.449 79.7765 110.653 80.1421 110.653H85.4888C85.8458 110.653 86.1348 110.449 86.1433 110.194ZM78.2465 110.194L78.374 106.519C78.3825 106.273 78.102 106.077 77.7449 106.077H72.4747C72.1177 106.077 71.8201 106.273 71.8031 106.519L71.6076 110.194C71.5906 110.449 71.8797 110.653 72.2367 110.653H77.5834C77.9404 110.653 78.238 110.449 78.2465 110.194ZM70.3496 110.194L70.5536 106.519C70.5706 106.273 70.2901 106.077 69.933 106.077H64.6628C64.3058 106.077 63.9998 106.273 63.9828 106.519L63.7023 110.194C63.6852 110.449 63.9658 110.653 64.3228 110.653H69.6695C70.0351 110.653 70.3411 110.449 70.3496 110.194ZM62.4612 110.194L62.7502 106.519C62.7672 106.273 62.4952 106.077 62.1382 106.077H56.8679C56.5109 106.077 56.1964 106.273 56.1794 106.519L55.8139 110.194C55.7884 110.449 56.0604 110.653 56.4259 110.653H61.7727C62.1297 110.653 62.4357 110.449 62.4612 110.194ZM54.5643 110.194L54.9383 106.519C54.9638 106.273 54.6918 106.077 54.3348 106.077H49.0645C48.7075 106.077 48.393 106.273 48.359 106.519L47.917 110.194C47.883 110.449 48.155 110.653 48.5205 110.653H53.8673C54.2243 110.653 54.5388 110.449 54.5643 110.194ZM146.403 110.194L145.799 106.519C145.757 106.273 145.434 106.077 145.077 106.077H134.987C134.63 106.077 134.366 106.273 134.4 106.519L134.876 110.194C134.91 110.449 135.233 110.653 135.59 110.653H145.816C146.19 110.653 146.445 110.449 146.403 110.194ZM46.4974 110.194L46.9564 106.519C46.9904 106.273 46.7184 106.077 46.3614 106.077H34.6903C34.3333 106.077 34.0103 106.273 33.9678 106.519L33.3643 110.194C33.3218 110.449 33.5853 110.653 33.9423 110.653H45.7834C46.1489 110.653 46.4719 110.449 46.4974 110.194ZM65.1473 117.629L64.8753 121.55C64.8583 121.823 65.1473 122.035 65.5213 122.035H106.06C106.434 122.035 106.731 121.814 106.714 121.55L106.527 117.629C106.519 117.365 106.204 117.153 105.839 117.153H65.8444C65.4788 117.153 65.1643 117.365 65.1473 117.629ZM115.784 121.542L115.504 117.62C115.487 117.357 115.172 117.144 114.798 117.144H109.358C108.992 117.144 108.703 117.357 108.712 117.62L108.924 121.542C108.941 121.814 109.256 122.027 109.63 122.027H115.147C115.512 122.035 115.801 121.814 115.784 121.542ZM62.6652 121.542L62.9627 117.62C62.9797 117.357 62.6992 117.144 62.3337 117.144H56.8934C56.5279 117.144 56.2049 117.357 56.1794 117.62L55.8054 121.542C55.7799 121.814 56.0604 122.027 56.4344 122.027H61.9512C62.3252 122.035 62.6397 121.814 62.6652 121.542ZM54.5133 121.542L54.9043 117.62C54.9298 117.357 54.6493 117.144 54.2838 117.144H48.8435C48.478 117.144 48.1465 117.357 48.121 117.62L47.662 121.542C47.628 121.814 47.9085 122.027 48.2825 122.027H53.7993C54.1563 122.035 54.4793 121.814 54.5133 121.542ZM46.3529 121.542L46.8289 117.62C46.8629 117.357 46.5909 117.144 46.2169 117.144H40.7766C40.4111 117.144 40.0796 117.357 40.0371 117.62L39.4846 121.542C39.4506 121.814 39.7226 122.027 40.0966 122.027H45.6134C45.9959 122.035 46.3274 121.814 46.3529 121.542ZM38.201 121.542L38.7705 117.62C38.8045 117.357 38.541 117.144 38.167 117.144H32.7267C32.3612 117.144 32.0212 117.357 31.9787 117.62L31.3412 121.542C31.2987 121.814 31.5622 122.027 31.9362 122.027H37.453C37.827 122.035 38.167 121.814 38.201 121.542ZM148.392 121.542L147.754 117.62C147.712 117.357 147.38 117.144 147.006 117.144H141.566C141.201 117.144 140.929 117.357 140.963 117.62L141.532 121.542C141.575 121.814 141.906 122.027 142.28 122.027H147.797C148.171 122.035 148.434 121.814 148.392 121.542ZM140.24 121.542L139.687 117.62C139.653 117.357 139.322 117.144 138.948 117.144H133.508C133.142 117.144 132.862 117.357 132.896 117.62L133.372 121.542C133.406 121.814 133.737 122.027 134.111 122.027H139.628C140.002 122.035 140.282 121.814 140.24 121.542ZM132.088 121.542L131.629 117.62C131.595 117.357 131.272 117.144 130.907 117.144H125.466C125.101 117.144 124.82 117.357 124.846 117.62L125.237 121.542C125.262 121.814 125.585 122.027 125.959 122.027H131.476C131.842 122.035 132.122 121.814 132.088 121.542ZM123.936 121.542L123.562 117.62C123.537 117.357 123.214 117.144 122.848 117.144H117.408C117.042 117.144 116.753 117.357 116.779 117.62L117.076 121.542C117.093 121.814 117.416 122.027 117.79 122.027H123.307C123.681 122.035 123.962 121.814 123.936 121.542Z" fill="#3B86C6"/>
<path d="M155.583 141.711C155.464 141.711 155.354 141.626 155.328 141.498L146.216 89.1999C146.19 89.0638 146.284 88.9277 146.42 88.9022C146.564 88.8767 146.692 88.9702 146.717 89.1063L155.83 141.405C155.855 141.541 155.762 141.677 155.626 141.702C155.609 141.711 155.6 141.711 155.583 141.711Z" fill="#3B86C6"/>
<path d="M36.6708 16.5623H143.054C144.941 16.5623 146.471 18.0935 146.471 19.9819V89.1574H33.2537V19.9819C33.2537 18.0935 34.7837 16.5623 36.6708 16.5623Z" fill="#3B86C6"/>
<path d="M143.249 21.9895H36.4753V83.7302H143.249V21.9895Z" fill="#CFE3FD"/>
<path d="M55.7033 72.3824C55.6353 72.3824 55.5757 72.3569 55.5247 72.3058C55.4227 72.2038 55.4227 72.0421 55.5247 71.9486L95.4087 32.0357C95.5107 31.9336 95.6722 31.9336 95.7657 32.0357C95.8677 32.1378 95.8677 32.2994 95.7657 32.393L55.8818 72.3143C55.8308 72.3654 55.7628 72.3824 55.7033 72.3824Z" fill="white"/>
<path d="M58.2875 57.3768C58.2195 57.3768 58.16 57.3513 58.109 57.3003C58.007 57.1982 58.007 57.0365 58.109 56.943L77.7534 37.2843C77.8554 37.1822 78.017 37.1822 78.1105 37.2843C78.2125 37.3864 78.2125 37.548 78.1105 37.6416L58.466 57.3003C58.415 57.3513 58.3555 57.3768 58.2875 57.3768Z" fill="white"/>
<path d="M146.471 89.4126C146.326 89.4126 146.216 89.302 146.216 89.1574V19.9819C146.216 19.8373 146.326 19.7267 146.471 19.7267C146.615 19.7267 146.726 19.8373 146.726 19.9819V89.1574C146.726 89.2935 146.615 89.4126 146.471 89.4126Z" fill="#4324AA"/>
<path d="M64.8838 102.683L58.2874 104.452C58.3894 104.035 58.4404 103.593 58.5255 103.074C58.5765 102.759 58.2789 102.496 57.9729 102.581L48.1464 105.218C47.5429 105.379 46.9649 105.805 46.6334 106.375C44.8568 109.454 41.8901 114.601 41.8901 114.601L50.5776 116.132L62.0276 108.808C64.9178 107.617 65.3003 105.167 65.5808 103.295C65.6318 102.904 65.2748 102.572 64.8838 102.683Z" fill="#FFC3A5"/>
<path d="M77.813 107.217L65.7339 110.585C65.7339 110.585 65.2833 110.73 64.9433 110.943C64.9433 110.943 70.6811 104.137 70.8766 103.899C73.0187 101.356 72.1772 98.8549 71.5226 96.9579C71.3866 96.5581 70.8766 96.4305 70.5706 96.7112L51.4277 114.252C51.4277 114.252 48.461 112.533 48.121 112.338C46.0809 111.155 43.4628 111.861 42.2897 113.903C39.6801 118.42 39.6801 118.42 35.3364 125.957C34.1123 128.075 34.1038 130.559 35.0899 132.609L22.6453 154.173L41.2442 167.333L51.1812 143.242C52.7962 143.897 54.6493 143.974 56.4174 143.276C59.0015 142.272 75.7644 135.731 75.7644 135.731C76.1554 135.578 76.2659 135.067 75.9684 134.77C75.1268 133.919 73.0697 131.384 69.457 132.286L63.6513 133.732C62.9627 132.847 62.1042 132.107 61.1521 131.512C61.7727 127.148 62.2487 124.723 62.6992 121.066C65.2408 118.82 65.6999 118.42 68.2245 116.191L75.0588 113.299C77.8895 112.1 78.2465 109.684 78.5015 107.829C78.5525 107.421 78.187 107.106 77.813 107.217Z" fill="#FFDDB4"/>
<path d="M63.4642 111.632L56.2473 116.744L51.9631 114.269L62.9882 104.052C63.0902 103.959 63.0987 103.797 63.0052 103.695C62.9117 103.593 62.7502 103.585 62.6482 103.678L51.5041 114.005L48.2995 112.151L50.9516 107.557C51.3341 106.894 51.9461 106.426 52.6857 106.222L57.8964 104.826C58.0324 104.792 58.1174 104.648 58.0749 104.512C58.0409 104.376 57.8964 104.291 57.7604 104.333L52.5412 105.728C51.6741 105.958 50.9431 106.519 50.4926 107.302L47.8234 111.921C47.1774 111.632 46.4889 111.487 45.7748 111.521C45.6303 111.53 45.5283 111.649 45.5283 111.785C45.5368 111.929 45.6473 112.023 45.7918 112.032C46.5654 111.998 47.3134 112.176 47.9849 112.567L61.7726 120.538C61.8151 120.564 61.8576 120.572 61.9001 120.572C61.9851 120.572 62.0701 120.53 62.1211 120.445C62.1891 120.325 62.1466 120.164 62.0276 120.096L56.7234 117.033L63.7532 112.057C63.8722 111.972 63.8977 111.819 63.8127 111.7C63.7362 111.572 63.5747 111.547 63.4642 111.632Z" fill="#FF9189"/>
<path d="M56.3154 143.038C53.3147 144.212 49.8551 143.098 48.087 140.401C48.0105 140.282 47.849 140.248 47.7384 140.324C47.6194 140.401 47.5854 140.563 47.6619 140.682C49.056 142.808 51.4191 144.008 53.8587 144.008C54.7513 144.008 55.6438 143.846 56.5109 143.514C56.6469 143.463 56.7064 143.319 56.6554 143.183C56.5959 143.055 56.4429 142.987 56.3154 143.038Z" fill="#FF9189"/>
<path d="M52.116 149.503L45.4092 163.403L23.7756 150.907L31.4685 137.577L52.116 149.503Z" fill="white"/>
<path d="M50.9771 151.732C50.9346 151.732 50.8921 151.723 50.8496 151.698C50.7306 151.63 50.6881 151.468 50.7561 151.349L51.7677 149.597L31.8342 138.079C31.7152 138.011 31.6727 137.849 31.7407 137.73C31.8087 137.611 31.9702 137.568 32.0892 137.636L52.2437 149.282C52.3627 149.35 52.4052 149.512 52.3372 149.631L51.1982 151.604C51.1472 151.689 51.0622 151.732 50.9771 151.732Z" fill="#CFE3FD"/>
<path d="M20.2056 154.811C26.2494 160.961 34.5543 165.699 43.6497 169.238L51.9546 152.046L29.335 138.98L20.2056 154.811Z" fill="#3B86C6"/>
<path d="M43.9132 169.332L52.1926 152.157C52.2521 152.038 52.2096 151.893 52.0906 151.825L29.964 139.04C29.845 138.972 29.6835 139.014 29.6155 139.133C29.5475 139.253 29.59 139.414 29.709 139.482L51.6315 152.149L43.4371 169.145C43.5901 169.213 43.7517 169.272 43.9132 169.332Z" fill="#4324AA"/>
<path d="M131.757 109.148C129.623 105.456 128.688 103.831 126.911 100.752C126.597 100.207 126.036 99.765 125.398 99.5864L115.572 96.9494C115.266 96.8643 114.968 97.128 115.019 97.4428C115.096 97.9617 115.147 98.404 115.257 98.8208L108.661 97.0515C108.278 96.9494 107.913 97.2726 107.972 97.6724C108.125 98.7017 108.27 101.841 111.526 103.185L123.486 111.521L131.757 109.148Z" fill="#FFC3A5"/>
<path d="M151.945 150.371L138.455 126.995C139.441 124.945 139.424 122.461 138.208 120.342C133.865 112.814 133.865 112.806 131.255 108.297C130.073 106.256 127.455 105.55 125.415 106.732C119.533 110.135 128.025 105.226 122.134 108.629C122.134 108.629 115.665 102.768 112.299 99.6715C111.959 99.3567 111.509 99.2121 111.05 99.2717L96.8114 100.93C96.3864 100.982 96.1568 101.441 96.3694 101.815C96.9219 102.768 98.2989 105.822 102.039 105.864L104.062 105.89L94.4398 111.436C94.0997 111.632 94.0742 112.117 94.3888 112.346C95.2388 112.976 97.4999 115.051 100.705 113.707L106.264 111.385C108.015 112.925 108.652 113.495 110.846 115.426C111.262 118.803 111.696 121.125 112.248 124.893C111.798 125.132 111.364 125.404 110.956 125.71L105.703 122.843C102.787 121.253 100.509 122.58 98.775 123.6C98.4094 123.813 98.3839 124.332 98.724 124.587C98.724 124.587 113.285 135.161 115.529 136.794C117.603 138.3 120.188 138.504 122.364 137.628L132.292 161.718L151.945 150.371Z" fill="#FFDDB4"/>
<path d="M127.761 105.898C127.056 105.864 126.359 106.009 125.713 106.298L123.044 101.679C122.593 100.896 121.87 100.344 121.003 100.105L115.784 98.7103C115.648 98.6762 115.512 98.7528 115.47 98.8889C115.436 99.025 115.512 99.1611 115.648 99.2036L120.859 100.599C121.598 100.794 122.21 101.271 122.593 101.934L125.245 106.528L122.04 108.382L112.843 99.7225C112.291 99.2036 111.534 98.9569 110.794 99.042L109.154 99.2292C109.018 99.2462 108.916 99.3738 108.933 99.5099C108.95 99.646 109.06 99.7481 109.213 99.731L110.854 99.5439C111.457 99.4758 112.052 99.6715 112.495 100.088L121.581 108.646L117.289 111.121L108.601 104.92C107.496 104.299 106.255 104.316 105.167 104.946L104.785 105.167C104.666 105.235 104.623 105.396 104.691 105.516C104.742 105.601 104.827 105.643 104.912 105.643C104.955 105.643 104.997 105.635 105.04 105.609L105.422 105.388C106.349 104.852 107.411 104.843 108.321 105.354L116.804 111.411L111.491 114.481C111.372 114.549 111.33 114.711 111.398 114.83C111.449 114.915 111.534 114.958 111.619 114.958C111.661 114.958 111.704 114.949 111.746 114.924L117.382 111.666L125.534 106.953C126.206 106.57 126.954 106.383 127.727 106.417C127.872 106.417 127.991 106.315 127.991 106.171C128.016 106.026 127.906 105.907 127.761 105.898Z" fill="#FF9189"/>
<path d="M124.319 136.122C121.922 138.283 118.3 138.478 115.691 136.59C115.58 136.505 115.419 136.53 115.334 136.65C115.249 136.76 115.274 136.922 115.393 137.007C116.677 137.943 118.198 138.402 119.711 138.402C121.497 138.402 123.273 137.764 124.659 136.505C124.761 136.411 124.769 136.25 124.676 136.148C124.582 136.037 124.421 136.029 124.319 136.122Z" fill="#FF9189"/>
<path d="M122.44 143.719L129.138 157.618L150.772 145.122L143.087 131.792L122.44 143.719Z" fill="white"/>
<path d="M123.579 145.947C123.494 145.947 123.409 145.905 123.358 145.82L122.219 143.846C122.185 143.787 122.177 143.718 122.194 143.65C122.211 143.582 122.253 143.531 122.313 143.497L142.467 131.852C142.586 131.784 142.748 131.826 142.816 131.945C142.884 132.064 142.841 132.226 142.722 132.294L122.789 143.812L123.8 145.564C123.868 145.684 123.826 145.845 123.707 145.913C123.664 145.939 123.622 145.947 123.579 145.947Z" fill="#CFE3FD"/>
<path d="M145.213 133.196L122.593 146.262L134.281 170.446C143.385 167.333 152.123 163.25 159.604 158.129L145.213 133.196Z" fill="#3B86C6"/>
<path d="M122.925 146.373L144.847 133.706C144.966 133.638 145.009 133.477 144.941 133.357C144.873 133.238 144.72 133.196 144.592 133.264L122.466 146.049C122.347 146.117 122.304 146.262 122.364 146.381L134.009 170.54C134.171 170.489 134.332 170.429 134.494 170.37L122.925 146.373Z" fill="#4324AA"/>
</g>
<defs>
<clipPath id="clip0_7_373">
<rect width="184" height="178" fill="white"/>
</clipPath>
</defs>
</svg>
