<svg width="18" height="19" viewBox="0 0 18 19" fill="none" xmlns="http://www.w3.org/2000/svg">
<path d="M8.62486 2.31964L2.95384 3.45384L1.81964 9.12486C1.80148 9.21567 1.80602 9.30955 1.83285 9.39818C1.85969 9.48681 1.90799 9.56744 1.97347 9.63292L9.3178 16.9773C9.37004 17.0295 9.43205 17.0709 9.50029 17.0992C9.56854 17.1275 9.64168 17.142 9.71555 17.142C9.78942 17.142 9.86257 17.1275 9.93081 17.0992C9.99906 17.0709 10.0611 17.0295 10.1133 16.9773L16.4773 10.6133C16.5295 10.5611 16.5709 10.4991 16.5992 10.4308C16.6275 10.3626 16.642 10.2894 16.642 10.2156C16.642 10.1417 16.6275 10.0685 16.5992 10.0003C16.5709 9.93205 16.5295 9.87004 16.4773 9.8178L9.13292 2.47347C9.06744 2.40799 8.98681 2.35969 8.89818 2.33285C8.80955 2.30602 8.71567 2.30148 8.62486 2.31964V2.31964Z" stroke="#3B86C6" stroke-width="1.44" stroke-linecap="round" stroke-linejoin="round"/>
<path d="M5.90625 7.25C6.37224 7.25 6.75 6.87224 6.75 6.40625C6.75 5.94026 6.37224 5.5625 5.90625 5.5625C5.44026 5.5625 5.0625 5.94026 5.0625 6.40625C5.0625 6.87224 5.44026 7.25 5.90625 7.25Z" fill="#3B86C6"/>
</svg>
