<svg width="42" height="42" viewBox="0 0 42 42" fill="none" xmlns="http://www.w3.org/2000/svg">
<path d="M21 42C32.598 42 42 32.598 42 21C42 9.40202 32.598 0 21 0C9.40202 0 0 9.40202 0 21C0 32.598 9.40202 42 21 42Z" fill="#0088CC"/>
<path fill-rule="evenodd" clip-rule="evenodd" d="M15.1566 13.8784H26.9349C27.3516 13.8784 27.768 13.9395 28.2032 14.1424C28.7248 14.3856 29.0014 14.7688 29.1952 15.0522C29.2103 15.0743 29.2244 15.097 29.2374 15.1203C29.4653 15.5259 29.5827 15.9638 29.5827 16.4349C29.5827 16.8825 29.4762 17.3701 29.2374 17.7951C29.2352 17.7993 29.2328 17.8033 29.2305 17.8073L21.7892 30.5899C21.6251 30.8718 21.323 31.0448 20.9969 31.0436C20.6707 31.0425 20.3699 30.8673 20.2078 30.5843L12.9031 17.829C12.901 17.8255 12.8989 17.8221 12.8968 17.8185C12.7296 17.5431 12.4711 17.1171 12.4259 16.5673C12.3843 16.0617 12.4979 15.5553 12.752 15.116C13.006 14.6767 13.3884 14.3256 13.8484 14.1106C14.3416 13.8802 14.8414 13.8784 15.1566 13.8784ZM20.087 15.7044H15.1566C14.8327 15.7044 14.7083 15.7244 14.6214 15.765C14.5012 15.8212 14.4002 15.9135 14.3327 16.0302C14.2652 16.1469 14.2347 16.2822 14.2458 16.4177C14.2522 16.4953 14.2838 16.5841 14.4705 16.892C14.4744 16.8984 14.4782 16.905 14.482 16.9116L20.087 26.699V15.7044ZM21.9131 15.7044V26.7473L27.648 16.896C27.7127 16.7784 27.7566 16.6085 27.7566 16.4349C27.7566 16.2941 27.7274 16.1718 27.6622 16.0458C27.5937 15.9474 27.552 15.8952 27.5171 15.8595C27.4872 15.829 27.4642 15.8127 27.4316 15.7975C27.296 15.7343 27.1573 15.7044 26.9349 15.7044H21.9131Z" fill="white"/>
</svg>
