<svg width="18" height="18" viewBox="0 0 18 18" fill="none" xmlns="http://www.w3.org/2000/svg">
<path d="M6.18756 11.25C8.20685 11.25 9.84381 9.61304 9.84381 7.59375C9.84381 5.57446 8.20685 3.9375 6.18756 3.9375C4.16827 3.9375 2.53131 5.57446 2.53131 7.59375C2.53131 9.61304 4.16827 11.25 6.18756 11.25Z" stroke="#3B86C6" stroke-width="1.44" stroke-miterlimit="10"/>
<path d="M10.9274 4.07369C11.4303 3.932 11.9577 3.89973 12.4741 3.97903C12.9906 4.05834 13.484 4.24739 13.9212 4.53345C14.3584 4.81951 14.7292 5.19594 15.0087 5.63739C15.2881 6.07883 15.4698 6.57503 15.5413 7.09258C15.6129 7.61013 15.5727 8.137 15.4234 8.6377C15.2742 9.13841 15.0194 9.60132 14.6762 9.99527C14.3331 10.3892 13.9094 10.705 13.4339 10.9215C12.9584 11.1379 12.442 11.2499 11.9195 11.25" stroke="#3B86C6" stroke-width="1.44" stroke-linecap="round" stroke-linejoin="round"/>
<path d="M1.12476 13.8795C1.69579 13.0672 2.45387 12.4043 3.33499 11.9466C4.21612 11.489 5.19443 11.25 6.18731 11.25C7.1802 11.25 8.15853 11.4888 9.03969 11.9464C9.92085 12.404 10.679 13.0669 11.2501 13.8791" stroke="#3B86C6" stroke-width="1.44" stroke-linecap="round" stroke-linejoin="round"/>
<path d="M11.9195 11.25C12.9125 11.2493 13.891 11.4878 14.7722 11.9455C15.6535 12.4031 16.4115 13.0664 16.982 13.8791" stroke="#3B86C6" stroke-width="1.44" stroke-linecap="round" stroke-linejoin="round"/>
</svg>
