<svg width="18" height="19" viewBox="0 0 18 19" fill="none" xmlns="http://www.w3.org/2000/svg">
<path d="M1.5 17L12 13.25L5.25 6.49997L1.5 17ZM10.8975 9.89747L15.09 5.70497C15.1771 5.61766 15.2805 5.5484 15.3944 5.50113C15.5083 5.45387 15.6304 5.42954 15.7537 5.42954C15.8771 5.42954 15.9992 5.45387 16.1131 5.50113C16.227 5.5484 16.3304 5.61766 16.4175 5.70497L16.86 6.14747L17.655 5.35247L17.2125 4.90997C16.8249 4.52443 16.3004 4.30801 15.7537 4.30801C15.2071 4.30801 14.6826 4.52443 14.295 4.90997L10.1025 9.10247L10.8975 9.89747ZM7.545 5.65997L7.1025 6.10247L7.8975 6.89747L8.34 6.45497C8.72554 6.06737 8.94196 5.54291 8.94196 4.99622C8.94196 4.44953 8.72554 3.92507 8.34 3.53747L7.8975 3.09497L7.1025 3.89747L7.545 4.33997C7.905 4.69997 7.905 5.29997 7.545 5.65997ZM12.795 9.40997L11.6025 10.6025L12.3975 11.3975L13.59 10.205C13.6771 10.1177 13.7805 10.0484 13.8944 10.0011C14.0083 9.95387 14.1304 9.92954 14.2537 9.92954C14.3771 9.92954 14.4992 9.95387 14.6131 10.0011C14.727 10.0484 14.8304 10.1177 14.9175 10.205L16.125 11.4125L16.92 10.6175L15.7125 9.40997C15.3249 9.02443 14.8004 8.80801 14.2537 8.80801C13.7071 8.80801 13.1826 9.02443 12.795 9.40997ZM11.295 4.90997L8.6025 7.60247L9.3975 8.39747L12.09 5.70497C12.4755 5.31737 12.692 4.79291 12.692 4.24622C12.692 3.69953 12.4755 3.17507 12.09 2.78747L10.8975 1.59497L10.1025 2.38997L11.295 3.58247C11.655 3.94997 11.655 4.54997 11.295 4.90997Z" fill="#3B86C6"/>
</svg>
