<svg width="145" height="42" viewBox="0 0 145 42" fill="none" xmlns="http://www.w3.org/2000/svg">
<path fill-rule="evenodd" clip-rule="evenodd" d="M86.2346 32.6446C85.2642 33.381 84.2206 34.0444 83.177 34.6341V31.5403C83.7723 31.3192 84.4444 31.0243 85.0411 30.8039C86.3823 30.2142 87.5786 31.6884 86.2332 32.6446H86.2346ZM93.3165 27.4862C93.3165 26.8965 93.1674 26.4542 93.0182 26.2338C92.3476 25.423 87.4266 24.6859 83.177 25.9383V28.2219C85.7863 28.0015 88.8425 27.9271 89.5905 28.8833C90.634 30.1357 88.397 35.5875 87.4273 37.9449C87.129 38.682 87.8038 38.9782 88.473 38.4616C91.8275 35.6619 93.244 30.5779 93.3186 27.925V27.4876L93.3165 27.4862ZM83.177 34.6334C75.3484 39.2752 65.2082 41.7069 56.4106 41.7069C42.2445 41.7069 29.5695 36.5499 19.9514 27.9292C19.1316 27.2664 19.8022 26.3082 20.7719 26.8242C31.1359 32.79 43.958 36.3997 57.2311 36.4018C65.5818 36.4018 74.6032 34.8552 83.1777 31.5389V34.6334H83.177ZM83.177 25.9362C82.034 26.2865 80.9524 26.8085 79.9703 27.4841C79.2258 27.9994 79.3742 28.6621 80.1167 28.5891C80.9372 28.4417 81.9808 28.368 83.1742 28.2206V25.9396L83.177 25.9362Z" fill="#F8991D"/>
<path fill-rule="evenodd" clip-rule="evenodd" d="M142.719 5.38395V5.01608C142.964 5.01838 143.208 4.9723 143.435 4.88053C143.662 4.78876 143.869 4.65316 144.042 4.48163C144.216 4.31011 144.353 4.10612 144.446 3.88159C144.538 3.65706 144.585 3.4165 144.582 3.17399C144.582 2.14204 143.688 1.3319 142.719 1.3319V0.964035C143.911 0.964035 144.957 1.92159 144.957 3.17399C144.955 4.35337 143.912 5.3867 142.72 5.3867L142.719 5.38395ZM142.719 3.39443H142.793C142.942 3.39443 143.016 3.47021 143.016 3.61557C143.016 3.69135 143.093 4.2769 143.162 4.42639H143.684C143.591 4.21693 143.54 3.9916 143.535 3.76299C143.461 3.46815 143.461 3.24701 143.087 3.17399C143.311 3.10097 143.609 3.02657 143.609 2.58499C143.609 1.92159 143.012 1.92159 142.715 1.92159V2.29015C142.864 2.29015 143.084 2.29015 143.084 2.6587C143.084 2.80612 143.01 3.02726 142.712 3.02726V3.39443H142.719ZM142.719 0.963347V1.33121C141.675 1.33121 140.78 2.14135 140.78 3.1733C140.78 4.20664 141.673 5.01264 142.718 5.01539V5.38326C141.45 5.38326 140.407 4.4257 140.407 3.1733C140.407 1.9209 141.45 0.964036 142.72 0.963347H142.719ZM142.719 1.9209H141.824V4.42639H142.346V3.39443H142.719V3.02657H142.346V2.29015H142.719V1.9209ZM108.302 24.761V20.3404C111.509 20.2667 111.658 15.6987 111.658 12.9727C111.658 11.1307 111.583 8.92001 110.986 7.15164C110.539 5.6781 109.645 5.08841 108.301 5.01539V0.594103C114.565 0.669881 117.998 6.0501 117.998 12.8977C117.997 19.5296 114.194 24.6894 108.304 24.761H108.302ZM126.271 24.3194H122.022C121.574 24.2457 121.201 23.9509 121.201 23.5086V1.77348C121.276 1.33121 121.574 1.03706 122.022 1.03706H126.048C126.42 1.03706 126.717 1.33328 126.794 1.69977V5.01539H126.869C128.061 1.99461 129.776 0.594103 132.758 0.594103C134.622 0.594103 136.557 1.25544 137.756 3.1733C138.874 4.94375 138.872 7.81641 138.872 9.95197V23.5823C138.798 23.9502 138.499 24.3187 138.052 24.3187H133.728C133.355 24.245 132.982 23.9502 132.982 23.5823V11.8678C132.982 9.43599 133.281 5.97363 130.298 5.97363C129.254 5.97363 128.285 6.63635 127.763 7.74132C127.167 9.06744 127.092 10.3942 127.092 11.8671V23.5079C127.092 23.9523 126.722 24.3174 126.268 24.3194H126.271ZM80.3439 4.86797V1.77348C80.3439 1.33121 80.7169 0.963347 81.1644 0.963347H95.2559C95.7035 0.963347 96.0785 1.32846 96.0785 1.77348V4.42639C96.0785 4.86797 95.7063 5.45766 95.0349 6.4159L87.725 16.7299C90.4096 16.6569 93.3158 17.1019 95.7767 18.4253C96.2981 18.7904 96.4459 19.2382 96.5226 19.677V22.9189C96.5226 23.3605 96.0011 23.8772 95.479 23.6553C91.0795 21.3717 85.3395 21.1499 80.567 23.6553C80.0456 23.9502 79.5234 23.3598 79.5234 22.9189V19.8244C79.5234 19.3822 79.5234 18.4976 80.0456 17.6875L88.5448 5.67741H81.1637C80.7169 5.67603 80.3425 5.3867 80.3425 4.86797H80.3439ZM108.302 0.594103V5.01539C105.097 5.01539 104.947 9.28857 104.947 11.9415C104.947 14.6674 104.873 20.339 108.231 20.3404H108.3V24.761H108.227C101.964 24.761 98.5351 19.3822 98.5351 12.6779C98.5351 5.89924 102.038 0.594103 108.227 0.594103C108.302 0.592036 108.304 0.592036 108.304 0.594103H108.302ZM65.8795 24.245V20.3404C66.8485 20.1193 67.669 19.4559 68.265 18.4253C69.0855 16.9511 69.0855 15.6257 69.0855 13.931V13.0471C67.9673 13.0471 66.8485 13.1202 65.8795 13.342V9.95266C66.9977 9.80455 68.1158 9.73152 69.0855 9.65781V9.06812C69.0855 8.03686 69.1594 6.85817 68.5634 5.97432C68.0412 5.23721 66.9977 4.86866 66.1032 4.86866H65.8795V0.374347H66.7718C68.8589 0.374347 71.5401 0.966791 73.1852 2.51128C75.2724 4.42639 75.1232 7.00284 75.1232 9.80455V16.4365C75.1232 18.4274 75.9458 19.3091 76.6917 20.3425C76.9908 20.7076 77.0682 21.1554 76.6917 21.4475C75.8719 22.1846 74.3055 23.5107 73.4111 24.2471C73.1127 24.4682 72.7405 24.4682 72.3682 24.3229C70.951 23.1442 70.7272 22.6282 69.9081 21.5232C68.4895 22.9947 67.2925 23.8007 65.8774 24.245H65.8795ZM65.8795 0.373657V4.86797C64.3131 5.01539 63.0464 5.82621 62.6727 7.44717C62.5989 7.81572 62.2998 8.18359 61.9275 8.25799L57.7518 7.74201C57.3789 7.6683 57.0066 7.44717 57.1558 6.85748C58.0509 2.21781 62.0014 0.592035 65.8774 0.373657H65.8795ZM65.8795 9.95197V13.3413C64.09 13.8566 62.6727 14.9616 62.6727 17.3162C62.6727 19.1555 63.6417 20.4093 65.28 20.4107C65.5037 20.4107 65.6536 20.3377 65.8767 20.3377V24.2423C64.8773 24.4914 63.8505 24.6164 62.8198 24.6143C59.2408 24.6143 56.4078 22.4043 56.4078 18.0561C56.4078 14.5937 58.2719 12.2356 60.9558 11.1307C62.3758 10.4638 64.1625 10.1745 65.8774 9.95197H65.8795ZM9.51282 24.245V20.3404C10.4832 20.1193 11.3776 19.4559 11.8997 18.4253C12.7934 16.9511 12.7195 15.6257 12.7195 13.931V13.0471C11.6014 13.0471 10.4832 13.1202 9.51282 13.342V9.95266C10.6317 9.80455 11.7499 9.73152 12.7195 9.65781V9.06812C12.7195 8.03686 12.7934 6.85817 12.1981 5.97432C11.676 5.23721 10.7063 4.86866 9.81188 4.86866H9.51282V0.374347H10.4051C12.493 0.374347 15.1734 0.966792 16.8883 2.5099C18.9762 4.42501 18.7496 7.00146 18.7496 9.80317V16.4351C18.7496 18.426 19.5722 19.3078 20.3878 20.3397C20.6109 20.7048 20.6876 21.1499 20.3132 21.4419C19.4934 22.1791 17.9284 23.5052 17.0326 24.2416C16.7342 24.4627 16.3613 24.4627 15.989 24.3153C14.5725 23.1366 14.3487 22.6206 13.5289 21.5157C12.1235 22.9947 10.9308 23.8007 9.51561 24.245H9.51282ZM28.8243 24.3194H24.5001C24.0526 24.2457 23.7542 23.9509 23.7542 23.583V1.84719C23.7542 1.40492 24.1278 1.03706 24.5754 1.03706H28.5259C28.9735 1.03706 29.3485 1.40217 29.3485 1.77348V4.64684H29.4231C30.4674 1.84719 32.4054 0.594103 35.0907 0.594103C37.7739 0.594103 39.4895 1.84788 40.6815 4.64684C41.7251 1.84719 44.0361 0.594103 46.5715 0.594103C48.4356 0.594103 50.3777 1.33121 51.5698 2.9501C52.9117 4.78944 52.6852 7.44166 52.6852 9.80179V23.5065C52.6852 23.9488 52.3122 24.3174 51.7908 24.3174H47.5405C47.0929 24.2437 46.7945 23.9488 46.7945 23.5065V12.0145C46.7945 11.1307 46.8691 8.77259 46.6454 7.96246C46.347 6.48823 45.378 6.04666 44.1107 6.04666C43.0664 6.04666 42.0228 6.70937 41.5752 7.8171C41.1284 8.92208 41.1284 10.7642 41.1284 12.0166V23.5107C41.1284 23.9529 40.7547 24.3215 40.3079 24.3215H35.983C35.6107 24.2478 35.2378 23.9529 35.2378 23.5107V12.0145C35.2378 9.58341 35.6107 5.97295 32.6285 5.97295C29.4977 5.97295 29.6455 9.5097 29.6455 12.0145V23.5086C29.6432 23.7228 29.556 23.9276 29.4028 24.0791C29.2496 24.2307 29.0425 24.3169 28.8257 24.3194H28.8243ZM9.51282 0.373657V4.86797C8.02239 5.01539 6.68044 5.82621 6.30748 7.44717C6.23289 7.81572 6.00912 8.18359 5.56157 8.25799L1.38654 7.74201C1.08888 7.6683 0.641328 7.44717 0.790511 6.85748C1.68491 2.21781 5.70936 0.592035 9.51561 0.373657H9.51282ZM9.51282 9.95197V13.3413C7.72402 13.8566 6.30748 14.9616 6.30748 17.3189C6.30748 19.1583 7.27647 20.4121 8.91469 20.4134C9.13777 20.4134 9.36154 20.3404 9.51003 20.3404V24.245C8.51109 24.4946 7.48424 24.6185 6.45388 24.6136C2.87489 24.6136 0.0418091 22.4036 0.0418091 18.0554C0.0418091 14.593 1.9059 12.2349 4.66438 11.13C6.08371 10.4638 7.8007 10.1745 9.51561 9.95197H9.51282Z" fill="black"/>
</svg>
