<svg width="30" height="30" viewBox="0 0 30 30" fill="none" xmlns="http://www.w3.org/2000/svg">
<path d="M22.6876 11.4308L22.3126 22.7811C22.2807 23.7532 21.8712 24.6746 21.171 25.3497C20.4709 26.0248 19.5352 26.4005 18.5626 26.3971H11.4376C10.4656 26.4006 9.53051 26.0254 8.83047 25.3511C8.13043 24.6768 7.72051 23.7563 7.68762 22.7849L7.31262 11.4308C7.30441 11.1822 7.39532 10.9405 7.56533 10.7589C7.73534 10.5772 7.97054 10.4706 8.21918 10.4624C8.46782 10.4542 8.70954 10.5451 8.89115 10.7151C9.07277 10.8851 9.17941 11.1203 9.18762 11.369L9.56262 22.7221C9.58129 23.2067 9.78705 23.6653 10.1367 24.0015C10.4863 24.3376 10.9526 24.5253 11.4376 24.5249H18.5626C19.0483 24.5252 19.5151 24.3371 19.8648 24.0001C20.2145 23.6632 20.4199 23.2037 20.4376 22.7183L20.8126 11.369C20.8208 11.1203 20.9275 10.8851 21.1091 10.7151C21.2907 10.5451 21.5324 10.4542 21.7811 10.4624C22.0297 10.4706 22.2649 10.5772 22.4349 10.7589C22.6049 10.9405 22.6958 11.1822 22.6876 11.4308ZM23.9279 7.65364C23.9279 7.90228 23.8292 8.14074 23.6533 8.31656C23.4775 8.49237 23.2391 8.59114 22.9904 8.59114H7.01074C6.7621 8.59114 6.52364 8.49237 6.34783 8.31656C6.17201 8.14074 6.07324 7.90228 6.07324 7.65364C6.07324 7.405 6.17201 7.16655 6.34783 6.99073C6.52364 6.81491 6.7621 6.71614 7.01074 6.71614H9.91699C10.214 6.71694 10.5008 6.6072 10.7213 6.40826C10.9419 6.20933 11.0806 5.93544 11.1104 5.63989C11.1796 4.9466 11.5044 4.30389 12.0216 3.83699C12.5387 3.3701 13.2112 3.11245 13.9079 3.11427H16.0923C16.789 3.11245 17.4615 3.3701 17.9787 3.83699C18.4958 4.30389 18.8206 4.9466 18.8898 5.63989C18.9196 5.93544 19.0583 6.20933 19.2789 6.40826C19.4995 6.6072 19.7862 6.71694 20.0832 6.71614H22.9895C23.2381 6.71614 23.4766 6.81491 23.6524 6.99073C23.8282 7.16655 23.927 7.405 23.927 7.65364H23.9279ZM12.7379 6.71614H17.2642C17.141 6.43465 17.0604 6.13638 17.0251 5.83114C17.0019 5.60006 16.8937 5.38582 16.7216 5.22993C16.5494 5.07405 16.3255 4.98762 16.0932 4.98739H13.9089C13.6766 4.98762 13.4527 5.07405 13.2806 5.22993C13.1084 5.38582 13.0002 5.60006 12.977 5.83114C12.9414 6.13643 12.8605 6.4347 12.737 6.71614H12.7379ZM13.682 20.9202V12.9374C13.682 12.6888 13.5832 12.4503 13.4074 12.2745C13.2316 12.0987 12.9931 11.9999 12.7445 11.9999C12.4959 11.9999 12.2574 12.0987 12.0816 12.2745C11.9058 12.4503 11.807 12.6888 11.807 12.9374V20.924C11.807 21.1726 11.9058 21.4111 12.0816 21.5869C12.2574 21.7627 12.4959 21.8615 12.7445 21.8615C12.9931 21.8615 13.2316 21.7627 13.4074 21.5869C13.5832 21.4111 13.682 21.1726 13.682 20.924V20.9202ZM18.1951 20.9202V12.9374C18.1951 12.6888 18.0963 12.4503 17.9205 12.2745C17.7447 12.0987 17.5063 11.9999 17.2576 11.9999C17.009 11.9999 16.7705 12.0987 16.5947 12.2745C16.4189 12.4503 16.3201 12.6888 16.3201 12.9374V20.924C16.3201 21.1726 16.4189 21.4111 16.5947 21.5869C16.7705 21.7627 17.009 21.8615 17.2576 21.8615C17.5063 21.8615 17.7447 21.7627 17.9205 21.5869C18.0963 21.4111 18.1951 21.1726 18.1951 20.924V20.9202Z" fill="#8C8F9F"/>
</svg>
