<svg width="40" height="40" viewBox="0 0 40 40" fill="none" xmlns="http://www.w3.org/2000/svg">
<rect x="0.5" y="0.5" width="39" height="39" rx="8.5" fill="#F8F9FB"/>
<path d="M30.4373 15.5938H29.8904V14.0312C29.8904 13.824 29.8081 13.6253 29.6616 13.4788C29.5151 13.3323 29.3164 13.25 29.1092 13.25H19.9217L18.0936 10.4766C18.0228 10.3691 17.9266 10.2808 17.8135 10.2194C17.7003 10.1581 17.5738 10.1257 17.4451 10.125H9.89044C9.68324 10.125 9.48453 10.2073 9.33802 10.3538C9.1915 10.5003 9.10919 10.699 9.10919 10.9062V15.5938H8.56232C8.45139 15.5939 8.34177 15.6177 8.24074 15.6635C8.13971 15.7093 8.04959 15.776 7.97638 15.8594C7.90299 15.943 7.8483 16.0413 7.81596 16.1477C7.78363 16.2542 7.77439 16.3663 7.78888 16.4766L9.35138 28.1953C9.376 28.3831 9.46801 28.5556 9.61029 28.6806C9.75256 28.8056 9.93541 28.8747 10.1248 28.875H28.8748C29.0656 28.8766 29.2503 28.8084 29.3942 28.6832C29.5381 28.558 29.6313 28.3844 29.6561 28.1953L31.2186 16.4766C31.2331 16.3663 31.2238 16.2542 31.1915 16.1477C31.1592 16.0413 31.1045 15.943 31.0311 15.8594C30.957 15.775 30.8656 15.7077 30.7632 15.6618C30.6607 15.616 30.5496 15.5928 30.4373 15.5938ZM10.6717 11.6875H17.0233L18.8514 14.4219C18.9175 14.5366 19.0117 14.6326 19.1251 14.701C19.2386 14.7693 19.3675 14.8077 19.4998 14.8125H28.3279V15.5938H10.6717V11.6875ZM28.1873 27.3125H10.8123L9.45294 17.1562H29.5467L28.1873 27.3125Z" fill="#3070A6"/>
<path d="M21.8438 24.9688H17.1562C16.949 24.9688 16.7503 25.0511 16.6038 25.1976C16.4573 25.3441 16.375 25.5428 16.375 25.75C16.375 25.9572 16.4573 26.1559 16.6038 26.3024C16.7503 26.4489 16.949 26.5312 17.1562 26.5312H21.8438C22.051 26.5312 22.2497 26.4489 22.3962 26.3024C22.5427 26.1559 22.625 25.9572 22.625 25.75C22.625 25.5428 22.5427 25.3441 22.3962 25.1976C22.2497 25.0511 22.051 24.9688 21.8438 24.9688ZM19.0703 24.0547L19.1484 24.0937L19.2266 24.1328C19.3132 24.1689 19.4061 24.1875 19.5 24.1875C19.5939 24.1875 19.6868 24.1689 19.7734 24.1328L19.8516 24.0937L19.9297 24.0547L22.2734 22.4922C22.425 22.3701 22.5256 22.1958 22.5554 22.0034C22.5852 21.811 22.5421 21.6145 22.4346 21.4522C22.3271 21.29 22.1628 21.1737 21.9741 21.1262C21.7853 21.0786 21.5856 21.1033 21.4141 21.1953L20.2812 21.9766V18.7188C20.2812 18.5115 20.1989 18.3128 20.0524 18.1663C19.9059 18.0198 19.7072 17.9375 19.5 17.9375C19.2928 17.9375 19.0941 18.0198 18.9476 18.1663C18.8011 18.3128 18.7188 18.5115 18.7188 18.7188V21.9453L17.5859 21.1641C17.4144 21.072 17.2147 21.0474 17.0259 21.0949C16.8372 21.1424 16.6729 21.2587 16.5654 21.421C16.4579 21.5832 16.4148 21.7798 16.4446 21.9722C16.4744 22.1645 16.575 22.3388 16.7266 22.4609L19.0703 24.0547Z" fill="#3070A6"/>
<rect x="0.5" y="0.5" width="39" height="39" rx="8.5" stroke="#D1D9EA"/>
</svg>
