<svg width="18" height="19" viewBox="0 0 18 19" fill="none" xmlns="http://www.w3.org/2000/svg">
<path d="M15.75 8.30747H13.875C13.7758 8.30788 13.6776 8.32798 13.5862 8.3666C13.4948 8.40522 13.412 8.4616 13.3425 8.53247L12.4125 9.49997L10.3125 7.10747C10.2424 7.03253 10.1576 6.9728 10.0634 6.93196C9.96921 6.89112 9.86766 6.87005 9.76501 6.87005C9.66236 6.87005 9.5608 6.89112 9.46663 6.93196C9.37245 6.9728 9.28766 7.03253 9.21751 7.10747L7.94251 8.38247H6.75001C6.5511 8.38247 6.36033 8.46148 6.21968 8.60214C6.07903 8.74279 6.00001 8.93355 6.00001 9.13247C6.00001 9.33138 6.07903 9.52214 6.21968 9.6628C6.36033 9.80345 6.5511 9.88247 6.75001 9.88247H8.25001C8.34871 9.88304 8.44656 9.86412 8.53794 9.82679C8.62932 9.78947 8.71243 9.73448 8.78251 9.66497L9.75001 8.65997L11.85 11.0525C11.9178 11.1297 12.0006 11.1922 12.0935 11.236C12.1864 11.2799 12.2873 11.3042 12.39 11.3075C12.4887 11.308 12.5866 11.2891 12.6779 11.2518C12.7693 11.2145 12.8524 11.1595 12.9225 11.09L14.1975 9.80747H15.75C15.9489 9.80747 16.1397 9.72845 16.2803 9.5878C16.421 9.44714 16.5 9.25638 16.5 9.05747C16.5 8.85855 16.421 8.66779 16.2803 8.52714C16.1397 8.38648 15.9489 8.30747 15.75 8.30747ZM10.2075 12.2825L8.78251 13.7075C8.71279 13.7778 8.62984 13.8336 8.53844 13.8716C8.44705 13.9097 8.34902 13.9293 8.25001 13.9293C8.151 13.9293 8.05297 13.9097 7.96158 13.8716C7.87018 13.8336 7.78723 13.7778 7.71751 13.7075L3.81001 9.79997C3.55285 9.54296 3.34885 9.2378 3.20967 8.90192C3.07048 8.56605 2.99884 8.20604 2.99884 7.84247C2.99884 7.47889 3.07048 7.11889 3.20967 6.78301C3.34885 6.44713 3.55285 6.14197 3.81001 5.88497C4.32876 5.36789 5.03132 5.07755 5.76376 5.07755C6.49619 5.07755 7.19876 5.36789 7.71751 5.88497C7.78723 5.95526 7.87018 6.01106 7.96158 6.04914C8.05297 6.08721 8.151 6.10682 8.25001 6.10682C8.34902 6.10682 8.44705 6.08721 8.53844 6.04914C8.62984 6.01106 8.71279 5.95526 8.78251 5.88497C9.30951 5.38376 10.009 5.10425 10.7363 5.10425C11.4635 5.10425 12.163 5.38376 12.69 5.88497C12.8571 6.05427 13.0032 6.24314 13.125 6.44747C13.2342 6.59763 13.3952 6.70194 13.5769 6.74023C13.7586 6.77851 13.948 6.74805 14.1085 6.65472C14.269 6.5614 14.3892 6.41186 14.4459 6.23503C14.5025 6.0582 14.4915 5.86666 14.415 5.69747C14.2296 5.38963 14.0081 5.1051 13.755 4.84997C13.0433 4.12985 12.0983 3.68679 11.0895 3.60021C10.0807 3.51362 9.07406 3.78917 8.25001 4.37747C7.61315 3.91869 6.86193 3.64477 6.07924 3.58595C5.29655 3.52714 4.51282 3.6857 3.81455 4.04414C3.11628 4.40259 2.53062 4.94698 2.12219 5.61724C1.71376 6.2875 1.49844 7.05757 1.50001 7.84247C1.49978 8.40053 1.61038 8.95309 1.82539 9.46808C2.0404 9.98307 2.35553 10.4502 2.75251 10.8425L6.66001 14.75C7.08188 15.1713 7.65376 15.408 8.25001 15.408C8.84626 15.408 9.41813 15.1713 9.84001 14.75L11.25 13.34C11.3897 13.1994 11.4681 13.0094 11.4681 12.8112C11.4681 12.6131 11.3897 12.423 11.25 12.2825C11.1102 12.1473 10.9233 12.0717 10.7288 12.0717C10.5343 12.0717 10.3474 12.1473 10.2075 12.2825Z" fill="#3B86C6"/>
</svg>
