<svg width="146" height="302" viewBox="0 0 146 302" fill="none" xmlns="http://www.w3.org/2000/svg">
<g opacity="0.05" clip-path="url(#clip0_402_2396)">
<path d="M39.4214 244.238C53.2706 238.164 65.2515 228.51 74.1311 216.269L83.4126 238.375C84.8334 241.759 84.8518 245.569 83.4636 248.966C82.0754 252.364 79.3943 255.071 76.0102 256.492L16.1675 281.617C12.7834 283.038 8.97352 283.057 5.57594 281.668C2.17835 280.28 -0.528615 277.599 -1.94946 274.215L-11.231 252.109C3.72579 254.342 19.0075 252.55 33.0415 246.916L33.7916 248.703C34.1468 249.549 34.8235 250.219 35.6729 250.566C36.5223 250.913 37.4748 250.908 38.3208 250.553C39.1668 250.198 39.8371 249.521 40.1841 248.672C40.5312 247.822 40.5266 246.87 40.1714 246.024L39.4214 244.238ZM66.0282 196.97L70.9301 208.645C66.7132 214.956 67.7551 213.505 66.2914 215.47C57.4909 225.95 46.2606 234.117 33.5796 239.261C21.0275 244.712 7.33268 247.009 -6.31101 245.953C-8.95208 245.561 -6.74226 245.909 -14.432 244.485L-19.3339 232.81C-20.7547 229.426 -20.773 225.616 -19.3848 222.218C-17.9966 218.821 -15.3156 216.114 -11.9315 214.693L0.828133 209.336C1.84133 208.916 2.66077 208.132 3.1254 207.138C3.59004 206.145 3.66627 205.013 3.3391 203.966C2.59243 201.5 2.78971 198.845 3.89258 196.516C4.99545 194.188 6.92506 192.352 9.30606 191.368L16.7705 188.234C19.1408 187.223 21.8021 187.131 24.2368 187.974C26.6715 188.818 28.7054 190.537 29.943 192.796C30.4612 193.763 31.3223 194.501 32.3569 194.865C33.3916 195.229 34.525 195.193 35.5344 194.764L48.294 189.407C51.6531 188.113 55.3839 188.18 58.6949 189.592C62.0058 191.004 64.6362 193.65 66.0282 196.97ZM25.5819 198.943C24.7662 198.166 24.0824 197.262 23.5573 196.266C23.1465 195.509 22.4685 194.933 21.6557 194.65C20.843 194.367 19.9539 194.397 19.162 194.734L11.7933 197.828C10.9981 198.157 10.3541 198.771 9.98718 199.549C9.62023 200.328 9.55662 201.215 9.80879 202.038C10.1523 203.111 10.3189 204.232 10.3022 205.358L25.5819 198.943Z" fill="#3B86C6"/>
</g>
<g opacity="0.1" clip-path="url(#clip1_402_2396)">
<path d="M95.8687 60.4256C106.01 63.3033 116.735 63.4269 126.94 60.7836L122.124 76.7877C121.387 79.2377 119.707 81.2945 117.453 82.5056C115.2 83.7167 112.557 83.983 110.107 83.2458L66.783 70.2099C64.333 69.4728 62.2762 67.7925 61.0651 65.5389C59.854 63.2853 59.5877 60.6428 60.3249 58.1929L65.1404 42.1888C72.1923 50.0244 81.2046 55.8396 91.25 59.0359L90.8608 60.3291C90.6765 60.9416 90.7431 61.6022 91.0459 62.1656C91.3487 62.729 91.8628 63.1491 92.4753 63.3334C93.0878 63.5177 93.7484 63.4511 94.3119 63.1483C94.8753 62.8455 95.2953 62.3314 95.4796 61.7189L95.8687 60.4256ZM131.144 46.8118L128.6 55.2642C123.533 56.7869 124.737 56.4691 123.078 56.8766C113.698 58.6076 104.036 58.0176 94.9352 55.1581C85.7678 52.521 77.3846 47.6814 70.5166 41.0613C69.2703 39.6789 70.3042 40.8463 66.8011 36.6693L69.3444 28.2169C70.0816 25.767 71.7618 23.7102 74.0154 22.4991C76.269 21.288 78.9115 21.0217 81.3615 21.7589L90.599 24.5384C91.3302 24.7619 92.1185 24.704 92.8091 24.3758C93.4997 24.0477 94.0426 23.4731 94.3311 22.7651C95.0235 21.1078 96.3076 19.7674 97.9336 19.0045C99.5597 18.2415 101.411 18.1107 103.128 18.6374L108.532 20.2634C110.255 20.7717 111.727 21.9026 112.662 23.4361C113.597 24.9697 113.928 26.7961 113.591 28.5603C113.441 29.31 113.577 30.0888 113.972 30.7435C114.367 31.3982 114.992 31.8816 115.725 32.0986L124.963 34.8781C127.343 35.6728 129.319 37.3635 130.473 39.5915C131.627 41.8195 131.868 44.4095 131.144 46.8118ZM108.52 29.9306C108.426 29.1512 108.459 28.3617 108.619 27.593C108.733 27.0041 108.624 26.3936 108.313 25.8808C108.002 25.368 107.51 24.9897 106.935 24.8197L101.6 23.2145C101.026 23.0388 100.408 23.0832 99.8653 23.339C99.3226 23.5948 98.8948 24.0438 98.6654 24.5981C98.3743 25.3272 97.9665 26.0041 97.4579 26.6022L108.52 29.9306Z" fill="#3B86C6"/>
</g>
<defs>
<clipPath id="clip0_402_2396">
<rect width="110.71" height="110.71" fill="white" transform="translate(-43 199.858) rotate(-22.7757)"/>
</clipPath>
<clipPath id="clip1_402_2396">
<rect width="77.1734" height="77.1734" fill="white" transform="translate(71.2361) rotate(16.7461)"/>
</clipPath>
</defs>
</svg>
