<svg width="84" height="30" viewBox="0 0 84 30" fill="none" xmlns="http://www.w3.org/2000/svg">
<path d="M15 30C23.2843 30 30 23.2843 30 15C30 6.71573 23.2843 0 15 0C6.71573 0 0 6.71573 0 15C0 23.2843 6.71573 30 15 30Z" fill="#0088CC"/>
<path fill-rule="evenodd" clip-rule="evenodd" d="M10.8261 9.91309H19.2392C19.5369 9.91309 19.8343 9.95675 20.1451 10.1017C20.5177 10.2753 20.7153 10.5491 20.8537 10.7515C20.8645 10.7673 20.8745 10.7835 20.8839 10.8001C21.0466 11.0898 21.1305 11.4026 21.1305 11.7392C21.1305 12.0588 21.0544 12.4072 20.8839 12.7107C20.8823 12.7137 20.8806 12.7166 20.8789 12.7194L15.5637 21.8499C15.4465 22.0512 15.2307 22.1748 14.9978 22.1739C14.7648 22.1731 14.5499 22.048 14.4341 21.8459L9.21649 12.7349C9.21499 12.7324 9.21349 12.73 9.21199 12.7275C9.09258 12.5307 8.90792 12.2264 8.87561 11.8337C8.84594 11.4726 8.9271 11.1108 9.10854 10.7971C9.28999 10.4833 9.56315 10.2325 9.8917 10.0789C10.244 9.91437 10.601 9.91309 10.8261 9.91309ZM14.3479 11.2174H10.8261C10.5948 11.2174 10.506 11.2316 10.4439 11.2607C10.358 11.3008 10.2859 11.3667 10.2377 11.4501C10.1895 11.5335 10.1677 11.6301 10.1756 11.7269C10.1801 11.7823 10.2027 11.8457 10.3361 12.0656C10.3389 12.0702 10.3416 12.0749 10.3443 12.0796L14.3479 19.0706V11.2174ZM15.6522 11.2174V19.1051L19.7486 12.0685C19.7948 11.9845 19.8262 11.8631 19.8262 11.7392C19.8262 11.6386 19.8053 11.5512 19.7587 11.4612C19.7098 11.3909 19.68 11.3537 19.6551 11.3282C19.6337 11.3064 19.6173 11.2947 19.594 11.2839C19.4972 11.2387 19.3981 11.2174 19.2392 11.2174H15.6522Z" fill="white"/>
<path d="M42.368 23V9.822H37.242V7.49H50.332V9.822H45.206V23H42.368ZM50.8858 15.234C50.8858 13.606 51.1791 12.198 51.7658 11.01C52.3671 9.822 53.2251 8.90533 54.3398 8.26C55.4544 7.6 56.7818 7.27 58.3218 7.27C59.8471 7.27 61.1671 7.6 62.2818 8.26C63.3964 8.90533 64.2544 9.822 64.8558 11.01C65.4718 12.198 65.7798 13.5987 65.7798 15.212C65.7798 16.84 65.4718 18.2553 64.8558 19.458C64.2544 20.646 63.3964 21.57 62.2818 22.23C61.1671 22.89 59.8471 23.22 58.3218 23.22C56.7818 23.22 55.4544 22.89 54.3398 22.23C53.2398 21.57 52.3891 20.646 51.7878 19.458C51.1864 18.2553 50.8858 16.8473 50.8858 15.234ZM53.8558 15.234C53.8558 16.9793 54.2298 18.3433 54.9778 19.326C55.7258 20.3087 56.8404 20.8 58.3218 20.8C59.7591 20.8 60.8664 20.3087 61.6438 19.326C62.4211 18.3433 62.8098 16.9793 62.8098 15.234C62.8098 13.474 62.4211 12.11 61.6438 11.142C60.8811 10.174 59.7738 9.69 58.3218 9.69C56.8404 9.69 55.7258 10.174 54.9778 11.142C54.2298 12.11 53.8558 13.474 53.8558 15.234ZM68.7082 23V7.49H70.8422L79.8402 19.128H79.2682V7.49H81.9082V23H79.7742L70.7982 11.362H71.3482V23H68.7082Z" fill="#3070A6"/>
</svg>
