<svg width="40" height="40" viewBox="0 0 40 40" fill="none" xmlns="http://www.w3.org/2000/svg">
<rect width="40" height="40" rx="9" fill="#719D24"/>
<path d="M20.0178 10.3125C22.6064 10.3172 24.9567 11.3372 26.692 12.9955L28.0871 11.6004C28.6777 11.0098 29.6875 11.4281 29.6875 12.2633V17.5C29.6875 18.0178 29.2678 18.4375 28.75 18.4375H23.5133C22.6781 18.4375 22.2598 17.4277 22.8504 16.8371L24.4812 15.2062C23.2756 14.0774 21.7156 13.452 20.0582 13.4378C16.4489 13.4066 13.4065 16.3275 13.4377 20.0566C13.4673 23.5941 16.3353 26.5625 20 26.5625C21.6065 26.5625 23.1249 25.9892 24.3214 24.9392C24.5067 24.7767 24.7865 24.7866 24.9608 24.9608L26.5101 26.5101C26.7004 26.7004 26.691 27.0107 26.4913 27.1911C24.7735 28.7427 22.4971 29.6875 20 29.6875C14.6498 29.6875 10.3125 25.3503 10.3125 20.0001C10.3125 14.656 14.6737 10.3029 20.0178 10.3125Z" fill="white"/>
</svg>
