<svg width="38" height="38" viewBox="0 0 38 38" fill="none" xmlns="http://www.w3.org/2000/svg">
<path d="M31.7775 10.9241C31.7775 12.0323 31.7775 13.1405 31.7775 14.2487C31.7775 16.5229 31.7775 18.797 31.7775 21.0712C31.7775 22.9357 31.7775 24.8002 31.7775 26.6647C31.7775 27.0452 31.8065 27.4434 31.756 27.822C31.7679 27.7332 31.7798 27.6445 31.7918 27.5557C31.7766 27.6518 31.7559 27.7458 31.7294 27.8394C31.7163 27.8854 31.7001 27.9304 31.6838 27.9754C31.6196 28.1525 31.79 27.7405 31.7099 27.9103C31.6697 27.9955 31.6207 28.0762 31.5691 28.1549C31.529 28.2161 31.4133 28.3557 31.6144 28.1027C31.5756 28.1515 31.5329 28.1972 31.4899 28.2422C31.4283 28.3066 31.1607 28.5167 31.4461 28.3005C31.3586 28.3668 31.2639 28.4228 31.167 28.4741C31.102 28.5085 30.9307 28.5781 31.2342 28.4519C31.1902 28.4702 31.1449 28.4854 31.0997 28.5005C30.9925 28.5365 30.8815 28.5595 30.7701 28.5771C30.8589 28.5652 30.9477 28.5533 31.0364 28.5413C30.7405 28.5808 30.4326 28.5628 30.1348 28.5628C29.5405 28.5628 28.9461 28.5628 28.3517 28.5628C26.38 28.5628 24.4083 28.5628 22.4365 28.5628C20.0845 28.5628 17.7324 28.5628 15.3805 28.5628C13.4445 28.5628 11.5086 28.5628 9.57277 28.5628C9.02919 28.5628 8.48561 28.5628 7.94199 28.5628C7.65994 28.5628 7.36928 28.5788 7.08909 28.5413C7.17787 28.5533 7.26665 28.5652 7.35543 28.5771C7.25928 28.5619 7.16531 28.5413 7.07163 28.5147C7.02562 28.5017 6.9806 28.4854 6.93566 28.4691C6.75849 28.405 7.1705 28.5754 7.00067 28.4953C6.91547 28.455 6.83475 28.4061 6.75603 28.3545C6.69476 28.3144 6.55517 28.1987 6.8082 28.3997C6.75935 28.361 6.71369 28.3183 6.66864 28.2753C6.60423 28.2137 6.39404 27.9462 6.61035 28.2315C6.54405 28.144 6.48808 28.0493 6.43673 27.9525C6.40227 27.8875 6.33264 27.7162 6.45895 28.0197C6.44063 27.9756 6.42542 27.9304 6.41029 27.8852C6.37436 27.7781 6.35135 27.6671 6.33371 27.5557C6.34563 27.6445 6.35758 27.7332 6.3695 27.822C6.32036 27.4543 6.34803 27.068 6.34803 26.6984C6.34803 25.9238 6.34803 25.1493 6.34803 24.3747C6.34803 22.1126 6.34803 19.8505 6.34803 17.5884C6.34803 15.6887 6.34803 13.789 6.34803 11.8893C6.34803 11.4747 6.31439 11.0397 6.3695 10.6271C6.35758 10.7159 6.34563 10.8047 6.33371 10.8935C6.34892 10.7974 6.36957 10.7034 6.39612 10.6097C6.40918 10.5637 6.42546 10.5187 6.44171 10.4738C6.50583 10.2966 6.33547 10.7086 6.41562 10.5389C6.45584 10.4537 6.50483 10.3729 6.55635 10.2942C6.59647 10.2329 6.71215 10.0934 6.51112 10.3464C6.54991 10.2975 6.59257 10.2519 6.63561 10.2068C6.69716 10.1424 6.96475 9.93222 6.67941 10.1485C6.76687 10.0822 6.86162 10.0262 6.95845 9.97484C7.02343 9.94038 7.1948 9.87071 6.89129 9.99703C6.93533 9.9787 6.98064 9.9635 7.02583 9.94832C7.13297 9.91236 7.24396 9.88939 7.35539 9.87175C7.26662 9.88366 7.17784 9.89562 7.08906 9.90753C7.38495 9.86799 7.69294 9.88606 7.99069 9.88606C8.58505 9.88606 9.17944 9.88606 9.7738 9.88606C11.7455 9.88606 13.7173 9.88606 15.689 9.88606C18.041 9.88606 20.393 9.88606 22.7451 9.88606C24.681 9.88606 26.6169 9.88606 28.5528 9.88606C29.0964 9.88606 29.64 9.88606 30.1836 9.88606C30.4656 9.88606 30.7563 9.8701 31.0364 9.90753C30.9477 9.89562 30.8589 9.88366 30.7701 9.87175C30.8663 9.88696 30.9602 9.9076 31.0539 9.93415C31.0999 9.94721 31.1449 9.9635 31.1899 9.97978C31.367 10.0439 30.955 9.87354 31.1248 9.95369C31.21 9.99391 31.2908 10.0429 31.3695 10.0945C31.4307 10.1346 31.5703 10.2503 31.3173 10.0492C31.3661 10.088 31.4118 10.1307 31.4568 10.1737C31.5212 10.2353 31.7314 10.5029 31.5151 10.2176C31.5814 10.305 31.6374 10.3998 31.6887 10.4966C31.7232 10.5616 31.7928 10.7329 31.6666 10.4294C31.6849 10.4735 31.7001 10.5187 31.7152 10.5639C31.7512 10.6711 31.7742 10.782 31.7918 10.8935C31.7799 10.8047 31.7679 10.7159 31.756 10.6271C31.7692 10.726 31.7763 10.8244 31.7775 10.9241C31.7841 11.4702 32.2282 11.9261 32.7794 11.9261C33.3206 11.9261 33.7879 11.4704 33.7813 10.9241C33.7681 9.82909 33.1799 8.80441 32.2201 8.26666C31.7526 8.00472 31.2206 7.8822 30.6871 7.8822C30.3455 7.8822 30.0039 7.8822 29.6623 7.8822C27.9961 7.8822 26.3299 7.8822 24.6636 7.8822C22.3503 7.8822 20.037 7.8822 17.7236 7.8822C15.5596 7.8822 13.3956 7.8822 11.2316 7.8822C10.0133 7.8822 8.79509 7.8822 7.57682 7.8822C7.51338 7.8822 7.4499 7.8822 7.38645 7.8822C6.31571 7.8822 5.33683 8.46021 4.77557 9.36198C4.37032 10.013 4.34424 10.73 4.34424 11.4609C4.34424 13.191 4.34424 14.921 4.34424 16.6511C4.34424 18.9563 4.34424 21.2615 4.34424 23.5667C4.34424 24.8713 4.34424 26.176 4.34424 27.4806C4.34424 28.0998 4.51467 28.737 4.88016 29.2428C5.46715 30.0552 6.37365 30.5666 7.38882 30.5666C7.64195 30.5666 7.89508 30.5666 8.14824 30.5666C9.70034 30.5666 11.2524 30.5666 12.8045 30.5666C15.0874 30.5666 17.3702 30.5666 19.653 30.5666C21.8701 30.5666 24.0872 30.5666 26.3043 30.5666C27.6593 30.5666 29.0143 30.5666 30.3693 30.5666C31.0766 30.5666 31.7666 30.487 32.3809 30.0847C33.2412 29.5214 33.7814 28.5565 33.7814 27.5234C33.7814 27.4292 33.7814 27.3349 33.7814 27.2408C33.7814 25.6625 33.7814 24.0842 33.7814 22.5059C33.7814 20.1871 33.7814 17.8683 33.7814 15.5494C33.7814 14.0657 33.7814 12.5819 33.7814 11.0982C33.7814 11.0401 33.7814 10.9821 33.7814 10.9241C33.7814 10.378 33.3256 9.9222 32.7795 9.9222C32.2333 9.9222 31.7775 10.378 31.7775 10.9241Z" fill="#D1D9EA"/>
<path d="M32.7826 21.7164V27.525C32.7826 28.6515 31.8662 29.55 30.7394 29.55H7.38622C6.2594 29.55 5.33691 28.6515 5.33691 27.525V25.489L11.8974 18.6047L17.5964 23.2465L25.6164 16.073L32.7826 21.7164Z" fill="#D1D9EA"/>
<path d="M31.7773 21.7163C31.7773 23.4863 31.7773 25.2564 31.7773 27.0264C31.7773 27.2901 31.7908 27.5599 31.7559 27.8219C31.7678 27.7331 31.7797 27.6443 31.7916 27.5556C31.7764 27.6517 31.7558 27.7456 31.7292 27.8393C31.7162 27.8853 31.6999 27.9303 31.6836 27.9752C31.6195 28.1524 31.7899 27.7404 31.7097 27.9102C31.6695 27.9953 31.6206 28.0761 31.569 28.1548C31.5289 28.216 31.4132 28.3555 31.6143 28.1025C31.5754 28.1514 31.5328 28.1971 31.4898 28.2421C31.4282 28.3065 31.1606 28.5166 31.446 28.3004C31.3585 28.3667 31.2637 28.4226 31.1669 28.474C31.1019 28.5084 30.9306 28.578 31.2341 28.4518C31.1901 28.4701 31.1447 28.4853 31.0996 28.5004C30.9924 28.5364 30.8814 28.5594 30.77 28.577C30.8587 28.565 30.9475 28.5531 31.0363 28.5412C30.7404 28.5807 30.4324 28.5627 30.1347 28.5627C29.5403 28.5627 28.9459 28.5627 28.3516 28.5627C26.3798 28.5627 24.4081 28.5627 22.4364 28.5627C20.0844 28.5627 17.7323 28.5627 15.3803 28.5627C13.4444 28.5627 11.5085 28.5627 9.57265 28.5627C9.02907 28.5627 8.48549 28.5627 7.94187 28.5627C7.65982 28.5627 7.36916 28.5786 7.08898 28.5412C7.17775 28.5531 7.26653 28.565 7.35531 28.577C7.25916 28.5618 7.16519 28.5411 7.07151 28.5146C7.0255 28.5016 6.98048 28.4853 6.93554 28.469C6.75837 28.4049 7.17038 28.5753 7.00056 28.4951C6.91536 28.4549 6.83463 28.406 6.75591 28.3544C6.69465 28.3143 6.55505 28.1986 6.80808 28.3996C6.75923 28.3608 6.71357 28.3182 6.66852 28.2751C6.60411 28.2136 6.39392 27.946 6.61023 28.2314C6.54393 28.1439 6.48796 28.0492 6.43661 27.9524C6.40215 27.8874 6.33252 27.7161 6.45883 28.0196C6.44051 27.9755 6.4253 27.9303 6.41017 27.8851C6.37424 27.778 6.35123 27.667 6.33359 27.5556C6.34551 27.6443 6.35746 27.7331 6.36938 27.8219C6.31649 27.4262 6.34791 27.0111 6.34791 26.6133C6.34791 26.2384 6.34791 25.8637 6.34791 25.4888C6.25007 25.725 6.15228 25.9611 6.05445 26.1973C7.1512 25.0456 8.24796 23.8939 9.34471 22.7422C10.4332 21.5991 11.5218 20.456 12.6103 19.313C12.138 19.313 11.6657 19.313 11.1934 19.313C12.5501 20.4185 13.9068 21.524 15.2636 22.6295C15.8057 23.0713 16.3479 23.513 16.8901 23.9548C17.1046 24.1296 17.3114 24.2482 17.5985 24.2482C17.8755 24.2482 18.1048 24.1357 18.307 23.9548C19.4175 22.9611 20.528 21.9675 21.6386 20.9739C23.1056 19.6612 24.5727 18.3484 26.0398 17.0358C26.1346 16.951 26.2294 16.8662 26.3242 16.7813C25.8519 16.7813 25.3796 16.7813 24.9072 16.7813C26.1806 17.7845 27.4539 18.7876 28.7273 19.7908C29.8418 20.6687 30.9562 21.5467 32.0707 22.4247C32.2896 22.5971 32.4886 22.7181 32.7792 22.7181C33.0438 22.7181 33.3006 22.6117 33.4877 22.4247C33.8395 22.0728 33.9174 21.3463 33.4877 21.0077C32.2143 20.0046 30.941 19.0015 29.6676 17.9983C28.5531 17.1203 27.4387 16.2424 26.3242 15.3644C26.1053 15.1919 25.9063 15.0709 25.6157 15.0709C25.3387 15.0709 25.1095 15.1835 24.9072 15.3644C23.7967 16.358 22.6862 17.3517 21.5757 18.3453C20.1086 19.658 18.6415 20.9707 17.1744 22.2833C17.0796 22.3682 16.9848 22.453 16.8901 22.5378C17.3624 22.5378 17.8347 22.5378 18.307 22.5378C16.9503 21.4323 15.5935 20.3268 14.2368 19.2213C13.6947 18.7795 13.1525 18.3377 12.6103 17.896C12.3957 17.7212 12.1889 17.6025 11.9018 17.6025C11.6426 17.6025 11.3737 17.7066 11.1934 17.896C10.0966 19.0477 8.99987 20.1994 7.90311 21.3511C7.15142 22.1405 6.39972 22.9298 5.64802 23.7192C5.40194 23.9776 5.1559 24.236 4.90982 24.4944C4.76654 24.6448 4.58648 24.8027 4.48081 24.9831C4.32118 25.2556 4.34401 25.55 4.34401 25.8478C4.34401 26.1264 4.34401 26.405 4.34401 26.6836C4.34401 27.2321 4.31202 27.789 4.45058 28.3257C4.71966 29.3683 5.59728 30.2051 6.63167 30.4719C6.91253 30.5444 7.20488 30.5664 7.49418 30.5664C8.62339 30.5664 9.7526 30.5664 10.8818 30.5664C13.0085 30.5664 15.1353 30.5664 17.262 30.5664C19.5899 30.5664 21.9177 30.5664 24.2455 30.5664C25.9781 30.5664 27.7105 30.5664 29.443 30.5664C29.8372 30.5664 30.2313 30.5664 30.6254 30.5664C30.9015 30.5664 31.1748 30.5393 31.4463 30.4829C32.5086 30.2623 33.3478 29.3855 33.6614 28.3719C33.7831 27.9787 33.7811 27.5703 33.7811 27.1647C33.7811 26.7218 33.7811 26.2789 33.7811 25.8361C33.7811 24.7304 33.7811 23.6247 33.7811 22.5191C33.7811 22.2515 33.7811 21.9838 33.7811 21.7162C33.7811 21.17 33.3253 20.7143 32.7791 20.7143C32.233 20.7143 31.7773 21.1701 31.7773 21.7163Z" fill="#D1D9EA"/>
<path d="M18.0208 15.4249C18.6535 15.4249 19.1664 14.912 19.1664 14.2793C19.1664 13.6466 18.6535 13.1337 18.0208 13.1337C17.3881 13.1337 16.8752 13.6466 16.8752 14.2793C16.8752 14.912 17.3881 15.4249 18.0208 15.4249Z" fill="#D1D9EA"/>
<path d="M18.1642 14.2793C18.1632 14.3289 18.1601 14.3774 18.1548 14.4268C18.1667 14.338 18.1787 14.2492 18.1906 14.1604C18.1834 14.2084 18.1744 14.255 18.1632 14.3022C18.1552 14.3328 18.146 14.3631 18.1355 14.393C18.2094 14.2275 18.2248 14.191 18.1816 14.2834C18.1617 14.3256 18.1367 14.3652 18.1118 14.4045C18.0238 14.5437 18.2945 14.2016 18.1222 14.3809C18.07 14.4352 17.9275 14.537 18.184 14.3442C18.1343 14.3816 18.0796 14.4116 18.0247 14.4404C17.8601 14.5266 18.2668 14.3508 18.0892 14.409C18.0283 14.429 17.9649 14.4399 17.9016 14.4494C17.9904 14.4375 18.0792 14.4255 18.168 14.4136C18.0688 14.4242 17.9723 14.4242 17.8731 14.4136C17.9619 14.4255 18.0507 14.4375 18.1395 14.4494C18.0915 14.4422 18.0449 14.4332 17.9977 14.422C17.967 14.414 17.9368 14.4047 17.9069 14.3943C18.0724 14.4682 18.1089 14.4835 18.0165 14.4404C17.9743 14.4205 17.9347 14.3955 17.8954 14.3706C17.7562 14.2826 18.0983 14.5532 17.919 14.3809C17.8647 14.3288 17.7629 14.1862 17.9557 14.4427C17.9183 14.393 17.8882 14.3384 17.8595 14.2834C17.7733 14.1188 17.9491 14.5256 17.8908 14.348C17.8708 14.2871 17.8599 14.2237 17.8505 14.1604C17.8624 14.2492 17.8743 14.338 17.8862 14.4268C17.8757 14.3276 17.8757 14.2311 17.8862 14.1319C17.8743 14.2207 17.8624 14.3095 17.8505 14.3983C17.8577 14.3503 17.8667 14.3037 17.8779 14.2565C17.8859 14.2259 17.8951 14.1956 17.9056 14.1657C17.8317 14.3312 17.8163 14.3677 17.8595 14.2752C17.8794 14.233 17.9044 14.1935 17.9293 14.1542C18.0173 14.0149 17.7467 14.3571 17.919 14.1777C17.9711 14.1235 18.1136 14.0217 17.8572 14.2145C17.9069 14.1771 17.9615 14.147 18.0164 14.1183C18.181 14.0321 17.7743 14.2079 17.9519 14.1496C18.0128 14.1296 18.0763 14.1187 18.1394 14.1093C18.0507 14.1212 17.9619 14.1331 17.8731 14.145C17.9723 14.1344 18.0687 14.1344 18.1679 14.145C18.0792 14.1331 17.9904 14.1212 17.9016 14.1093C17.9495 14.1164 17.9962 14.1255 18.0434 14.1367C18.074 14.1447 18.1043 14.1539 18.1342 14.1644C17.9687 14.0905 17.9322 14.0751 18.0247 14.1183C18.0668 14.1382 18.1064 14.1632 18.1457 14.188C18.2849 14.276 17.9428 14.0054 18.1221 14.1777C18.1764 14.2298 18.2782 14.3724 18.0854 14.1159C18.1228 14.1656 18.1528 14.2203 18.1816 14.2752C18.2678 14.4398 18.092 14.0331 18.1503 14.2107C18.1703 14.2716 18.1811 14.335 18.1906 14.3982C18.1787 14.3095 18.1667 14.2207 18.1548 14.1319C18.1601 14.1812 18.1632 14.2297 18.1642 14.2793C18.1759 14.8253 18.6112 15.2813 19.1662 15.2813C19.7036 15.2813 20.1797 14.8255 20.1681 14.2793C20.1428 13.0935 19.2064 12.1571 18.0206 12.1318C16.8349 12.1065 15.8975 13.1316 15.873 14.2793C15.8478 15.465 16.8729 16.4024 18.0206 16.4269C19.2063 16.4521 20.1436 15.427 20.1681 14.2793C20.1797 13.7331 19.7036 13.2774 19.1662 13.2774C18.6112 13.2774 18.1759 13.7334 18.1642 14.2793Z" fill="#D1D9EA"/>
</svg>
